<?xml version="1.0" encoding="UTF-8" standalone="no"?>
<svg width="120px" height="120px" viewBox="0 0 120 120" version="1.1" xmlns="http://www.w3.org/2000/svg" xmlns:xlink="http://www.w3.org/1999/xlink" xmlns:sketch="http://www.bohemiancoding.com/sketch/ns">
    <title>Untitled</title>
    <description>Created with Sketch (http://www.bohemiancoding.com/sketch)</description>
    <defs></defs>
    <g id="Page-1" stroke="none" stroke-width="1" fill="none" fill-rule="evenodd" sketch:type="MSPage">
        <g id="about" sketch:type="MSLayerGroup" fill="#000000">
            <g id="Page-1" sketch:type="MSShapeGroup">
                <g id="icon_20771">
                    <path d="M60,10 C87.57,10 110,32.43 110,60 C110,87.57 87.57,110 60,110 C32.43,110 10,87.57 10,60 C10,32.43 32.43,10 60,10 L60,10 L60,10 Z M0,60 C0,93.1368 26.8632,120 60,120 C93.1368,120 120,93.1368 120,60 C120,26.8632 93.1368,0 60,0 C26.8632,0 0,26.8632 0,60 L0,60 Z" id="circle"></path>
                    <path d="M60.5,41 C64.0898511,41 67,38.0898511 67,34.5 C67,30.9101489 64.0898511,28 60.5,28 C56.9101489,28 54,30.9101489 54,34.5 C54,38.0898511 56.9101489,41 60.5,41 L60.5,41 Z" id="dot"></path>
                    <path d="M54.9675884,47 C54.9675884,47 51,47.5856553 51,48.8011643 C51,49.5369627 54.9675884,52.8539222 54.9675884,52.8539222 L54.9675886,88.4618407 C54.9675886,88.4618407 51,92.7943741 51,93.5955197 C51,94.5056004 54.9675884,93.5955197 54.9675884,93.5955197 L66.7544246,93.5955197 C66.7544246,93.5955197 71,94.2734051 71,93.5955197 C71,92.5621788 66.7544246,88.4618407 66.7544246,88.4618407 L66.7544246,47 L54.9675884,47 L54.9675884,47 Z" id="i"></path>
                </g>
            </g>
        </g>
    </g>
</svg>