<?xml version="1.0" encoding="UTF-8" standalone="no"?>
<svg width="664px" height="720px" viewBox="0 0 664 720" version="1.1" xmlns="http://www.w3.org/2000/svg" xmlns:xlink="http://www.w3.org/1999/xlink" xmlns:sketch="http://www.bohemiancoding.com/sketch/ns">
    <title>Untitled 2</title>
    <description>Created with Sketch (http://www.bohemiancoding.com/sketch)</description>
    <defs></defs>
    <g id="Page-1" stroke="none" stroke-width="1" fill="none" fill-rule="evenodd" sketch:type="MSPage">
        <g id="africa" sketch:type="MSLayerGroup" transform="translate(1.000000, 1.000000)" fill="#000000">
            <g id="Page-1" sketch:type="MSShapeGroup">
                <g id="icon_8115">
                    <g id="Layer_2">
                        <path d="M344.583,69.75 L346.333,68.583 L347.583,67.5 L348.417,66.5 L349.833,64.833 L351,63.667 L351.583,62.5 L351.583,61.583 L351.583,60.333 L350.667,59 L349.917,57.833 L349.5,56.75 L349.5,55.667 L349.583,53 L350.417,51.417 L351.083,50.667 L352.167,49.584 L353.5,48.334 L355.167,47.251 L356.5,46.251 L358,44.834 L359.25,44.834 L360.167,44.834 L361.333,44.501 L362.417,43.918 L363.25,43.168 L364,42.5 L365.25,41.833 L366.333,41.833 L369.167,41.833 L369.583,42.25 L370.25,43 L371.417,43.5 L372.333,43.667 L373.5,44.167 L374.667,44.5 L375.417,44.917 L376.833,45.75 L377.583,46.583 L377.583,47.166 L378.417,48.416 L378.417,49.166 L379.667,49.416 L381.083,49.499 L382,49.499 L383.167,49.749 L384.5,50.332 L385.083,50.665 L387,51.083 L388.917,50.916 L390.25,50.833 L391.75,50.833 L393.75,50.916 L396,51 L396.75,51.75 L397.167,52.417 L397.167,52.834 L398.5,53.251 L399.5,52.918 L399.5,52.585 L400.417,51.918 L401.083,51.251 L401.833,51.251 L403.333,51.251 C403.667,51.251 404.25,51.501 404.25,51.501 L405.917,51.834 L406.75,52 L407.917,52.417 L409.167,52.5 L410.167,52.583 L411.5,52.583 C411.5,52.583 413.333,52.666 413.583,52.75 C413.833,52.834 414.667,52.917 414.667,52.917 L415.833,53.417 L416.5,54 C416.5,54 416.917,54.5 417.25,54.583 C417.583,54.666 418.083,54.833 418.083,54.833 L419.25,54.833 L420.417,54.916 C420.417,54.916 420.749,55.249 421.083,55.416 C421.417,55.583 421.583,56.166 421.583,56.166 L422.583,56.416 L423.5,56.249 L423.833,55.791 L423.833,55.416 L424.333,54.916 L424.333,54.666 L425.167,54.166 L425.917,54.249 L425.917,55.082 L427.083,55.79 L428.083,55.79 L428.917,57 C428.917,57 429.501,57.167 429.667,57.417 C429.833,57.667 430.583,58 430.583,58 L431.167,58.083 L431.833,57.75 L431.833,57.417 L432.667,56.75 L433.583,56.167 L434,55.792 L435,54.75 L435.917,54 L436.417,53.333 L437.167,52.416 L437.833,51.916 L438.75,51.083 L439.583,50.333 L440.25,49.916 L441.167,49.916 L441.583,50 L442.5,50.333 L444.083,50.25 L445.083,49.417 L446.083,48.834 L446.583,48.084 L447.083,47.167 L447.583,46.917 L448.833,46.834 L449.583,47.417 L449.583,48.25 L450.417,49.25 L451,49.417 L451.75,49.25 L452.167,48.833 L453.333,48.25 L454.417,47.5 L455.167,47.583 L455.75,48.333 L456.25,49 L456.25,49.75 L455.333,50.25 L454.417,50.25 L454.917,50.917 L456.25,51.167 L456.917,51.834 L456.917,52.084 L457.75,51.667 L457.75,50.917 L459.417,50.417 C459.417,50.417 460.417,50.667 460.5,51 C460.583,51.333 461,51.75 461,51.75 L461.75,52.083 L463,52.083 L464.333,52.083 L465.25,51.75 L466.667,51.083 L467.75,50.833 L468.583,51.166 L470.083,50.749 L470.5,50.166 L471.417,49.416 L472.583,48.583 L473.333,47.916 L474.5,47.249 L475.333,47.582 L476.083,48.832 L476.5,49.915 L476.917,51.248 L477.75,52 L478.667,53.083 L479.083,54.5 L479.583,55.792 L480.167,57 L480.75,58.167 L481.417,59.084 L482.25,60.417 L483.25,61.334 L483.75,62.667 C483.75,62.667 483.333,63.5 483.75,63.917 C484.167,64.334 483.75,65.75 483.75,65.75 L483.936,67 L483.936,67.917 L483.936,68.834 L483.333,69.084 L482.917,69.167 L482.75,69.75 L482.667,71.333 L482.417,72.583 L482.333,73.666 L482.417,74.749 L482.5,75.499 L482.333,75.999 L481.667,76.582 L481.417,77.165 L481.333,78.415 L481.25,79.415 L481.5,81.415 L482.333,82 L482.417,83 L482.25,83.417 L481.583,83.917 L480.833,84.584 L480.083,85.251 L479.5,85.668 L479.167,86.168 L478.667,86.168 L477.75,85.668 C477.75,85.668 477.083,85.251 476.833,85.085 C476.583,84.919 475.583,84.418 475.583,84.418 L474.667,83.668 L473.75,82.668 L473.5,82 L472.5,81 L471.833,80 L471.5,79.417 L471.083,78.667 L469.833,77.834 L469.167,77.334 L468.5,76.25 L468.083,75.25 L467.75,73.75 L467.333,73.083 L466.583,71.583 L466,70.917 L465.417,70.584 L465.25,70.167 L464.333,69.167 L464.083,68.667 L463.25,67.084 L462.667,66.417 L462.167,65.584 L461.667,65.084 L461.333,65.584 L461.667,66.501 L462.167,67.584 L462.667,68.001 L463.5,68.751 L463.917,69.834 L464.25,71 L464.417,71.583 L464.167,72.25 L464.167,73.25 L464.417,74.333 C464.417,74.333 464.584,75.083 464.917,75.25 C465.25,75.417 466.083,75.833 466.083,75.833 L466.833,76.25 L467.75,76.833 L468.5,77.916 L469.25,78.666 L469.583,79.249 L469.958,80.041 L470.625,80.499 L471.083,80.999 L471.583,81.541 L471.875,81.874 L472.167,82.124 L472.667,82.499 L472.917,82.916 L473.542,83.416 L473.708,83.666 C473.708,83.666 473.917,84.291 474.042,84.416 C474.167,84.541 474.75,85.208 474.75,85.208 L475.292,85.625 L475.917,85.792 L476.5,86 L477.417,86.167 L478.375,86.792 L478.875,87.125 L478.833,87.708 L478.458,88.333 C478.458,88.333 478.458,88.75 478.25,88.75 L477.583,88.75 C477.583,88.75 477.042,88.833 476.917,88.75 C476.792,88.667 476.542,88.949 476.417,88.787 C476.292,88.625 476.042,88.666 476.042,88.666 L475.75,89.249 C475.75,89.249 475.709,89.582 475.917,89.666 C476.125,89.75 476.875,89.916 476.875,89.916 L477.25,90.291 L477.375,90.583 L477.917,91.541 L478.208,91.874 L478.625,92.457 C478.625,92.457 478.833,92.707 478.958,92.79 C479.083,92.873 479.5,93.165 479.625,93.248 C479.75,93.331 479.625,93.04 479.75,93.331 C479.875,93.622 480.001,93.873 479.917,93.998 C479.833,94.123 479.75,94.456 479.75,94.456 C479.75,94.456 479.542,94.789 479.375,94.873 C479.208,94.957 479.208,94.956 479.208,94.956 C479.208,94.956 478.874,95.039 478.833,95.289 C478.792,95.539 478.708,95.581 478.708,95.706 C478.708,95.831 478.791,96.081 479.083,96.289 C479.375,96.497 479.167,96.247 479.375,96.497 C479.583,96.747 479.374,96.414 479.583,96.747 C479.792,97.08 480.083,97.122 480.208,97.414 C480.333,97.706 480.667,98.122 480.667,98.122 L481.875,98.747 L481.875,99.205 C481.875,99.205 481.874,99.33 481.958,99.455 C482.042,99.58 481.874,99.747 482.083,99.83 C482.292,99.913 482.459,100.496 482.542,100.663 C482.625,100.83 482.917,101.371 482.917,101.371 L483.125,101.746 L483.458,102.038 L483.667,102.496 C483.667,102.496 483.913,102.954 483.936,103.079 C483.959,103.204 484.166,103.537 484.208,103.662 C484.25,103.787 484.542,104.037 484.625,104.162 C484.708,104.287 484.876,104.454 484.917,104.579 C484.958,104.704 484.542,104.787 484.917,104.912 C485.292,105.037 486.625,105.995 486.625,105.995 L486.875,106.62 L486.875,107.453 L487.542,107.995 L487.542,108.412 L487.958,108.704 L488.25,109.246 L488.5,109.704 L488.792,110.246 L489.167,110.621 L489.75,111.454 L490.208,112.079 L490.667,112.454 L490.875,112.787 L491.333,113.37 C491.333,113.37 491.791,113.953 491.958,114.12 C492.125,114.287 492.501,114.578 492.542,114.703 C492.583,114.828 493.041,115.411 493.208,115.536 C493.375,115.661 494.126,116.37 494.292,116.453 C494.458,116.536 494.75,116.745 494.875,116.87 C495,116.995 495.292,117.162 495.375,117.287 C495.458,117.412 495.999,117.871 496.333,118.079 C496.667,118.287 497.083,118.871 497.083,118.871 L497.583,119.163 L498.208,119.621 L499,120.204 L499.167,120.496 L499.417,120.871 L499.417,121.204 L499.417,121.579 C499.417,121.579 499.376,121.621 499.417,121.829 C499.458,122.037 499.417,122.162 499.417,122.162 C499.417,122.162 499.167,122.287 499.042,122.329 C498.917,122.371 498.626,122.537 498.542,122.662 C498.458,122.787 498.208,122.954 498.208,122.954 L497.75,123.246 C497.75,123.246 496.708,124.329 496.708,124.496 C496.708,124.663 496.792,124.913 496.792,124.913 C496.792,124.913 497.001,125.038 497.042,125.163 C497.083,125.288 497.542,125.913 497.542,125.913 L497.833,125.913 C497.833,125.913 498.916,126.58 499.208,126.705 C499.5,126.83 499.334,126.413 499.667,126.705 C500,126.997 500.292,127.205 500.292,127.205 L500.875,127.872 L501.813,128.622 C501.813,128.622 502.188,128.997 502.251,129.184 C502.314,129.371 503.001,129.184 503.001,129.184 L503.626,129.934 L504.626,130.246 L506.001,131.184 C506.376,131.434 507.063,131.934 507.063,131.934 L507.438,132.309 L507.813,132.684 L509.001,134.184 L509.813,134.809 C509.813,134.809 509.938,134.497 510.125,134.809 C510.312,135.121 511.313,135.621 511.313,135.621 C511.313,135.621 510.563,135.746 511.313,135.933 C512.063,136.12 512.563,136.433 512.563,136.433 L512.563,137.121 C512.563,137.121 512.375,137.683 512.563,137.871 C512.751,138.059 512.563,138.809 512.563,138.809 L512.646,139.371 L512.646,140.121 L512.646,140.809 L512.646,141.371 L512.646,141.621 L513.125,141.621 L513.125,142.059 C513.125,142.059 513.437,142.184 513.625,142.371 C513.813,142.558 514.25,142.871 514.25,142.871 C514.25,142.871 514.438,143.121 514.625,143.246 C514.812,143.371 515.437,143.496 515.625,143.808 C515.813,144.12 516.187,144.308 516.187,144.308 L516.875,145.12 C516.875,145.12 516.625,145.495 516.875,145.682 C517.125,145.869 517.25,146.432 517.25,146.432 L517.25,146.87 L516.938,147.37 C516.5,147.558 516.876,147.495 516.5,147.558 C516.124,147.621 515.875,147.308 515.688,147.558 C515.501,147.808 515.75,147.433 515.5,147.808 L515.25,148.183 L515.438,149.371 L515.563,150.683 L515.938,151.308 L516,152.12 L516,152.808 L515.812,153.308 L515.5,154.308 L515.438,155.058 L515.438,155.62 L515.438,156.245 C515.438,156.432 515.626,156.37 515.75,156.683 C515.874,156.996 516.188,157.058 516.188,157.371 C516.188,157.684 516.25,158.121 516.25,158.121 L516.375,159.121 L516.437,160.309 L516.312,161.559 L516.374,162.059 C516.374,162.059 517.124,162.559 517.249,162.747 C517.374,162.935 517.874,164.309 517.874,164.309 L517.874,165.247 C517.874,165.247 517.624,165.435 517.874,165.685 C518.124,165.935 518.124,166.123 518.312,166.373 C518.5,166.623 518.562,166.685 518.75,166.935 C518.938,167.185 519.375,168.185 519.375,168.185 C519.375,168.185 519.75,168.435 519.875,168.685 C520,168.935 520.125,168.935 520.437,169.185 C520.749,169.435 521.687,170.06 521.687,170.06 C521.687,170.06 521.562,169.56 522.062,170.06 C522.562,170.56 524.062,171.122 524.062,171.122 C524.062,171.122 524.75,171.434 524.937,171.56 C525.124,171.686 525.375,171.685 525.562,171.872 L526.562,172.872 C526.562,172.872 527.187,172.997 527.374,173.31 C527.561,173.623 528.374,173.935 528.374,173.935 L529.249,174.56 L531.624,176.06 L531.624,176.81 L532.124,177.372 L532.124,178.06 C532.124,178.06 532.874,179.122 533.062,179.248 C533.25,179.374 533.25,179.373 533.25,179.373 C533.25,179.373 533.688,180.185 533.812,180.373 C533.936,180.561 534.187,180.935 534.187,180.935 L534.187,181.31 L535.062,182.435 L535.562,183.435 L535.937,183.935 L535.937,184.497 L536.437,184.997 L536.437,186.372 L536.937,187.06 L537.375,187.622 L537.667,188.289 C537.667,188.289 537.542,188.247 537.667,188.414 C537.792,188.581 537.834,188.247 537.792,188.581 C537.75,188.915 537.865,188.956 537.808,189.123 C537.751,189.29 537.833,188.873 537.75,189.29 L537.667,189.707 C537.667,189.707 537.773,190.249 537.824,190.457 C537.875,190.665 537.731,190.79 537.824,190.999 C537.917,191.208 538.001,191.333 538.167,191.791 C538.333,192.249 538.792,192.624 538.875,192.958 C538.958,193.292 539.292,193.583 539.292,193.583 C539.292,193.583 539.374,193.75 539.833,193.833 C540.292,193.916 541.708,193.833 541.708,193.833 L542.042,193.87 L542.458,193.499 L543,192.957 L544.188,192.186 C544.188,192.186 544.313,192.061 544.5,191.998 C544.687,191.935 545.188,191.123 545.188,191.123 L546.376,190.561 C546.376,190.561 546.688,190.499 546.876,190.499 L547.626,190.499 L548.064,191.561 L548.064,192.623 L548.064,193.311 L548.376,194.561 L548.814,195.311 C548.814,195.311 548.189,195.373 548.814,195.686 C549.439,195.999 550.814,196.248 550.814,196.248 L551.376,196.248 L551.814,196.248 L552.502,196.686 L553.502,197.561 L554.064,198.061 C554.064,198.061 553.814,197.811 554.064,198.249 C554.314,198.687 554.564,198.937 554.752,198.999 C554.94,199.061 555.127,199.437 555.127,199.437 L555.439,199.999 C555.439,199.999 555.377,200.124 555.439,200.311 C555.501,200.498 555.751,200.749 555.439,200.936 C555.127,201.123 555.127,201.124 555.127,201.124 C555.127,201.124 554.689,201.562 554.439,201.686 C554.189,201.81 553.877,202.124 553.877,202.124 C553.877,202.124 552.565,202.686 552.315,202.936 L552.065,203.186 L551.003,203.936 L551.003,204.248 L551.253,204.748 L551.628,205.186 L552.566,205.186 L553.066,205.624 C553.066,205.624 553.441,205.249 553.628,205.624 C553.815,205.999 553.816,205.999 553.816,205.999 L555.128,206.749 C555.128,206.749 555.312,207.311 555.595,207.374 C555.878,207.437 556.378,207.374 556.378,207.374 C556.378,207.374 557.066,207.812 557.253,207.874 C557.44,207.936 558.191,207.874 558.191,207.874 L558.503,208.312 L558.941,208.937 L559.691,209.625 L559.941,209.625 L560.629,210.813 L560.629,211 C560.629,211 561.004,211.312 561.254,211.438 C561.504,211.564 562.004,212 562.192,212.25 C562.38,212.5 562.754,213.125 562.754,213.125 C562.754,213.125 563.316,213.125 563.379,213.437 C563.442,213.749 563.567,214.249 563.754,214.375 C563.941,214.501 563.629,214.063 563.942,214.5 C564.255,214.937 564.692,215.25 564.692,215.25 L564.942,215.25 C564.942,215.25 565.63,215.062 565.88,215.25 C566.13,215.438 566.692,215.438 566.942,215.562 C567.192,215.686 568.004,215.937 568.004,215.937 L568.004,216.687 C568.004,216.687 568.192,216.749 568.504,217.062 C568.816,217.375 569.379,218 569.379,218 L570.004,218.562 C570.004,218.562 570.254,218.687 570.316,218.874 C570.378,219.061 570.878,219.624 570.878,219.624 L570.878,220.062 L572.19,221.187 L572.19,221.499 L573.502,222.124 L574.502,222.624 L575.752,223.249 C575.752,223.249 575.877,222.874 576.064,223.249 C576.251,223.624 577.939,224.124 577.939,224.124 C577.939,224.124 578.377,224.312 578.439,224.499 C578.501,224.686 579.501,225.687 579.501,225.687 L579.876,225.687 C579.876,225.687 580.001,226.499 579.876,226.687 C579.751,226.875 579.932,227.187 579.932,227.187 C579.932,227.187 579.626,226.875 579.501,227.187 C579.376,227.499 579.313,228.062 579.563,228.249 C579.813,228.436 579.813,228.437 579.813,228.437 C579.813,228.437 580.875,228.999 581.001,229.187 C581.127,229.375 581.626,229.687 581.689,229.875 C581.752,230.063 582.564,231.25 582.564,231.25 L582.939,231.75 L582.939,232.688 C582.939,232.688 583.251,232.75 583.251,233.063 C583.251,233.376 582.813,234.625 582.813,234.625 L582.751,234.937 L582.563,235.375 L582.125,235.75 L581.75,236.188 C581.75,236.188 581.438,235.813 581.25,236.188 C581.062,236.563 580.375,236.938 580.375,236.938 L579.875,237.25 C579.875,237.25 579.75,237.188 579.625,237.562 C579.5,237.936 579.375,237.874 579.687,238.25 C579.999,238.626 580.875,239.688 580.875,239.688 C580.875,239.688 582,240.376 582.25,240.438 C582.5,240.5 583.375,240.563 583.625,241 C583.875,241.437 584.125,241.5 584.125,241.75 C584.125,242 584.5,242.625 584.5,242.625 L584.5,243.125 L585,243.875 L585.438,243.875 C585.438,243.875 585.126,244.25 585.438,244.437 C585.75,244.624 586.438,245.125 586.438,245.125 L586.813,245.563 L587.251,246.251 C587.251,246.251 587.751,246.626 587.813,246.813 C587.875,247 588.188,247.375 588.188,247.375 C588.188,247.375 588.626,247.75 588.75,248 C588.874,248.25 589.688,248.625 589.812,248.812 C589.936,248.999 589.624,248.624 589.937,249 C590.25,249.376 590.562,249.062 590.937,249.562 C591.312,250.062 591.499,250.187 591.687,250.374 C591.875,250.561 591.562,250.686 592.249,250.749 C592.936,250.812 594.374,250.749 594.374,250.749 L595.374,250.777 L596.312,251.187 L597.812,251.187 C598,251.187 598.437,250.749 598.75,250.687 C599.063,250.625 599.625,250.312 599.625,250.312 C599.625,250.312 600.25,250.25 600.437,250.187 C600.624,250.124 601.125,249.687 601.312,249.499 C601.499,249.311 602.25,249.061 602.5,248.999 C602.75,248.937 603.25,248.687 603.25,248.687 L603.875,248.125 C603.875,248.125 604.125,247.75 604.437,247.625 C604.749,247.5 605.187,247.187 605.187,247.187 C605.187,247.187 605.749,246.625 605.999,246.499 C606.249,246.373 606.187,246.124 606.437,245.999 C606.687,245.874 606.812,245.374 607.187,245.374 C607.562,245.374 607.937,245.186 607.999,245.374 C608.061,245.562 608.374,245.874 608.374,245.874 L609.499,246.624 C609.499,246.624 609.561,246.499 609.811,246.686 C610.061,246.873 610.373,247.061 610.686,247.124 C610.999,247.187 610.498,247.249 610.998,247.186 C611.498,247.123 612.06,246.936 612.248,246.998 C612.436,247.06 613.373,247.498 613.373,247.498 L613.811,247.686 C614.249,247.686 615.436,247.436 615.436,247.436 L616.061,247.186 L616.623,246.248 L616.935,246.06 L618.873,244.872 L619.498,244.56 C619.498,244.56 619.623,244.498 619.81,244.185 C619.997,243.872 620.185,243.685 620.685,243.56 C621.185,243.435 622.31,242.748 622.497,242.748 C622.684,242.748 623.309,242.623 623.309,242.623 L625.747,242.935 L630.247,240.873 L631.247,240.561 L631.809,240.999 L632.309,240.999 L634.371,240.999 C634.371,240.999 634.996,240.999 635.246,240.937 C635.496,240.875 637.496,240.687 637.934,240.687 C638.372,240.687 638.934,240.749 639.122,240.749 C639.31,240.749 639.747,240.749 639.997,240.687 C640.247,240.625 640.685,240.499 640.685,240.499 L642.06,240.437 L642.685,240.437 L643.373,239.937 L644.185,239.749 L644.81,239.624 L646.435,239.312 L647.247,238.874 L649.685,238.874 L650.497,238.312 C650.497,238.312 651.122,237.812 651.309,237.562 C651.496,237.312 652.621,236.624 652.809,236.374 C652.997,236.124 653.371,235.936 653.559,235.686 C653.747,235.436 655.684,234.624 655.684,234.624 L656.684,233.312 C656.684,233.312 657.059,233 657.309,232.937 C657.559,232.874 658.371,232.875 658.371,232.875 L658.996,233.125 L660.184,233.437 L661.872,233.999 L662.434,234.561 L662.872,235.123 L662.872,235.748 L662.872,236.31 L662.872,236.935 L662.247,237.185 L661.747,237.685 L661.435,238.31 L661.247,238.81 L661.185,239.622 L661.185,240.247 L661.623,241.185 L662.123,241.623 L662.498,242.248 L662.436,243.186 C662.436,243.186 662.624,243.436 662.248,243.561 C661.872,243.686 661.186,244.123 661.186,244.123 L661.311,245.248 L661.623,245.373 C662.123,245.873 662.435,246.123 662.435,246.123 L662.873,247.498 L662.873,248.186 L662.498,248.748 L662.186,248.748 C661.999,248.748 661.248,248.873 661.124,249.123 C661,249.373 660.999,249.373 660.999,249.373 C660.999,249.373 660.249,249.748 659.999,249.998 C659.749,250.248 659.561,250.31 659.561,250.56 L659.561,251.185 L659.373,253.747 C659.373,253.747 659.061,254.622 659.061,255.059 C659.061,255.496 659.123,256.809 659.186,257.059 C659.249,257.309 659.248,258.059 659.248,258.059 C659.248,258.059 659.498,258.621 659.498,258.809 L659.498,260.121 L659.498,260.496 C659.498,260.496 658.998,260.871 658.81,261.121 C658.622,261.371 657.935,261.683 657.872,261.871 C657.809,262.059 657.622,262.309 657.622,262.496 C657.622,262.683 657.56,262.808 657.434,263.184 C657.308,263.56 656.934,263.996 656.934,264.184 C656.934,264.372 657.309,264.309 656.746,264.746 C656.183,265.183 655.621,265.308 655.558,265.496 C655.495,265.684 655.558,266.496 655.558,266.496 L655.12,267.934 L655.182,268.496 L654.744,269.434 C654.744,269.434 654.682,269.872 654.682,270.122 C654.682,270.372 655.244,270.372 654.62,270.81 C653.996,271.248 654.245,270.935 653.995,271.248 C653.745,271.561 653.62,271.81 653.307,271.936 C652.994,272.062 652.807,271.498 652.682,271.936 C652.557,272.374 652.182,272.624 652.182,272.624 L651.682,273.186 L651.057,273.748 C651.057,273.748 650.932,274.06 650.745,274.186 C650.558,274.312 650.37,274.811 650.37,274.811 L649.432,275.499 C649.432,275.499 649.057,275.937 648.932,276.124 C648.807,276.311 648.62,276.436 648.557,276.624 C648.494,276.812 648.495,277.436 648.495,277.436 L648.495,278.061 C648.495,278.061 648.683,278.686 648.683,278.936 C648.683,279.186 648.683,279.748 648.621,279.998 C648.559,280.248 648.433,280.623 648.433,280.623 L648.245,281.123 C648.245,281.123 647.495,281.811 647.245,282.123 C646.995,282.435 647.245,282.123 646.995,282.435 C646.745,282.747 646.557,283.185 646.433,283.373 C646.309,283.561 646.058,284.185 645.808,284.435 C645.558,284.685 645.496,284.31 645.12,285.31 C644.744,286.31 644.745,285.935 644.432,286.622 C644.119,287.309 644.12,287.434 643.994,287.622 C643.868,287.81 643.869,287.997 643.744,288.31 C643.619,288.623 644.056,288.248 643.369,289.122 C642.682,289.996 642.431,289.872 642.369,290.434 C642.307,290.996 642.307,291.434 642.307,291.809 C642.307,292.184 642.432,292.497 642.495,292.809 C642.558,293.121 642.557,293.809 642.557,293.809 L642.182,294.747 L641.744,295.685 C641.744,295.685 641.619,295.873 641.494,296.123 C641.369,296.373 641.119,296.498 641.056,296.811 C640.993,297.124 640.806,297.561 640.556,297.999 C640.306,298.437 640.244,298.624 640.118,298.811 C639.992,298.998 640,299 640,299 C640,299 639.312,299.875 639.125,300.125 C638.938,300.375 638.75,300.937 638.625,301.25 C638.5,301.563 638.625,301.562 638.125,302.062 C637.625,302.562 636.75,303.812 636.75,303.812 C636.75,303.812 636.375,304 636.312,304.187 C636.249,304.374 635.937,305.125 635.937,305.125 C635.937,305.125 635.749,305.563 635.375,305.937 C635.001,306.311 634.937,306.625 634.75,306.999 C634.563,307.373 634.312,307.749 634.188,307.937 C634.064,308.125 633.813,308.749 633.688,309.062 C633.563,309.375 633.376,309.812 633.188,310.124 C633,310.436 632.063,311.562 631.876,311.936 C631.689,312.31 631.438,312.624 631.251,312.748 C631.064,312.872 630.689,313.123 630.126,313.373 C629.563,313.623 629.188,313.811 628.751,314.185 C628.314,314.559 628.251,315.123 628.251,315.123 C628.251,315.123 627.939,315.435 627.813,315.748 C627.687,316.061 627.251,316.81 627.251,316.81 L627.189,317.248 L626.877,318.06 C626.877,318.06 625.877,318.685 625.815,318.998 C625.753,319.311 624.503,319.873 624.503,319.873 L624.253,320.748 L623.691,321.686 L623.503,322.374 C623.503,322.374 623.003,322.749 622.878,322.936 C622.753,323.123 622.44,323.498 622.44,323.498 C622.44,323.498 622.252,323.81 622.002,323.936 C621.752,324.062 621.314,324.436 621.064,324.624 C620.814,324.812 620.626,324.999 620.439,325.186 C620.252,325.373 620.314,325.686 619.877,325.936 C619.44,326.186 619.252,326.811 619.065,327.061 C618.878,327.311 618.69,327.561 618.315,327.873 C617.94,328.185 617.44,328.561 617.44,328.561 C617.44,328.561 617.128,328.811 616.878,328.999 C616.628,329.187 615.878,329.687 615.878,329.687 L615.438,330 L614.813,330.438 L614.438,330.813 C614.438,330.813 614.126,331.188 613.938,331.375 C613.75,331.562 613.063,332.313 613.063,332.313 L612.625,333 L610.667,334 C610.667,334 608.833,335.667 608.333,335.833 C607.833,335.999 607.333,336.666 607.333,336.666 C607.333,336.666 605.167,337.666 604.667,338.166 C604.167,338.666 603.333,339.166 603.333,339.166 L601.667,340.166 C601.667,340.166 600.667,341.166 600,341.999 C599.333,342.832 597.833,343.499 597.833,343.499 L596.833,344.499 L595.5,344.499 C595.5,344.499 593.501,346.166 593.167,346.666 C592.833,347.166 592,348 592,348 C592,348 591.667,348.667 591,349.167 C590.333,349.667 589.833,350 589,351 C588.167,352 587.333,353.5 587.333,353.5 L586.5,354.333 C586.5,354.333 586.001,354.5 585.167,355.666 C584.333,356.832 582.833,357.666 582.833,357.666 C582.167,358.499 581.167,359.166 581.167,359.166 C580.333,360 581.499,359 580.333,360 C579.167,361 580.167,360.333 579.167,361 C578.167,361.667 579.334,360.334 578.167,361.667 C577,363 577,363.5 576.5,364 C576,364.5 575.833,366.166 575.5,366 C575.167,365.833 574.666,366.334 574.333,366.834 C574,367.334 575.833,364.501 574,367.334 L572.167,370.167 L571.667,371.667 C571.667,371.667 571.167,372 571,372.667 C570.833,373.334 570.499,374.834 570.333,375.334 C570.167,375.834 570.834,374.668 570.167,375.834 C569.5,377 570.333,376 569.5,377 C568.667,378 568.156,378.469 568.156,378.469 L567.718,379.5 L567.374,379.875 L567.186,380.219 C567.186,380.219 566.248,381.125 566.155,381.125 L565.717,381.125 L565.123,380.781 L564.561,380.406 C564.561,380.406 564.28,380.187 564.249,380.062 C564.218,379.937 564.03,379.531 564.03,379.531 C564.03,379.531 563.968,379.281 563.811,379.219 C563.654,379.157 563.123,378.875 563.03,378.875 C562.937,378.875 562.468,379.063 562.342,379.094 C562.216,379.125 561.748,379.563 561.748,379.563 C561.748,379.563 561.967,379.844 562.029,380.032 C562.091,380.22 562.248,380.313 562.31,380.438 C562.372,380.563 562.81,380.938 562.81,380.938 C562.81,380.938 563.091,381.032 563.122,381.126 C563.153,381.22 563.684,381.845 563.684,381.845 L563.934,382.189 L563.684,383.22 L563.34,383.72 C563.34,383.72 562.84,384.095 562.715,384.189 C562.59,384.283 562.246,384.439 562.246,384.439 L561.777,384.689 C561.777,384.689 561.527,384.877 561.465,384.97 C561.403,385.063 561.277,385.376 561.153,385.47 C561.029,385.564 560.934,385.626 560.622,385.689 C560.31,385.752 559.716,385.814 559.434,385.845 C559.152,385.876 558.403,385.97 558.278,386.001 C558.153,386.032 558.122,385.907 558.028,386.001 C557.934,386.095 556.966,386.939 556.872,387.032 C556.778,387.125 556.434,387.438 556.372,387.594 C556.31,387.75 556.372,387.938 556.184,387.969 C555.996,388 555.403,387.844 555.246,387.969 C555.089,388.094 555.09,388.125 555.027,388.25 C554.964,388.375 554.965,389 555.058,389.094 C555.151,389.188 555.527,389.313 555.62,389.344 C555.713,389.375 556.182,389.594 556.182,389.594 C556.182,389.594 556.182,390.375 556.12,390.469 C556.058,390.563 555.87,390.781 555.495,390.969 C555.12,391.157 554.995,391.094 554.933,391.375 C554.871,391.656 554.933,392.125 554.995,392.344 C555.057,392.563 555.37,393.5 555.339,393.625 C555.308,393.75 554.964,394.563 554.714,394.625 C554.464,394.687 553.495,394.625 553.495,394.625 C553.495,394.625 553.246,394.917 552.912,395 C552.578,395.083 552.828,394.666 552.578,395.083 C552.328,395.5 552.328,396.333 552.328,396.333 L552.578,396.917 L552.745,398.083 L552.662,398.75 L552.412,399.417 C552.412,399.417 553.161,399.667 552.078,399.917 C550.995,400.167 551.328,399.584 550.995,400.167 C550.662,400.75 550.662,400.916 550.662,401.333 C550.662,401.75 550.662,401.834 550.745,402.167 C550.828,402.5 550.912,402.75 550.912,403 C550.912,403.25 550.828,403.751 550.495,403.917 C550.162,404.083 549.912,404.583 549.662,404.833 C549.412,405.083 549.912,404.749 549.412,405.083 C548.912,405.417 548.828,406 548.745,406.25 C548.662,406.5 548.245,407.083 548.245,407.083 L547.245,407.917 L546.578,408.333 C546.578,408.333 546.578,409 546.495,409.25 C546.412,409.5 546.078,410.167 546.078,410.167 C546.078,410.167 545.995,411.083 545.745,411.5 C545.495,411.917 545.412,412.75 545.412,412.75 L545.412,413.167 C545.412,413.417 545.495,414.083 545.495,414.333 L545.495,415.25 C545.495,415.25 545.578,415.749 545.328,416.083 C545.078,416.417 544.495,416.917 544.495,416.917 C544.495,416.917 544.328,416.251 544.078,416.917 C543.828,417.583 544.328,416.916 543.828,417.583 C543.328,418.25 543.162,418.583 542.912,419.083 C542.662,419.583 542.583,421 542.583,421 L542.667,421.833 C542.667,421.833 542.999,422.584 543.083,422.917 C543.167,423.25 543.583,423.584 543.833,423.917 C544.083,424.25 545.083,425.083 545.083,425.083 C545.083,425.083 545.667,425.667 545.667,425.917 C545.667,426.167 547.249,427.583 547.333,427.833 C547.417,428.083 547.917,428.25 547.917,428.25 C547.917,428.25 548.501,428.5 548.667,428.75 C548.833,429 549.75,429.999 550,430.083 C550.25,430.167 551.75,430.5 551.75,430.75 C551.75,431 551.584,431.417 551.417,431.667 C551.25,431.917 551.083,432.333 551.083,432.333 L550.417,433.083 L549.083,434.75 C549.083,434.75 548.75,434.667 548.75,435.5 L548.75,436.333 C548.75,436.333 549.583,437.583 549.5,437.833 C549.417,438.083 549.083,438.833 549.083,438.833 C549.083,438.833 548.916,438.999 549.083,439.333 C549.25,439.667 551.583,439.333 551.583,439.333 C551.583,439.333 551.833,440.046 552,439.481 C552.167,438.916 552.75,437.25 552.75,437.25 L553.25,436.667 C553.25,436.667 553.333,435.917 553.833,435.917 C554.333,435.917 554.5,436.083 554.5,436.333 C554.5,436.583 554.333,437.167 554.333,437.667 C554.333,438.167 555,438.5 555,438.5 C555,438.5 555.333,438.833 555.333,439.083 C555.333,439.333 555.167,440.167 555.167,440.167 L554.417,440.167 C554.417,440.167 553.917,441 553.75,441.25 L553.583,441.5 C553.583,441.5 552.417,442.083 551.917,442.25 C551.417,442.417 551.083,442.25 551.083,442.25 L549.583,443.333 L549.417,443.917 L549.417,445.167 C549.417,445.167 549.584,445.583 549.667,445.833 C549.75,446.083 550.25,447.083 550.25,447.083 L550.5,448.167 L550.917,450 L551.583,451.333 C551.583,451.333 551.916,452.001 551.833,452.417 C551.75,452.833 551.667,453.584 551.667,453.917 C551.667,454.25 553.917,456.25 553.917,456.25 C553.917,456.25 554.25,456.417 554.25,456.667 C554.25,456.917 554.417,456.334 554.25,456.917 C554.083,457.5 553.917,458.417 553.917,458.417 C553.917,458.417 553.833,458.417 554,459 C554.167,459.583 554.833,460.583 555.083,461.083 C555.333,461.583 555.917,461.917 555.917,461.917 C555.917,461.917 556.917,461.501 557,461.917 C557.083,462.333 558.333,463.001 558.75,463.167 C559.167,463.333 559.833,463.167 559.833,463.167 C559.833,463.167 560.334,464.083 560.417,464.333 C560.5,464.583 560.916,464.666 561.083,465.083 C561.25,465.5 561.167,466 561.25,466.25 C561.333,466.5 561.667,467.334 561.75,467.917 C561.833,468.5 562.251,468.417 562.667,469.25 C563.083,470.083 563.5,470.75 563.5,471 C563.5,471.25 562.916,471.667 562.833,471.917 C562.75,472.167 562.75,472.833 562.75,472.833 C562.75,472.833 562.333,472.499 562.083,472.833 C561.833,473.167 561.333,473.417 561.333,473.667 L561.333,474.667 C561.333,474.667 561.666,475.084 561.333,475.417 C561,475.75 560.5,474.834 560.25,475.417 C560,476 559.334,475.501 559.417,476.417 C559.5,477.333 560,477.417 560.25,477.417 C560.5,477.417 561,477.083 561,477.083 C561,477.083 562.083,476.917 562.083,477.417 C562.083,477.917 562,478.917 562,478.917 L562,479.417 C562,479.667 562.417,480.333 562.417,480.333 C562.417,480.333 562.583,480.75 562.5,481.25 C562.417,481.75 561.75,483.333 561.75,483.583 C561.75,483.833 561.834,484.083 561.917,484.5 C562,484.917 562.5,488 562.5,488 L563.5,488.917 C563.5,488.917 564.167,489.75 564.167,490 C564.167,490.25 563.666,491.083 563.583,491.583 C563.5,492.083 563.333,492.667 563.333,492.667 C563.333,492.667 563.417,493.749 563.5,494.083 C563.583,494.417 563.75,495.083 563.75,495.083 C563.75,495.083 563.167,495.916 563.167,496.583 L563.167,497.667 L563.833,498.667 C563.833,498.667 564.167,499.249 564.417,499.833 C564.667,500.417 565.666,500.751 565.833,501.167 C566,501.583 566.083,503.25 566.083,503.25 L566.417,504.667 L566.75,505.583 L566.75,506.583 L566.5,507.833 L566.5,508.333 L566.25,509.167 L566.083,510.833 C566.083,510.833 566,511.583 566,512 C566,512.417 565.667,514 565.667,514 L565.5,514.75 C565.5,514.75 565.333,515 565.083,515.25 C564.833,515.5 564.501,516 564.417,516.25 C564.333,516.5 564,516.917 564,516.917 L562.083,519.167 L561.917,519.75 C561.917,519.75 560.25,521.917 560,522.25 C559.75,522.583 559.917,523.25 559.667,523.5 C559.417,523.75 560.751,522.75 559.417,523.75 C558.083,524.75 556,526.417 556,526.417 C556,526.417 555.834,527.75 555.417,528 C555,528.25 553.583,530.083 553.583,530.083 L552.417,530.583 C552.417,530.583 551.666,530.333 551.333,530.583 C551,530.833 550.333,531.333 549.75,531.333 C549.167,531.333 549.249,531.749 548.833,531.833 C548.417,531.917 545.166,532.834 544.833,532.917 C544.5,533 544.333,532.667 544.083,532.917 C543.833,533.167 543.083,533.499 542.75,533.833 C542.417,534.167 542.416,534.583 541.833,534.833 C541.25,535.083 540.999,535.333 540.333,535.5 C539.667,535.667 539.001,536.333 538.667,536.5 C538.333,536.667 537.25,537.333 537.25,537.333 C537.25,537.333 534.749,538.416 534.333,538.833 C533.917,539.25 533.333,540.083 533.333,540.083 C533.333,540.083 532.917,540.916 532.5,541.333 C532.083,541.75 531.25,543 531.25,543 L531.083,543.5 C531.083,543.5 530.833,544.917 530.25,545.5 C529.667,546.083 528.833,547.75 528.833,547.75 C528.833,547.75 527.834,548.917 527.417,549.167 C527,549.417 526,550 526,550 C526,550 525.749,550.25 525.333,550.5 C524.917,550.75 524.583,551.167 524,551.417 C523.417,551.667 522.583,552.5 522.583,552.5 L520.667,554.167 L519.667,555.834 L518.833,556.667 L517.5,557.334 L515.333,559.667 L514.333,560.501 C514.333,560.501 513.333,560.167 513.333,561.334 C513.333,562.501 513.499,561.168 513.333,562.501 C513.167,563.834 512.333,564.834 512.333,565.334 C512.333,565.834 511.833,566.335 512.333,567.001 C512.833,567.667 514.167,567.001 514.167,567.001 L515.667,568.001 C515.667,568.001 516.5,567.001 516.5,568.001 C516.5,569.001 516.333,568.667 517,569.834 C517.667,571.001 518.333,571.834 518.333,571.834 L518.083,572.917 L517.833,573.751 C517.833,573.751 517.75,573.917 517.75,574.417 C517.75,574.917 517.999,575.167 518.333,575.334 C518.667,575.501 520,576.001 520,576.001 L521.333,576.417 L521.583,576.834 L521.5,577.667 L521.5,578.251 C521.5,578.251 521.501,577.835 521.167,578.251 C520.833,578.667 521.333,578 520.833,578.667 C520.333,579.334 520.25,579.751 520.25,579.751 C520.25,579.751 519.499,580.333 520.333,580.417 C521.167,580.501 520.584,580.501 521.167,580.501 L522.75,580.501 C522.75,580.501 522.917,580.833 522.917,581.167 L522.917,582.251 L523,583.251 C523,583.251 522.667,583.668 522.667,584.251 C522.667,584.834 522.667,585.333 522.5,585.667 C522.333,586.001 522.417,586.417 522.25,586.667 C522.083,586.917 522.001,586.835 521.917,587.501 C521.833,588.167 521.751,588.751 522.167,589.001 C522.583,589.251 524.417,589.584 524.417,589.584 C524.417,589.584 524.583,590.001 524.333,590.334 C524.083,590.667 524.001,590.834 523.917,591.084 C523.833,591.334 523,591.084 523,591.084 L522.5,591.917 L521.917,593.167 L521.917,593.667 L522.083,594.584 C522.083,594.584 521.999,595.001 522.083,595.584 C522.167,596.167 522.667,597.334 522.667,597.334 L524,598.417 L524,599.001 C524,599.001 524.001,599.085 523.917,599.501 C523.833,599.917 523.667,601.251 523.667,601.251 C523.667,601.251 523.666,601.418 523.583,601.751 C523.5,602.084 523.417,602.333 523.167,602.917 C522.917,603.501 522.75,603.917 522.75,603.917 L521.833,604.667 L521.25,605.167 L520.25,606.084 L520.083,606.501 L519.333,607.417 L518.333,608.334 L516.667,609.417 C516.667,609.417 517.167,609.501 516.25,609.751 C515.333,610.001 514.083,610.251 514.083,610.251 C514.083,610.251 513.583,610.583 513.25,610.667 C512.917,610.751 512.001,611.167 511.667,611.334 C511.333,611.501 509.5,612.584 509.5,612.584 C509.5,612.584 509,612.334 508.5,612.584 C508,612.834 507.334,613.085 506.917,613.251 C506.5,613.417 503.729,614.251 503.729,614.251 L503,614.834 C503,614.834 503,615.001 502.75,615.251 C502.5,615.501 502.333,615.751 502.083,616.001 C501.833,616.251 500.583,616.667 500.333,616.917 C500.083,617.167 500.001,617.501 499.667,618.001 C499.333,618.501 499.333,618.667 499.083,619.084 C498.833,619.501 498.583,619.751 498.583,620.251 C498.583,620.751 498.333,621.584 498.333,621.584 C498.333,621.584 498.333,622.251 498.083,622.251 C497.833,622.251 497.333,622.5 497.25,622.917 C497.167,623.334 497.333,624.084 497.333,624.334 C497.333,624.584 497.667,624.334 497.667,624.334 L498.25,623.251 C498.25,623.251 498.666,622.917 499.333,622.917 L501,622.917 L501.583,623.167 C501.583,623.167 501.5,624.474 501.5,624.445 C501.5,624.416 501.416,624.667 501.333,624.917 C501.25,625.167 500.917,625.335 500.917,625.751 C500.917,626.167 500.834,627.335 500.917,627.751 L501,628.167 L501,629.584 C501,629.834 500.833,630.334 500.833,630.334 L501,631.25 L500.25,634.125 L499.75,635.375 L498.75,637 C498.75,637 498.5,637.25 498.5,637.75 C498.5,638.25 498.625,638.875 498.5,639.25 C498.375,639.625 498.625,639.75 498.375,640.5 C498.125,641.25 498.125,642.375 498.125,642.75 L498.125,644.625 L497.875,645.75 L496.5,647.25 L495.625,648.625 C495.625,648.625 495.5,648 495,648.625 C494.5,649.25 493.75,649 492.875,649.75 C492,650.5 490.625,651.75 490.625,651.75 C490.625,651.75 490.25,652.125 490,652.5 C489.75,652.875 489.25,653 488.75,653.875 C488.25,654.75 487.625,655.875 487.625,655.875 L486.375,657 C486.375,657 485.75,657.5 485.375,658 C485,658.5 484.125,659.75 484,660.375 C483.875,661 484,661.875 484,662.25 L484,663.25 C484,663.625 484,664.25 483.75,664.625 C483.5,665 483.25,665.5 482.875,666 C482.5,666.5 482.375,666.625 482.25,667.125 L482.125,667.625 L481.5,668.625 L480.75,671.25 C480.75,671.25 480.5,672 479.875,672.375 C479.25,672.75 477.75,673.75 477.75,673.75 L476.875,675.375 L475.25,677 L475,678 L474.5,678.875 C473.75,679.875 472.875,680.25 472.875,680.25 L472.25,681 C472.25,681 472.5,681.125 472,681.625 C471.5,682.125 471,682.75 471,682.75 L470.625,683.5 C470.625,683.5 470.5,683.75 470.25,684.125 C470,684.5 471.375,683.125 470,684.5 C468.625,685.875 467.25,687.25 467.125,687.625 C467,688 466.125,688.25 466,688.625 C465.875,689 464.75,690.125 464.75,690.125 L463.125,690.75 L461.625,691.875 L461.5,692.625 C461.5,692.625 461.75,693.5 461.375,693.75 C461,694 460.5,694.625 460.5,694.625 C460.5,694.625 459.875,693.75 459.375,694.625 C458.875,695.5 459.625,694.5 458.875,695.5 C458.125,696.5 459.125,695.875 458.125,696.5 C457.125,697.125 456.375,697.5 456.375,697.5 L455.375,697.5 L454.625,698.375 C454.625,698.375 454.375,698.875 453.5,699.375 C452.625,699.875 452.125,700 451.75,700.5 C451.375,701 450.875,701.562 450.875,701.562 L450.313,702.062 L449.938,702.437 C449.938,702.437 449.75,702.249 449.376,702.437 C449.002,702.625 449.001,702.749 448.626,702.749 L447.876,702.749 L447.126,702.749 C447.126,702.749 446.688,702.811 446.501,702.749 C446.314,702.687 446.063,702.991 445.689,702.776 C445.315,702.561 444.751,702.499 444.564,702.499 C444.377,702.499 444.814,702.061 444.376,702.499 C443.938,702.937 443.938,703.124 443.751,703.374 C443.564,703.624 443.626,703.624 443.563,704.062 C443.5,704.5 443.688,704.312 443.501,704.812 C443.314,705.312 443.563,705.187 443.251,705.687 C442.939,706.187 443.126,706.125 442.189,706.187 C441.252,706.249 441.189,706.312 440.751,706.187 C440.313,706.062 440.063,705.999 439.813,705.687 C439.563,705.375 439.875,705.125 439.188,704.999 C438.501,704.873 438.188,704.811 437.938,704.874 C437.688,704.937 438.188,704.374 437.688,704.936 C437.188,705.498 437.063,705.686 437.063,705.874 C437.063,706.062 437.251,706.062 436.875,706.686 C436.499,707.31 437,707.311 436.187,707.498 C435.374,707.685 434.812,707.248 434.437,707.498 C434.062,707.748 433.749,707.531 433.312,707.546 C432.875,707.561 432.75,707.811 431.687,707.186 C430.624,706.561 429.812,706.561 429.812,706.561 L429,706.561 C428.813,706.561 427.812,706.686 427.562,706.686 C427.312,706.686 426,706.436 426,706.436 L425,707.186 L424.5,708 C424.5,708 424.438,707.875 424.125,708.312 C423.812,708.749 423.625,708.812 423.313,708.812 C423.001,708.812 423.063,708.187 422.751,708.812 L422.439,709.437 C422.439,709.437 421.877,709.812 421.814,709.437 C421.751,709.062 421.876,708.812 421.752,708.625 C421.628,708.438 421.127,707.625 420.94,707.563 C420.753,707.501 420.252,707.501 420.252,707.501 L419.752,707.501 C419.752,707.501 419.44,707.439 419.064,707.439 C418.688,707.439 419.126,707.314 418.689,707.439 C418.252,707.564 418.377,707.251 418.251,707.564 C418.125,707.877 418.063,708.189 417.626,708.376 C417.189,708.563 417.126,708.564 416.814,708.626 C416.502,708.688 416.376,708.814 416.002,708.876 C415.628,708.938 415.064,708.751 414.69,709.064 C414.316,709.377 414.315,709.376 414.315,709.376 L413.919,710.168 L413.419,711.002 L413.003,712.002 C412.503,712.335 412.003,712.585 412.003,712.585 L410.003,712.585 C410.003,712.585 409.587,712.418 409.253,712.585 C408.919,712.752 408.586,712.002 408.336,712.585 C408.086,713.168 408.253,713.502 408.003,713.585 C407.753,713.668 407.253,713.418 407.003,713.585 C406.753,713.752 406.253,713.168 406.253,713.168 C406.253,713.168 405.586,712.752 405.336,712.752 L405.086,712.752 L404.336,713.085 L403.836,713.252 L403.419,713.615 C403.419,713.615 403.503,712.728 403.003,713.615 C402.503,714.502 402.086,715.085 401.586,715.085 L401.086,715.085 L400.669,715.085 L400.503,716.002 L400.169,716.002 L399.336,717.002 C399.253,717.418 398.503,718.418 398.503,718.418 L398.086,718.418 L396.503,718.418 L395.753,718.418 C395.336,718.418 395.252,718.501 394.919,718.418 C394.586,718.335 394.086,718.001 393.836,717.918 C393.586,717.835 393.503,717.418 393.503,717.418 C393.503,717.418 392.669,716.751 392.336,716.418 C392.003,716.085 392.503,716.502 392.003,716.085 C391.503,715.668 392.003,715.834 391.086,715.668 C390.169,715.502 388.836,715.585 388.836,715.585 L388.753,714.585 C388.753,714.585 389.003,713.752 388.753,713.752 C388.503,713.752 387.419,714.335 387.419,714.335 C387.419,714.335 387.169,715.335 386.919,715.335 C386.669,715.335 386.919,715.918 386.669,715.335 C386.419,714.752 386.337,714.501 386.253,714.168 C386.169,713.835 385.753,712.918 385.753,712.918 L385.336,713.002 L385.169,713.918 L384.836,715.168 L385.003,715.502 C385.003,715.502 384.919,716.086 384.669,716.002 C384.419,715.918 384.919,716.251 384.419,715.918 C383.919,715.585 383.336,714.668 383.336,714.668 L383.003,713.752 L382.669,713.085 L382.253,712.502 L382.253,712.085 L382.586,711.585 L383.003,711.002 L383.253,710.335 C383.419,709.752 383.419,708.418 383.419,708.418 L383.003,708.085 L382.669,707.835 L382.086,707.085 L381.503,705.918 L380.753,705.252 L379.586,704.252 L379.086,703.835 L378.086,702.585 L377.669,702.168 L377.503,701.335 L376.919,699.502 L376.753,698.168 C377.419,697.835 378.503,697.918 378.503,697.918 L379.003,698.752 C379.003,698.752 380.003,699.834 380.253,699.918 C380.503,700.002 381.003,698.668 381.003,698.668 L381.003,697.418 C381.003,697.418 380.753,696.336 380.753,696.002 L380.753,693.418 L379.419,691.668 L378.753,690.252 L377.836,689.252 L376.919,688.418 L376.169,688.002 L375.419,687.252 L374.419,686.252 C374.419,686.252 374.169,685.918 373.919,685.918 C373.669,685.918 372.836,685.252 372.836,685.252 L372.003,684.502 L371.169,683.668 L370.565,682.626 L369.94,681.564 L368.752,680.502 L368.502,679.814 C368.502,679.814 367.564,678.689 367.502,678.502 C367.44,678.315 367.252,678.064 367.19,677.814 C367.128,677.564 366.94,676.564 366.94,676.564 L366.752,675.814 L365.564,673.939 L365.126,672.877 L364.501,671.689 L364.001,670.314 L363.626,669.626 L362.814,668.501 L362,667.625 L360.688,666.563 L360.063,665.501 L359.375,664.501 L358.875,663.251 L358.625,662.876 C358.625,662.876 357.5,661.814 357.25,661.688 C357,661.562 356.688,661.126 356.5,661 C356.312,660.874 355.875,660.438 355.688,660.188 C355.501,659.938 355,659.25 355,659.25 L354.438,658.562 L354,658 L353,657.312 L352.25,656.5 L350.312,654.875 L350,654.438 L349,653.313 L348.562,652.188 L348.187,651.188 L348,650.125 L347.188,648.437 L346.438,646.749 L346,645.749 L345.812,645.061 L345.437,644.249 L345.125,643.124 L344.583,642.436 L344,641.812 C344,641.812 343.812,641.5 343.562,641.312 C343.312,641.124 343,640.812 343,640.812 L342.625,640.25 L342.25,639.375 C342.25,639.375 342.375,638.625 342.25,638.437 C342.125,638.249 341.938,637.562 341.938,637.562 L341.938,636.687 L341.438,635.875 C341.438,635.875 341.5,635.375 341.438,635.187 C341.376,634.999 341.438,633.875 341.438,633.875 L341.41,633.313 L340.688,632.313 L340.688,631.251 L340.532,630.72 C340.532,630.72 340.626,630.564 340.532,630.47 C340.438,630.376 340.344,629.908 340.251,629.876 C340.158,629.844 340.126,629.501 340.063,629.407 C340,629.313 339.907,629.063 339.813,628.969 C339.719,628.875 339.375,628.375 339.344,628.281 C339.313,628.187 339.344,627.843 339.344,627.843 L339.188,627.562 L338.938,627.031 L338.719,626.687 L338.469,626.187 L338.157,625.781 L337.969,625.469 L337.594,624.875 C337.594,624.875 337.313,624.563 337.313,624.469 C337.313,624.375 337.094,623.688 337.094,623.688 L336.813,623.469 L336.125,623.281 C336.125,623.281 335.969,622.937 335.937,622.812 C335.905,622.687 335.937,622.093 335.937,622.093 L335.923,621.281 C335.923,621.281 335.718,621.125 335.718,621 L335.718,620.281 C335.718,620.281 335.593,619.969 335.437,619.781 C335.281,619.593 335.281,619.469 335.187,619.219 C335.093,618.969 334.968,618.719 334.968,618.5 L334.968,617.812 C334.968,617.812 335.062,617.562 334.968,617.437 C334.874,617.312 334.968,616.625 334.968,616.625 L334.687,616.156 C334.687,616.156 334.281,615.656 334.218,615.5 C334.155,615.344 334.03,615.031 334.03,615.031 L334.03,614.156 C334.03,614.062 333.999,613.937 334.03,613.781 C334.061,613.625 334.405,612.843 334.436,612.75 C334.467,612.657 334.53,612.406 334.53,612.406 L334.811,612.25 L335.03,612.188 L336.124,612.063 L336.436,611.938 C336.436,611.938 336.967,611.594 337.061,611.532 C337.155,611.47 337.217,610.907 337.217,610.813 C337.217,610.719 336.967,609.844 336.967,609.844 L336.748,609.75 L336.248,609.25 L335.904,609.219 C335.904,609.219 335.56,609.157 335.466,609.094 C335.372,609.031 334.935,608.313 334.935,608.313 L334.904,608.125 L334.56,607.5 C334.56,607.5 334.279,607.125 334.279,607.031 C334.279,606.937 334.015,606.562 334.015,606.562 L334.015,606.156 L333.404,605.344 C333.404,605.344 333.216,605.032 333.092,604.813 C332.968,604.594 332.717,604.125 332.717,604.125 L332.405,603.813 L331.749,603.407 L331.343,603.095 L331.093,602.845 L330.249,602.157 L330.249,601.969 L330.03,601.657 C330.03,601.657 329.499,601.095 329.311,601.001 C329.123,600.907 328.686,600.439 328.686,600.439 C328.686,600.439 328.498,600.127 328.405,600.064 C328.312,600.001 327.967,599.376 327.967,599.376 L327.467,598.751 L327.186,598.189 L326.717,597.627 L326.217,597.158 C326.217,597.158 325.998,596.752 325.967,596.658 C325.936,596.564 325.498,595.814 325.498,595.814 L325.154,595.564 L324.498,595.095 L323.967,594.657 C323.967,594.657 324.092,594.595 323.967,594.501 C323.842,594.407 323.248,593.751 323.248,593.751 L323.06,593.626 L322.529,592.657 L322.529,592.376 L322.217,591.938 L321.905,591.407 L321.905,591.251 L321.749,590.939 L321.468,590.408 L321.062,589.689 L320.656,589.127 L320.218,588.189 L319.249,587.168 L318.332,586.085 L318.332,585.585 L317.749,584.918 L317.249,584.168 L316.749,583.418 L316.332,582.585 L316.332,582.168 C316.332,582.168 315.832,581.586 315.499,581.252 C315.166,580.918 314.582,580.085 314.582,580.085 L313.915,579.585 C313.915,579.585 312.749,578.085 312.582,577.835 C312.415,577.585 311.665,576.502 311.665,576.502 C311.665,576.502 311.248,575.835 311.248,575.585 C311.248,575.335 310.665,574.252 310.665,574.252 C310.665,574.252 310.332,573.669 309.998,573.502 C309.664,573.335 308.998,572.835 308.998,572.835 C308.998,572.835 308.831,572.668 308.581,572.585 C308.331,572.502 306.914,571.502 306.664,571.502 C306.414,571.502 305.331,571.168 305.331,571.168 L304.831,571.168 L303.831,571.418 C303.831,571.418 303.581,571.752 303.081,571.835 C302.581,571.918 302.664,572.002 301.998,572.002 C301.332,572.002 300.998,571.502 300.998,571.502 L300.998,570.835 L301.665,569.502 L301.665,567.502 L301.665,566.502 L301,565.667 L301,564.167 L301,562.501 L299.5,560.167 L299.5,556.834 L299.5,556.334 L298.167,555.334 L297.5,554.167 L297.5,553.167 L297.5,552.667 L298.167,550.667 L299,550.001 L299.833,549.334 L300.166,548.334 L299.999,546.834 L299.999,544.167 C299.999,544.167 300.166,542.501 299.999,541.834 C299.832,541.167 300.166,539.667 300.166,539.667 L300.999,538.667 C300.999,538.667 301.332,538.334 301.332,537.834 C301.332,537.334 300.332,533.834 300.332,533.834 C300.332,533.834 300.332,534.167 300.332,533.167 L300.332,530.001 L300.332,529.167 L300.332,527.167 L301.165,526.834 L301.498,525.834 L300.998,523.001 L300.165,521.501 L300.498,520.584 L300.498,519.751 L301.415,518.501 L301.998,518.084 L302.498,517.334 C302.498,517.334 302.831,516.834 302.998,516.584 C303.165,516.334 303.498,515.751 303.498,515.751 L303.665,514.834 C303.665,514.834 303.748,514.251 303.748,514.001 C303.748,513.751 303.831,513.001 303.831,513.001 C303.831,513.001 304.081,512.417 304.164,512.167 C304.247,511.917 304.748,511.418 305.081,511.251 C305.414,511.084 305.998,510.501 305.998,510.501 C305.998,510.501 306.248,510.167 306.581,509.917 C306.914,509.667 307.914,508.667 307.914,508.667 L308.831,508.167 L309.748,506.834 L309.831,506.417 L309.998,505.417 L310.248,504.501 L310.248,503.917 L310.248,502.751 L310.665,501.501 L310.832,500.751 L310.832,500.167 C310.832,500.167 310.665,500.001 310.665,499.751 C310.665,499.501 309.998,497.751 309.998,497.751 L309.748,496.084 L309.915,491.667 L309.915,491.167 L309.332,489.917 C309.332,489.917 308.832,489.334 308.665,489.084 C308.498,488.834 308.665,488.668 308.248,488.001 C307.831,487.334 307.998,488.001 307.831,487.334 C307.664,486.667 307.164,486.167 306.998,485.584 C306.832,485.001 306.248,484.001 306.165,483.751 C306.082,483.501 305.915,483.5 305.665,483.167 C305.415,482.834 304.998,482.417 304.998,482.417 C304.998,482.417 304.415,482.084 304.331,481.834 C304.247,481.584 304.081,481.417 303.831,481.167 C303.581,480.917 302.914,480.417 302.914,480.417 C302.914,480.417 302.831,480.25 302.581,479.917 C302.331,479.584 301.748,477.834 301.748,477.834 C301.748,477.834 301.665,477.501 301.581,477.251 C301.497,477.001 300.998,476.334 300.831,476.084 C300.664,475.834 300.081,475.417 300.081,475.417 C300.081,475.417 299.747,474.667 299.664,474.417 C299.581,474.167 299.081,473.501 299.081,473.501 C299.081,473.501 298.164,472.583 297.914,472.417 C297.664,472.251 297.497,471.667 297.497,471.667 L296.664,470.834 L296.188,470 L296.188,469.438 C296.188,469.438 296.063,468.75 296.188,468.563 C296.313,468.376 296.132,467.563 296.132,467.563 L296.813,466.688 C296.813,466.688 297.188,466 297.563,465.75 C297.938,465.5 298.251,465.25 298.438,465.062 C298.625,464.874 299.5,464.437 299.5,464.437 C300,463.687 300.188,462.749 300.188,462.749 L300.188,462.374 L300.188,461.624 C300.188,461.624 299.876,460.999 299.75,460.686 C299.624,460.373 299.25,459.374 299.25,459.374 L298.312,458.436 C297.812,458.061 297.25,457.311 297.25,457.311 L296.75,456.999 L296.132,455.937 L295.25,455.249 C295.25,455.249 294.438,454.061 294.438,453.874 C294.438,453.687 293.875,453 293.875,453 L293.563,452.5 L293.125,451.438 C293.125,451.438 292.937,451.063 292.813,450.876 C292.689,450.689 292.688,450.688 292.688,450.688 L292.063,449.688 L292.063,449.25 L291.251,448.125 C291.251,448.125 290.813,447.937 290.813,447.75 C290.813,447.563 290.375,447.062 290.375,447.062 L289.562,446 L289.187,445.312 L288.375,444.437 L288,443.937 C288,443.937 288.375,443.375 288,443.062 C287.625,442.749 287.312,442.374 287.312,442.374 L286.812,441.874 L285.687,441.436 L284.625,440.936 C284.625,440.936 284.875,440.748 284.625,440.624 C284.375,440.5 283.687,440.374 283.687,440.374 L282.499,440.312 C282.499,440.312 282.561,440.5 282.061,440.312 C281.561,440.124 280.749,439.75 280.749,439.75 C280.749,439.75 280.061,439.562 279.937,439.375 C279.813,439.188 280.375,438.813 279.937,438.625 C279.499,438.437 279.187,437.25 279.187,437.25 C279.187,437.25 279.375,436.688 279.562,436.688 C279.749,436.688 280.374,436.563 280.374,436.563 L280.936,436.251 L281.311,435.439 C281.311,435.439 281.436,434.939 281.311,434.751 L281.186,434.563 C281.186,434.563 280.811,434.251 280.624,434.063 C280.437,433.875 279.999,433.063 279.999,433.063 L279.624,432.563 L279.186,431.313 L278.748,431.063 L277.998,429.938 C277.998,429.938 277.373,430.188 277.186,429.876 C276.999,429.564 276.561,428.814 276.498,428.626 C276.435,428.438 276.498,428.251 276.498,428.251 L275.623,427.376 C275.623,427.376 275.435,427.126 275.248,426.938 C275.061,426.75 274.373,425.626 274.248,425.438 C274.123,425.25 273.81,424.813 273.81,424.813 L273.31,424.563 L272.81,423.938 L272.31,423.313 L271.622,422.688 C271.622,422.688 270.997,422.063 270.747,422 C270.497,421.937 269.309,420.938 269.309,420.938 C269.309,420.938 269.247,420.688 268.934,420.626 C268.621,420.564 267.559,420.064 267.559,420.064 L266.83,419.252 L266.33,418.752 L265.247,416.836 L265.247,416.336 C265.247,416.336 264.664,415.336 264.414,415.169 C264.164,415.002 263.331,414.836 263.331,414.836 L262.414,414.419 C262.414,414.419 262.497,414.585 261.831,414.002 C261.165,413.419 260.664,412.669 260.664,412.669 L259.914,412.252 L259.164,411.752 C259.164,411.752 258.664,411.253 258.331,411.086 C257.998,410.919 257.164,410.419 257.164,410.419 L256.414,410.002 L256.414,409.419 L255.247,407.919 L254.83,407.586 L254.83,407.169 C254.83,407.169 255.33,407.003 255.913,406.836 C256.496,406.669 256.996,406.336 256.996,406.336 C256.996,406.336 257.496,406.086 257.246,405.919 C256.996,405.752 256.413,405.502 256.413,405.502 L256,405.917 C256,405.917 255.75,406.334 255.417,406.417 C255.084,406.5 254.834,406.5 254.834,406.5 L253.834,406.5 C253.834,406.5 253.917,406.416 253.501,406.25 C253.085,406.084 253.084,406.084 253.084,406.084 L252.417,405.75 L251.667,405.5 L251.084,405 C251.084,405 251.501,404.916 251.084,404.5 C250.667,404.084 250.334,403.417 250.334,403.417 C250.334,403.417 249.751,403.083 249.501,403 L249.251,402.917 C249.251,402.917 248.835,402.168 248.418,402.084 C248.001,402 248.001,403.418 247.418,401.584 L246.835,399.75 L246.835,398.5 L246.835,398 L245.918,396.584 L245.501,396.417 L244.584,395.834 L243.917,394.75 L243.5,394.084 C243.5,394.084 242.917,393.834 242.667,393.417 C242.417,393 241.417,391.334 241.417,391.334 L241.417,390.917 C241.417,390.917 239.833,388.667 239.75,388.417 C239.667,388.167 239.25,388.334 239.667,388.167 C240.084,388 241.084,388.084 241.084,388.084 C241.084,388.084 241.417,388.25 241.751,388.5 C242.085,388.75 242.418,388.917 242.584,389.167 C242.75,389.417 243.167,389.75 243.501,389.75 C243.835,389.75 244.168,389.75 244.418,389.667 C244.668,389.584 245.085,389.084 245.085,389.084 C245.085,389.084 245.335,388.667 245.668,388.417 C246.001,388.167 246.585,387.75 246.585,387.75 L247.502,386.584 C247.502,386.584 247.585,386.5 247.585,386.25 C247.585,386 248.002,385.084 248.002,385.084 C248.002,385.084 247.669,384.584 247.502,384.334 L247.335,384.084 C247.335,384.084 247.252,383.667 247.168,383.417 C247.084,383.167 246.751,382.25 246.751,382.25 L246.418,381.25 C246.418,381.25 246.501,380.833 246.418,380.5 C246.335,380.167 246.251,379.334 246.251,379.334 L246.251,378.834 C246.251,378.834 246.251,378.667 246.584,378.667 C246.917,378.667 247.834,380.144 247.834,380.144 C247.834,380.144 248.167,379.704 248.501,380.144 C248.835,380.584 249.418,381.084 249.418,381.084 C249.418,381.084 250.501,381.5 250.751,381.75 C251.001,382 251.918,381.834 251.918,381.834 C251.918,381.834 251.834,381.25 251.501,381.167 C251.168,381.084 251.168,380.75 250.834,380.667 C250.5,380.584 250.084,380.203 249.751,380.144 C249.418,380.085 249.084,379.584 249.084,379.584 L248.417,378.917 L247.667,377.667 L247.5,376.25 C247.5,376.25 247.667,376 247.917,376 C248.167,376 248.417,376.25 248.75,376.417 C249.083,376.584 250,376.667 250,376.667 C249.667,376.167 248.667,374.834 248.667,374.834 L248.667,374.417 L248.75,373.5 L249.167,372.917 L248.167,372.25 C248.167,372.25 248,372 247.667,372 C247.334,372 246.917,371.667 246.917,371.667 L245.834,371.334 L245.751,370.5 C245.751,370.5 247.085,369.5 247.168,369.25 C247.251,369 247.585,368.751 247.668,368.334 C247.751,367.917 248.085,368.083 248.085,367.75 C248.085,367.417 248.668,366 248.668,366 C248.668,366 249.251,365.583 249.001,365.25 C248.751,364.917 248.751,364.583 248.751,364.583 C248.751,364.583 248.501,364.083 248.251,364.083 C248.001,364.083 247.418,364.166 247.168,364.166 C246.918,364.166 246.251,364.249 245.668,364.249 C245.085,364.249 244.835,363.832 244.835,363.832 L244.252,363.082 C244.252,363.082 243.836,362.582 243.669,362.249 C243.502,361.916 243.669,361.499 243.669,361.499 C243.669,361.499 244.419,360.499 244.502,360.249 C244.585,359.999 245.335,359.166 245.335,359.166 L246.085,358.499 L246.752,357.499 C246.752,357.499 247.085,357.166 247.335,357.166 C247.585,357.166 248.502,357.083 249.085,357.083 L249.668,357.083 L250.501,356.333 L250.418,355.416 L250.335,354.083 L250.418,352.5 C250.418,352.5 250.335,352.167 250.418,351.75 C250.501,351.333 251.085,351 251.085,351 C251.085,351 251.585,351.083 251.668,350.833 C251.751,350.583 252.001,350.333 251.835,350.083 C251.669,349.833 251.085,349.083 251.085,349.083 L250.668,348.666 L250.168,348.083 C250.168,348.083 250.001,347.833 249.751,347.75 C249.501,347.667 249.084,347.5 249.001,347.167 C248.918,346.834 248.834,345.917 248.834,345.917 L248.834,345.334 C248.834,345.334 248.334,344.417 248.084,344.417 C247.834,344.417 247.501,344.25 247.501,344.25 C247.501,344.25 247.251,343.25 247.251,342.917 C247.251,342.584 247.918,340.917 247.918,340.917 C247.918,340.917 249.251,341 249.418,340.75 L249.585,340.5 C249.585,340.5 249.168,339.417 248.918,339.417 L247.918,339.417 L247.168,339.667 L247.085,340.084 C247.085,340.084 247.085,340.501 247.002,340.751 C246.919,341.001 246.419,341.251 246.419,341.251 L246.086,341.751 L245.503,341.918 C244.586,342.168 243.67,341.335 243.67,341.335 L242.753,340.918 C242.753,340.918 242.17,340.834 241.836,340.751 C241.502,340.668 240.253,339.834 240.253,339.834 C240.253,339.834 239.639,339.667 239.488,339.584 C239.337,339.501 239,339.5 239,339.5 L236.667,339.5 L236.167,339.5 C235.917,339.5 235.667,339.417 235.167,339.417 C234.667,339.417 233.834,339.334 233.417,339.334 L233,339.334 C233,339.334 232.417,339.167 232.333,339.417 C232.249,339.667 232.25,339.667 232.25,339.667 L232.25,340.167 L231.812,340.75 C231.812,340.75 232.312,341.312 231.812,341.312 C231.312,341.312 230.437,341.062 230.437,341.062 C230.437,341.062 230.249,340.937 230.062,340.937 C229.875,340.937 229,340.562 229,340.562 C228.875,340.187 229,339.062 229,339.062 L229.375,338.624 L229.375,337.686 L229.375,337.436 C229.375,337.436 228.826,336.686 228.944,336.498 C229.062,336.31 228.927,335.186 228.927,335.186 L228.312,334.436 C228.312,334.436 227.25,334.624 227.25,334.811 L227.25,335.499 C227.25,335.499 227.812,336.311 227.812,336.499 L227.812,336.687 L228,337.375 L228.125,338.125 L228.125,338.563 L227.937,338.938 L228.062,339.75 L227.687,340 L226.875,340 L226.313,340 L226,339.438 C226,339.438 226.125,338.438 226,338.188 C225.875,337.938 226.125,337.563 226,337.313 C225.875,337.063 225.964,335.938 225.964,335.938 L225.933,335.5 L225.933,334.812 C225.933,334.812 225.562,335.25 225.5,335.437 C225.438,335.624 225.25,336.312 225.188,336.562 C225.126,336.812 225.25,337.062 225.188,337.25 C225.126,337.438 225.17,338.188 225.17,338.188 L225.155,339.063 C225.155,339.063 225.438,339.251 225.438,339.438 C225.438,339.625 225.813,339.876 225.813,339.876 C225.813,339.876 226.001,340.064 225.813,340.188 C225.625,340.312 225.155,340.5 225.155,340.5 L224.438,340.625 C224.438,340.625 224.25,340.437 223.938,340.437 C223.626,340.437 223.188,340.499 223.188,340.499 C223.188,340.499 223.126,340.499 222.688,340.561 C222.25,340.623 221.938,340.686 221.938,340.686 C221.938,340.686 221.25,341 221,340.875 C220.75,340.75 221,339.875 221,339.875 L219.812,340 L219.812,340.688 C219.812,340.688 219.624,341 219.25,340.813 C218.876,340.626 219.375,340.938 218.875,340.625 C218.375,340.312 217.875,340.063 217.5,339.937 C217.125,339.811 216.938,339.562 216.75,339.437 C216.562,339.312 216.688,339.125 216.438,338.999 C216.188,338.873 215.938,339.061 215.563,338.561 C215.188,338.061 215.125,337.811 214.875,337.311 C214.625,336.811 214.437,336.186 214.437,336.186 L213.499,335.248 C213.499,335.248 213.687,334.748 213.499,334.373 C213.311,333.998 212.811,332.935 212.687,332.748 C212.563,332.561 212.999,332.373 212.687,332.06 C212.375,331.747 212.499,331.622 212.312,331.185 C212.125,330.748 212.624,330.623 212.312,330.435 C212,330.247 211.874,329.873 211.874,329.623 L211.874,328.811 L211.874,327.749 L211.874,327.374 C211.874,327.374 212.062,326.999 211.874,326.812 C211.686,326.625 211.874,326.062 211.874,326.062 L211.791,325.5 C211.791,325.5 211.874,325.5 212.249,325.312 C212.624,325.124 212.999,325.062 213.311,324.812 C213.623,324.562 214.186,324.062 214.186,324.062 L214.186,323.5 L213.748,323.5 C213.748,323.5 214.06,323.5 213.436,323.688 C212.812,323.876 212.061,324.063 212.061,324.063 L211.5,324.5 C211.5,324.5 212,324.688 211.5,324.812 C211,324.936 211,324.937 211,324.937 L210.688,324.375 L210.688,323.25 L210.313,323.062 L209.875,322.75 C209.875,322.75 210.25,322.25 210.687,322.125 C211.124,322 211.437,322 211.687,321.875 C211.937,321.75 212.375,321.187 212.375,321.187 L212.437,320.875 L211.937,320.875 L211.499,321.187 L210.624,321.375 C210.624,321.375 210.124,321.687 209.874,321.687 L209.624,321.687 C209.624,321.687 209.124,321.437 208.999,321.249 C208.874,321.061 208.937,321.249 208.687,320.499 L208.437,319.749 L210.249,318.749 L210.499,317.999 L209.749,318.374 C209.749,318.374 209.437,318.624 209.249,318.624 C209.061,318.624 208.437,318.812 208.437,318.812 L207.312,319.062 L206.75,318.124 L206,317.25 L206,316.25 C206,316.25 205.5,316.125 205.375,315.75 C205.25,315.375 205.375,314.75 205.375,314.75 L204.25,313.875 C204.25,313.875 204.125,313.75 203.625,313.375 C203.125,313 202.625,312.375 202.125,312.125 C201.625,311.875 200.5,311.625 200.5,311.625 L199.75,310.875 C199.75,310.875 199.5,310.75 199.125,310.75 L197.625,310.75 L196.625,310.75 C196.625,310.75 195.25,310.75 194.875,310.5 C194.5,310.25 194,309.375 194,309.375 L194,308.375 C194,308.375 194.75,308.375 195.125,308.25 L195.5,308.125 C195.5,308.125 195.25,307 194.875,307 C194.5,307 193.25,307.25 192.875,307.375 C192.5,307.5 192.875,306.75 192.5,307.5 L192.125,308.25 L192.75,309.25 C192.75,309.25 193.25,310 192.75,310 C192.25,310 192,309.625 191.5,309.625 L189.75,309.625 L188.125,309.625 L186.375,309.625 L184.875,309.625 L184.875,309.125 L183.625,309.125 L180.875,309.25 C180.875,309.25 180.125,309.5 179.625,309.25 C179.125,309 178.75,308.875 178.125,308.75 C177.5,308.625 176.75,308.625 176.75,308.625 L174.875,308.625 L173.5,308.625 L173,308.625 L171.375,308.75 L171.375,308.125 L172.375,306 L172.375,305.125 L171.375,304.625 L171.375,304.125 L170.125,303.5 L168.625,302.875 C168.625,302.875 168.5,302.75 167.625,302.875 C166.75,303 165.375,303.125 165.375,303.125 L164.75,303.875 L164.125,305.25 C164.125,305.25 163.625,306.125 163.5,306.5 L163.375,306.875 L161.125,306.875 L159.625,306.625 C159.625,306.625 158,307 157.625,306.625 L156.5,305.5 L155.875,304.75 C155,304.75 153.75,305.375 153.75,305.375 L152.75,306.25 L151.375,306.875 L150,307 L149,307 C149,307 148.125,306.625 147.375,307 C146.625,307.375 146.25,307.375 145.625,308 C145,308.625 143.75,308.625 143.75,308.625 C143,308.625 142.875,308.5 142,308.5 C141.125,308.5 142,308.5 141.125,308.5 C140.25,308.5 138.75,308.375 138.75,308.75 L138.75,309.75 C137.875,310 138.875,310.125 137.875,310 C136.875,309.875 135.5,309.375 135,309.375 L133.75,309.375 L133.75,310.125 L132.625,311 L131.125,311.625 C131.125,311.625 133.125,312 131.125,312 L129.125,312 C129.125,312 128.5,311 128.25,310.625 C128,310.25 128,309.25 127,309.25 L126,309.25 C126,309.25 125.375,309.125 125,309 C124.625,308.875 123.875,308.375 123.875,308.375 C123.875,308.375 124.875,308.25 123.875,308 L122.875,307.75 L122.25,306.875 C122.25,306.875 122,306.75 122.25,306.25 C122.5,305.75 123.375,305.75 122.5,305.75 C121.625,305.75 120.875,306.25 120.875,306.25 L120.875,306.625 L119.5,305.75 C119.5,305.75 119,305.875 118.125,305.375 L117.25,304.875 C117.25,304.875 117.125,305 117.875,304.125 C118.625,303.25 119.375,302.75 119.375,302.75 C119.375,302.75 120.375,301.125 118.875,302 C117.375,302.875 116.375,303.625 116.375,303.625 L115.25,304.375 L114.125,304.375 C114.125,304.375 114.625,304.125 114.125,303.5 L113.625,302.875 C113.625,302.875 113.625,301.875 112.625,301.875 L110.75,301.875 L110.75,302.75 L109.25,303 L107.375,302.875 L105.875,302.375 C104.625,301.875 103.875,301.5 103.875,301.5 L103.25,301.5 L102.625,302 C101.625,302.25 99.875,300.875 99.875,300.875 C99.875,300.875 99.375,300.875 98.625,301.25 C97.875,301.625 96,301.75 95.375,301.5 C94.75,301.25 94.125,301.25 94.125,301.25 C94.125,301.25 93.875,301 93.125,301.25 C92.375,301.5 90.875,301.5 90.5,301.5 C90.125,301.5 89.625,301.375 89.125,301.5 C88.625,301.625 87.875,301.875 87.875,301.875 C86.875,302.125 85.875,302.125 85.875,302.125 L83.75,302.375 C83.75,302.375 83.875,302.5 83.125,302.625 C82.375,302.75 79.25,302.875 78.125,302.875 L77,302.875 L77,303.5 C77,303.5 76.375,304 75.5,304.25 C74.625,304.5 74.5,304.75 73.875,304.875 C73.25,305 72.25,304.75 72.25,304.75 L72.25,304.125 C72.25,304.125 71.625,303.625 71,303.375 C70.375,303.125 69.25,302.5 68.875,302.375 C68.5,302.25 69.5,303.125 68.5,302.25 C67.5,301.375 67.25,300.75 66.875,300.75 C66.5,300.75 67.375,301.375 66.5,300.75 C65.625,300.125 64.625,298.875 64.25,298.625 C63.875,298.375 63.625,298.25 63.25,298 C62.875,297.75 62.375,297.25 62.25,296.875 C62.125,296.5 61,295.625 60.625,295.375 C60.25,295.125 59.875,295 59.5,294.625 C59.125,294.25 59.625,294.875 59.125,294.25 C58.625,293.625 56.375,292.25 56.375,292.25 C56.375,292.25 56.875,292.125 56.375,291.75 C55.875,291.375 55.75,291.75 55.25,290.75 C54.75,289.75 54.125,289.25 54,288.5 C53.875,287.75 53.375,286.25 53.375,286.25 L52.125,284.625 L50.625,282.875 L49.75,282.125 C49.75,282.125 47.5,281.125 47.125,280.75 C46.75,280.375 46.125,279.125 46.125,279.125 L46.125,277.75 C46.125,277.75 47.25,277.875 45.5,276.5 C43.75,275.125 43.125,275.125 43.125,275.125 L41.75,273.75 C41.75,273.75 42.125,273.75 41.75,273.375 C41.375,273 41.625,273.125 41,272.375 C40.375,271.625 40.375,270.75 40.375,270.75 L39,270.375 L38,270 C38,270 37,269.375 36.625,269.125 C36.25,268.875 35.375,268.5 35.375,268.5 C35.375,268.5 35.125,268.375 34.625,267.75 C34.125,267.125 33.375,266.5 33.375,266.5 L32.5,265.625 L30.875,264.125 L28.625,263.25 C28.625,263.25 28.5,263 28,262.5 C27.5,262 26.125,260.125 25.625,259.625 C25.125,259.125 26.875,259 26.875,259 C27.875,258.625 28.125,258 28.25,257.625 L28.375,257.25 C28.375,257.25 28.625,256.25 28.125,256.25 L26.875,256.25 L25.535,255.875 L25.535,252.375 L26.875,251.875 L27.875,251.875 C28.375,251.875 28.75,252 29.625,251.875 L30.5,251.75 C30.5,251.75 31.375,250.625 30.625,250.625 L29.875,250.625 L28.375,250.625 C28.25,250 28.125,249.25 28.125,249.25 L27.875,247 L27.375,245.375 L26.125,242.625 C26.125,242.625 26.195,243.125 25.535,242.125 C24.875,241.125 25,241.75 24.875,241.125 C24.75,240.5 24.875,239.375 24.875,239.375 C24.875,239.375 24.889,239.25 24.819,238.875 C24.749,238.5 23.75,238.25 23.5,237.875 C23.25,237.5 22.75,237 22.5,236.625 C22.25,236.25 22.25,236.125 21.625,235.625 C21,235.125 19.75,234.125 19.375,233.75 C19,233.375 18.875,233 18.5,232.625 C18.125,232.25 17.875,231.375 17.875,231.375 C17.875,231.375 17.75,231.375 17.875,230.75 C18,230.125 17.389,230 17.819,229.625 C18.249,229.25 17.625,229.375 18.25,229.25 C18.875,229.125 19.375,229.5 19.5,229.125 C19.625,228.75 19,228 19,228 L18.417,228 C18.417,228 17.583,227.917 17.25,227.917 L16.917,227.917 C16.917,227.917 16.75,227.833 16.584,227.5 C16.418,227.167 16.584,226.5 16.584,226.5 L16.167,225.833 C16.167,225.833 16.667,225.333 16.167,225.333 C15.667,225.333 15.5,225.333 15.334,225.583 C15.168,225.833 15.167,225.833 15.167,225.833 C15.167,225.833 14.917,226.333 14.584,226.333 C14.251,226.333 13.584,225.833 13.584,225.833 L13.584,225.5 L12.834,224.833 L12.251,224.416 L12.251,223.666 L11.334,222.666 L11.001,222.166 L11.001,221.916 L9.834,221.749 L9.334,221.916 L8.917,222.666 L8.917,223.083 L7.917,223.5 C7.917,223.5 7.833,223.833 7.5,223.5 C7.167,223.167 6.75,221.833 6.75,221.833 C6.75,221.833 6.667,221.75 6.333,221.75 L5.5,221.75 L4.667,221.75 L3.584,221.75 L3.167,221.583 L2.417,221 L2.417,220.083 L2.417,219.416 L1.833,219 C1.833,219 1.583,218.917 1.25,218.833 C0.917,218.749 0.333,218 0.333,218 L0.333,217.333 L0.916,215.666 L1.916,215.249 L2.583,213.999 L3.166,213.749 C3.166,213.749 5.582,213.583 5.749,213.916 C5.916,214.249 5.916,214.499 6.249,214.749 C6.582,214.999 7.332,215.416 7.582,215.249 C7.832,215.082 7.832,214.082 7.832,214.082 L6.915,213.165 C6.665,212.915 5.332,211.665 5.082,211.665 L4.832,211.665 L4.082,211.082 L3.749,210.415 L3.249,208.915 C3.249,208.915 3.082,208.665 2.832,208.582 C2.582,208.499 2.165,208.415 2.165,208.415 C2.165,208.415 1.415,208.248 1.332,207.998 C1.249,207.748 0.999,206.248 0.832,205.998 L0.665,205.748 L1.332,203.665 L1.415,202.832 L2.082,201.749 C2.082,201.749 2.249,200.499 2.582,200.249 C2.915,199.999 2.749,200.082 3.332,198.999 C3.915,197.916 4.165,197.499 4.165,197.499 L5.623,196.749 C6.623,197.124 8.998,198.374 8.998,198.374 L10.498,198.374 L11.123,198.249 L14.373,198.249 L15.498,198.249 C15.498,198.249 16.498,198.499 16.873,198.249 C17.248,197.999 18.623,197.624 18.623,197.624 L21,197.624 L22,199.499 C22,199.499 22.125,199.499 23,200.249 C23.875,200.999 24.625,201.374 24.625,201.374 L25.875,201.874 C26.5,202.124 28.25,202.499 28.25,202.499 L29.125,202.499 C29.75,202.499 29,202.499 29.75,202.499 C30.5,202.499 31.25,202.374 31.25,202.374 L30.25,201.749 C30.25,201.749 28,202.124 26.375,201.124 L24.75,200.124 C24.75,200.124 24.875,199.624 24.375,198.999 C23.875,198.374 23.25,197.749 23.25,197.749 L22.375,196.749 L21.5,196.624 L20.625,196.374 L19.875,196.374 L18.25,196.374 C17.75,196.374 17.625,196.624 17,196.624 C16.375,196.624 15.625,196.749 15.25,196.874 C14.875,196.999 13.875,197 13.875,197 L12.75,197 L11.5,196.75 C11.5,196.75 10.625,196.25 10.25,196.25 L9.875,196.25 L8.625,195.875 C8.625,195.875 8.25,194.875 7.75,194.875 L6.625,194.875 L5.875,194.75 L6.5,192.875 L5.75,192.25 C5.75,192.25 5.625,191.25 5.625,190.625 C5.625,190 5.75,189.375 5.75,189.375 C5.75,189.375 7,190.25 5.5,188.25 L4,186.25 L2.875,184.125 L1.75,183.25 L0.875,182.75 L-0.5,182 L-0.5,181 C-0.5,180.625 -0.125,179 0.375,179 C0.875,179 1.875,179.125 2.875,179.5 C3.875,179.875 5,180.5 5,180.5 L6.125,180 L6.375,178.25 L7.875,176.75 L10.5,175.125 L10.875,174.5 L11.5,172.875 L12.75,170.875 C12.75,170.875 12.5,171.125 13,170.125 C13.5,169.125 13.625,168.375 14.125,167.5 L14.625,166.625 L16.625,165 C16.625,165 17.875,163.125 18,162.75 C18.125,162.375 19.75,160.25 19.75,160.25 C19.75,160.25 20.25,159.5 20.75,159.125 C21.25,158.75 22.5,157 22.5,157 L22.875,154.375 L23.5,153 L23.875,151.625 L23.875,148.625 C23.875,148.625 24,147.5 24,146.625 L24,144.375 C24,143.75 23.875,143 23.875,143 L21.875,141.5 L20.5,140.75 L20.5,139.75 L22.125,138.25 L22.875,137.75 L22.375,136.125 L22.875,135.25 C22.875,135.25 23.875,135.5 24.25,135.5 C24.625,135.5 25.375,136.75 25.875,135.5 L26.375,134.25 L26.25,132.5 L25.25,130.75 C25.25,130.75 25.375,130.375 25.25,130 C25.125,129.625 24,128.375 24,128.375 L22.875,127.625 L22.125,125.5 C22.125,125.5 22.25,124.25 21.75,123.75 L19.25,121.25 L20.375,119.75 L21,119.125 L22.625,117.25 L23.375,116.25 C23.375,116.25 24.125,115.375 24.5,115.25 C24.875,115.125 25.625,114.75 25.625,114.75 C25.625,114.75 26.125,113.875 26.625,113.875 C27.125,113.875 29.25,113.625 29.25,113.625 L29.625,112.625 L29.75,110.75 C29.75,110.75 30.625,108.25 31,108 C31.375,107.75 31.75,107 32,106.5 C32.25,106 32.5,104.875 32.5,104.875 L32.125,104 C32.125,104 31.75,103.125 32.25,102.75 C32.75,102.375 34,101 34,101 L34.625,100.75 L36.25,99.875 C36.25,99.875 37,99.75 37.625,99.5 C38.25,99.25 39.25,99.125 39.25,99.125 L40.625,98 L43.375,96.625 L43.5,95.25 L43.5,93.25 L43.25,90.75 C43.25,90.75 43.25,89.5 43.625,89.375 C44,89.25 44.875,87.25 44.875,87.25 C44.875,87.25 44.625,86.75 45,86.625 C45.375,86.5 46.125,85.875 46.125,85.875 L47.5,84.125 L47.75,82.625 C47.75,82.625 48.25,82 48.375,81.5 C48.5,81 49.375,79.25 50,79.125 C50.625,79 51.125,79.125 51.5,79.125 C51.875,79.125 52.75,79.75 52.75,79.75 C52.75,79.75 53.375,79.875 53.75,79.875 C54.125,79.875 53.25,80.5 54.125,79.875 C55,79.25 56.125,78.75 56.125,78.75 L58.25,77.375 C58.25,77.375 58,77.375 58.375,76.375 C58.75,75.375 59.125,74 59.125,74 L60.125,73.375 L60.875,71.625 L62.375,70.375 L63.75,68 C63.75,68 64.125,67.5 65.125,66.875 L66.125,66.25 C66.125,66.25 66.375,66.125 67.625,66.125 C68.875,66.125 69.875,66.25 69.875,66.25 C69.875,66.25 69.125,66.75 70.875,66.75 L74,66.75 L77,66.75 C77,66.75 78.25,66.875 78.75,66.625 C79.25,66.375 80.125,65.625 80.125,65.625 L81.375,65.5 C81.375,65.5 82.25,64.875 82.5,64.5 C82.75,64.125 84.125,63.125 84.375,62.75 C84.625,62.375 86,60.875 86,60.875 C86,60.875 87.25,60.75 87.625,60.75 L89.5,60.75 C89.5,60.75 90.25,60.375 90.375,60 C90.5,59.625 91.625,58 92,57.875 C92.375,57.75 94.375,56.25 94.375,56.25 L95.5,55.625 C95.5,55.625 96,55.125 96.5,54.875 C97,54.625 97.25,54.375 97.75,54 C98.25,53.625 98.875,52.875 98.875,52.875 C98.875,52.875 99.375,51.5 99.875,51 C100.375,50.5 101.5,49.875 101.625,49.5 C101.75,49.125 102,47.875 101.125,47.75 C100.25,47.625 99.5,47.375 99.5,47.375 L98.625,46.75 L98.75,46.125 L98.75,44.5 L99.625,43.125 C99.625,43.125 99.75,43.792 99.75,41.833 L99.75,38.625 C99.75,38.625 99.25,38.125 100.125,37.625 C101,37.125 102.25,36 102.25,36 L105.5,33.75 C105.5,33.75 104.75,33.375 105.5,32.625 C106.25,31.875 107,30.125 107,30.125 L107.125,29.25 L107.375,27.5 C107.375,27.5 107.875,26.75 108.5,26.625 C109.125,26.5 110,26.625 110,26.625 C110,26.625 109.75,28.014 110.875,26.569 C112,25.124 112.5,24.375 113,24.25 C113.5,24.125 114.75,24 115.75,23.625 C116.75,23.25 117.375,21.75 117.375,21.75 L119.25,21.75 L121.625,21.75 L122.875,20.875 C122.875,20.875 123.125,21.625 124.125,20.875 C125.125,20.125 129.625,19.125 129.625,19.125 L130.125,18.5 L131.5,17 L131.875,16.375 C131.875,16.375 132,17.5 132.25,16.375 C132.5,15.25 133.625,13.5 133.625,13.5 C133.625,13.5 133.375,13.125 134.125,12.25 C134.875,11.375 135.5,10.125 135.5,10.125 C135.5,10.125 136.25,9.125 136.75,8.75 C137.25,8.375 137.75,8.125 138,7.625 C138.25,7.125 137.5,8.125 138.25,7.125 C139,6.125 139.75,4.75 139.75,4.75 L142.875,1.25 C142.875,1.25 142.25,1.25 143.25,0.625 C144.25,5.05151476e-14 145.125,-0.375 145.75,-0.375 C146.375,-0.375 147,-0.625 147.5,-0.375 C148,-0.125 148.875,-0.375 148.875,0.5 L148.875,2.375 C148.875,2.375 148.375,3 148.375,3.375 C148.375,3.75 148.25,4 148.25,4.375 C148.25,4.75 149.125,5.5 149.125,5.5 L149.75,6 L150.5,6.75 L152,8.625 L152.875,9.25 C152.875,9.25 153.125,9.625 153.625,9.625 L154.125,9.625 L159.375,9.875 L161.25,11.375 L164,11.75 L165.375,10.75 L165.375,9.75 L165.625,9 C166.375,8.625 167.125,9.625 167.125,9.625 L167.125,10.25 C167.125,10.25 166.875,10.75 167.25,10.875 C167.625,11 168.125,11.125 168.5,11.5 C168.875,11.875 170.875,13 170.875,13 C170.875,13 171.5,13 171.875,13.125 C172.25,13.25 172.5,13.25 173,13.25 C173.5,13.25 174.25,13 174.25,13 L175.5,13 L176.875,11.625 C176.875,11.625 177.625,9.625 178.25,9.375 L179.5,8.875 L180.875,8.125 L182.125,8 L182.625,9.25 C182.625,9.25 182.625,9.5 182.875,10 C183.125,10.5 182.125,9.875 183.125,10.5 C184.125,11.125 185.25,11.25 185.25,10.875 C185.25,10.5 185.375,8.875 185.375,8.875 L186,8.25 C186,8.25 188.375,7.625 188.375,8.125 C188.375,8.625 188.375,7.625 188.375,8.625 C188.375,9.625 186.625,10.125 188.375,9.625 C190.125,9.125 191,9.125 191,8.25 C191,7.375 191.125,6.625 191.125,6.625 L193.375,5.625 C193.375,5.625 194,5.625 194.75,5.25 C195.5,4.875 197.5,4.25 197.5,4.25 C197.5,4.25 197.625,3.875 198,3.625 C198.375,3.375 201.375,2.75 201.375,2.75 C201.375,2.75 202.25,2.875 202.625,2.875 C203,2.875 202.625,3.125 203.875,3.125 C205.125,3.125 206.5,3.25 206.875,3.25 L208.25,3.25 C208.75,3.25 211,3.75 211,3.75 L212.875,4.5 L214.875,3.625 L216,2.75 L218.125,3 C219,2.625 220.25,1.375 220.75,1.375 C221.25,1.375 222.5,1.125 224.375,1.375 C226.25,1.625 227.5,1.625 228,1.625 C228.5,1.625 227.75,0.875 228.5,1.625 C229.25,2.375 229.875,3.25 229.875,3.25 L232.125,5 C232.875,5.375 234.375,5.75 234.625,5.125 C234.875,4.5 234.875,4 235.375,3.875 C235.875,3.75 236.875,3.75 236.875,3.75 C238.125,4.25 238.375,4.375 239,3.875 L241.5,1.875 C241.5,1.875 241.5,1.25 241.875,1.25 C242.25,1.25 243.25,1.375 243.375,1.75 C243.5,2.125 244,3.375 244,3.375 L245,3.875 L246.125,3.625 L247.75,1.875 L249.75,2.5 L250.375,3.5 C250.375,3.5 250.375,4 250.75,4.25 L251.125,4.5 C251.125,4.5 253.25,5.25 253.75,5.25 L254.875,5.25 C256.375,4.75 257,4.375 257,4.375 L258.625,3.75 C258.625,3.75 258.875,3.5 260,3 C261.125,2.5 262.25,2.25 262.25,2.25 L263,2.125 C263,2.125 263.625,2.125 264,2.25 C264.375,2.375 265.5,2.25 265.5,2.25 L266.5,2.25 C266.875,2.25 267.875,2.625 267.875,2.625 C267.875,2.625 268.25,2.625 268.5,3 C268.75,3.375 269.375,3.875 269.625,4.375 C269.875,4.875 270.25,4.125 269.875,4.875 C269.5,5.625 269.75,4.625 269.5,5.625 C269.25,6.625 267.5,7.125 269,7.625 L270.5,8.125 C270.5,8.125 270.625,8 271.25,7.5 L271.875,7 L272.75,6 C272.75,6 273.25,5.625 273.5,5.25 C273.75,4.875 273,4.25 274.25,4.25 L275.5,4.25 C275.5,4.25 275.75,5.375 276.125,5.75 C276.5,6.125 276.625,6.625 276.625,7 C276.625,7.375 277,7.75 276.625,8.125 C276.25,8.5 275,9.5 275,9.5 C275,9.5 273.625,10.375 273.25,10.625 C272.875,10.875 271.875,11.25 271.875,11.25 C271.875,11.25 271.5,11.625 271.375,12 C271.25,12.375 271.625,11.5 271.25,12.375 C270.875,13.25 271,12.375 270.875,13.25 L270.75,14.125 L271.625,14.75 C271.625,14.75 272.75,15.625 273.125,15.875 L273.5,16.125 C273.5,16.125 274.125,16.75 274.375,17.25 C274.625,17.75 274.875,18 275,18.75 C275.125,19.5 275.125,20.25 275.125,20.25 L275.125,21.625 C275.125,22 275.25,22.5 275.125,23 C275,23.5 274.5,24.75 274.5,24.75 L274,25.375 C274,25.375 272.75,26.5 272.375,26.75 C272,27 271.375,27.375 271.25,27.75 C271.125,28.125 270.5,28.625 270.25,29 C270,29.375 269.875,29.875 269.25,30.75 C268.625,31.625 267.625,33.25 267.625,33.25 L266.875,34.25 C266.875,34.25 266.125,34.5 266.75,35 C267.375,35.5 266.125,34.25 267.375,35.5 C268.625,36.75 270.625,38.625 270.625,38.625 C271.5,37.875 271.375,37.625 271.875,36.75 C272.375,35.875 272.875,34.25 273.375,34 C273.875,33.75 273.125,33.625 273.875,33.75 C274.625,33.875 275.25,34.875 275.25,34.875 L275.125,35.875 L274.375,36.5 C274.375,36.5 274.125,36.875 274.125,37.25 C274.125,37.625 273.25,36.875 274.125,37.625 C275,38.375 276.375,39.125 276.375,39.125 C276.5,39.875 277.75,40.5 278.125,40.625 C278.5,40.75 280.125,41 280.125,41 L281.625,40.875 L283.125,41.375 C283.125,41.375 283,42 283.375,42.125 C283.75,42.25 284.5,42.875 284.5,42.875 C284.5,42.875 286.125,44 286.375,44.375 C286.625,44.75 285.75,44.75 287.25,44.75 C288.75,44.75 290.125,44.5 290.625,44.5 L292.5,44.5 L293.5,42.25 C293.5,42.25 293.625,41.75 294.125,42.25 C294.625,42.75 295.375,43.125 295.375,43.125 L296.125,43.75 L299.25,44.125 L300.625,44.875 L303.375,46 C303.375,46 304.75,45.875 304.75,46.25 C304.75,46.625 304,46 304.75,46.625 C305.5,47.25 305.25,48 305.625,48 C306,48 307.25,48.25 307.75,48.25 C308.25,48.25 308.875,48.5 308.875,48.5 C308.875,48.5 308.875,48.25 309.5,48.875 C310.125,49.5 309.625,48.875 310.125,49.5 C310.625,50.125 312.25,50.875 312.375,51.625 C312.5,52.375 312,53.625 312,53.625 L312,54.625 C312,54.625 311.875,54.625 312.375,55.25 C312.875,55.875 313.375,57.25 313.375,57.25 L314.5,58.25 C314.5,58.25 314.125,58 315.5,59.125 C316.875,60.25 317.875,60.75 317.875,60.75 L319.25,60.75 C319.75,60.75 318,60.75 319.75,60.75 C321.5,60.75 323.625,60.5 323.625,60.5 C323.625,60.5 325,60 325.625,60.5 C326.25,61 327.375,61 327.875,61.5 C328.375,62 327.625,61.375 328.375,62 C329.125,62.625 329.625,62.5 330.25,62.75 C330.875,63 331.188,63 331.188,63 C331.188,63 330,62.875 332.376,63.625 C334.752,64.375 334.751,64.375 334.751,64.375 C334.751,64.375 334.501,64.875 335.501,65.75 C336.501,66.625 337.126,66.75 337.126,66.75 L339.376,68.25 C339.376,68.25 340.126,67.875 341.126,68.875 C342.126,69.875 343.001,70.375 343.001,70.375 L344.583,69.75 L344.583,69.75 Z" id="Shape"></path>
                        <path d="M622.167,490.667 L622.167,489.667 L620.667,489.667 L619.333,490.667 L619.333,491.667 C619.333,491.667 618.667,491.334 618.167,491.667 C617.667,492 617.667,490.334 617,491.667 L616.333,493 C616.333,493 616.666,494 616.333,494.5 C616,495 616.333,496 616.333,496 L617,496 C617,496 616.834,497 617.167,497.5 C617.5,498 617.333,498.833 617.333,498.833 L616.186,499.5 L615.5,501.5 L615.5,502.167 C615.5,502.167 614.999,501.834 614.333,502.167 L613.667,502.5 C613.667,502.5 613.834,504.001 613.667,504.667 C613.5,505.333 614.5,504.333 613.5,505.333 C612.5,506.333 613.167,507.166 612.5,506.333 C611.833,505.5 611.667,503.833 611.667,503.833 L611,503.5 L609.5,503.333 L609.5,504 L609.5,505.167 L609.5,506.674 C609.5,507 610.667,508.333 610.667,509 C610.667,509.667 612.501,509.501 610.667,509.667 C608.833,509.833 607.5,509.667 607.5,509.667 C607.5,509.667 607.667,510.001 607.5,510.667 C607.333,511.333 607.5,513 607.5,513 C607.5,513 606.685,513.166 607.426,513.833 C608.167,514.5 609.167,515.167 608.167,515.5 L607.167,515.833 L605.5,514.833 L605.5,514 L604.5,514.167 C604.5,514.167 603.333,514.167 603.333,514.667 L603.333,515.833 L603.333,516.5 L603.333,517.5 C603.333,517.5 603.166,517.667 603.333,518.5 L603.5,519.333 C603.5,519.333 603.351,520.166 603.259,520.333 C603.167,520.5 602.5,520.333 602.5,520.333 L602.5,518.5 C602.5,518.5 601.833,518.667 601.333,518.5 C601.161,518.442 601.049,518.405 600.975,518.381 C600.833,518.333 597.999,520.147 597.833,520.407 C597.667,520.667 596.833,520.407 596.833,520.407 L596,521.5 L596,522.333 C596,522.333 597,521.333 597,522.333 C597,523.333 598,523.667 598,523.667 C598,523.667 599.499,524.667 597.833,524.667 L594.667,524.667 L594.667,523.167 L594.667,522.5 L593.167,522.167 C592,522.833 591.167,523.167 591.167,523.167 L591.167,523.667 L590.5,524 L589.667,524.667 C589.667,524.667 590.667,524 589.667,524 L587.833,524 L587,524.667 C587,524.667 586.834,525.334 586.167,525.667 C585.5,526 584.667,526.5 584.667,526.5 L584,526.5 L582.667,526.5 L581,526.5 L580.333,527.167 C580.333,527.167 580.166,527.499 580.333,528.333 C580.5,529.167 580.185,529.166 580.259,529.833 C580.333,530.5 580.247,531.833 580.247,531.833 L580.247,532.812 L579.75,533.374 L579.125,534.186 L578.813,534.561 C578.563,534.999 578.251,535.186 578.125,535.436 C577.999,535.686 578.125,536.248 578.125,536.248 L578.069,536.873 L577.437,537.623 C577.437,537.623 577.187,537.185 576.937,537.623 C576.687,538.061 576.625,538.498 576.625,538.498 L576.625,538.998 L576.625,539.998 L576.625,540.81 C576.625,540.81 577.125,541.185 577.125,541.372 C577.125,541.559 577.187,542.31 577.187,542.31 L577.25,544 L577.312,544.438 C577.312,544.438 577.187,544.938 577.437,545.188 C577.687,545.438 578,545.75 578,545.75 C578,545.75 578.188,545.875 578.25,546.062 C578.312,546.249 578.562,546.687 578.562,546.687 L578.562,547.249 L578.5,547.687 C578.5,547.687 578.438,548.437 578.562,548.625 C578.686,548.813 578.937,549.125 578.937,549.125 L579.562,549.5 L579.624,549.875 C579.624,549.875 579.686,550.25 579.686,550.437 L579.686,551.062 C579.686,551.062 579.624,551.5 579.748,551.874 C579.872,552.248 580.06,553.124 580.248,553.312 L580.436,553.5 C580.436,553.5 580.624,553.938 580.998,554.062 C581.372,554.186 581.81,554.437 581.81,554.437 L582.372,555.249 L582.872,555.561 L582.997,555.936 C582.997,555.936 582.497,555.811 582.247,555.936 L581.997,556.061 C581.997,556.061 581.685,556.186 581.685,556.373 C581.685,556.56 581.685,556.811 581.623,557.123 C581.561,557.435 581.623,557.685 581.561,557.873 C581.499,558.061 581.311,558.561 581.499,558.623 C581.687,558.685 582.249,558.873 582.437,558.935 C582.625,558.997 582.999,558.435 583.125,558.935 C583.251,559.435 583.437,559.747 583.437,559.747 C583.437,559.747 583.062,560.122 582.687,560.185 C582.312,560.248 582.312,560.247 582.312,560.247 L581.75,560.247 C581.75,560.247 581.688,560.309 581.5,560.247 L581.312,560.185 L581.187,560.747 C581.187,560.747 580.812,560.247 580.812,560.747 C580.812,561.247 580.687,561.559 580.687,561.559 C580.687,561.559 580.687,561.559 580.562,561.871 C580.437,562.183 580.374,562.121 580.25,562.809 C580.126,563.497 580.125,563.497 580.125,563.497 L579.687,564.372 C579.687,564.372 579.249,564.622 579.249,564.997 C579.249,565.372 579.187,565.747 579.187,565.747 C578.812,565.935 577.937,566.185 577.937,566.185 L577.749,566.56 L577.561,567.248 L577.311,568.686 C577.311,568.686 577.373,569.248 577.123,569.498 C576.873,569.748 577.435,569.498 576.873,569.748 C576.311,569.998 575.935,569.748 575.935,569.748 L575.247,570.186 L574.872,570.498 C574.497,570.936 574.434,570.998 574.434,571.248 C574.434,571.498 574.184,571.56 574.059,572.06 C573.934,572.56 574.309,572.748 574.059,573.06 C573.809,573.372 574.006,573.685 574.033,573.872 C574.121,574.623 573.934,575.372 573.934,575.372 L573.622,575.372 L573.184,576.06 L573.184,576.498 C573.184,576.686 572.872,577.248 572.872,577.248 L572.872,578.873 C572.747,579.373 572.872,580.373 572.872,580.373 C573.059,580.935 573.059,580.31 573.059,580.935 C573.059,581.56 573.497,583.123 573.497,583.123 C573.497,583.123 573.372,583.185 573.685,583.561 C573.998,583.937 574.997,584.873 574.997,584.873 C574.997,584.873 575.309,585.185 575.372,585.373 C575.496,585.999 575.872,586.561 576.246,587.061 C576.62,587.561 577.246,588.249 577.246,588.249 L577.246,589.123 C577.246,589.31 577.184,589.935 577.184,589.935 C577.184,589.935 577.684,590.997 577.372,591.247 C577.06,591.497 577.31,591.059 577.06,591.497 C576.81,591.935 576.685,592.122 576.622,592.372 C576.559,592.622 576.434,592.56 576.372,593.122 C576.31,593.684 576.372,594.31 576.372,594.31 C576.372,594.31 576.497,594.435 576.622,594.685 C576.747,594.935 577,595.25 577,595.25 C577,595.25 577.188,595.438 577.188,595.625 C577.188,595.812 577.5,596.437 577.5,596.437 L577.5,596.812 C577.438,597.624 577.562,598.374 577.938,598.562 C578.314,598.75 578.313,598.75 578.313,598.75 C578.313,598.75 578.938,599.375 579.063,599.812 C579.188,600.249 578.875,599.687 579.188,600.25 C579.501,600.813 579.563,601.062 579.688,601.25 C579.813,601.438 580.126,601.438 580.313,601.688 C580.5,601.938 580.251,601.5 580.501,601.938 C580.751,602.376 580.751,602.376 581.063,602.75 C581.375,603.124 581.688,603.375 582.001,603.625 C582.314,603.875 582.689,604.125 582.689,604.125 L583.439,604.625 C583.439,604.625 583.814,604.75 584.127,604.937 C584.44,605.124 584.752,605.187 585.127,605.499 C585.502,605.811 586.252,606.124 586.252,606.124 L586.69,606.124 L587.315,606.124 L588.127,606.749 C588.127,606.749 588.815,606.999 588.877,607.249 C588.939,607.499 589.252,607.561 589.502,607.749 C589.752,607.937 590.252,608.187 590.564,608.187 L592.502,608.187 C592.502,608.187 593.44,607.999 593.877,607.812 C594.314,607.625 593.815,607.937 594.315,607.624 C594.815,607.311 597.19,606.249 597.19,606.249 L597.448,605.499 C597.448,605.499 597.268,604.999 597.448,604.937 C597.628,604.875 598.253,604.125 598.565,604.062 C598.877,603.999 598.877,604 598.877,604 L601.377,604 L601.939,604 L604.189,603.562 L604.5,603 L604.875,602.062 C604.875,602.062 605.125,601.437 605.187,601.25 C605.249,601.063 605.625,599.688 605.749,599.5 C605.873,599.312 606.124,598.688 606.124,598.688 C606.124,598.688 606.124,598.188 606.249,598 C606.374,597.812 606.374,596.75 606.874,596.25 C607.374,595.75 607.436,595 607.436,595 C607.436,595 607.874,594.125 607.874,593.875 C607.874,593.625 608.749,592.687 608.812,592.375 C608.875,592.063 609.374,590.563 609.374,590.563 L609.749,589.751 L609.811,587.939 L610.123,587.314 L610.811,585.752 C610.811,585.314 610.936,583.564 610.936,583.564 C610.936,583.564 610.936,583.376 611.061,583.126 C611.186,582.876 611.499,582.126 611.561,581.876 C611.623,581.626 611.623,581.126 611.623,581.126 C611.623,581.126 611.623,580.626 611.561,580.376 C611.499,580.126 611.686,579.001 611.686,579.001 L612.186,578.251 C612.186,578.251 612.811,577.689 612.936,577.063 C613.061,576.437 613.374,574.875 613.374,574.688 C613.374,574.501 613.499,573.876 613.812,573.688 C614.125,573.5 614.374,572.813 614.687,572.563 C615,572.313 615.375,570.813 615.375,570.813 C615.375,570.813 615.313,570.501 615.375,570.251 C615.437,570.001 615.687,568.376 615.687,568.376 L615.937,566.876 C615.937,566.876 616.125,565.876 616.187,565.626 C616.249,565.376 616.875,563.564 617.062,563.376 C617.249,563.188 617.624,562.001 617.624,562.001 L617.812,560.501 C617.937,560.001 618.562,558.626 618.562,558.626 C618.562,558.626 618.624,557.938 618.624,557.751 C618.624,557.564 618.999,557.063 618.999,556.876 C618.999,556.689 619.187,555.314 619.187,555.314 L619.999,553.876 C619.999,553.876 620.374,553.438 620.374,553.251 C620.374,553.064 620.624,552.126 620.624,552.126 C620.624,552.126 620.749,551.188 620.812,550.876 C620.875,550.564 621.25,549.814 621.374,549.564 C621.498,549.314 622.333,548.814 622.166,548.564 C621.999,548.314 621.624,547.064 621.624,547.064 C621.624,547.064 621.69,546.439 622.188,546.314 C622.686,546.189 623.436,545.376 623.436,545.376 L623.936,544.626 L623.936,543.814 L623.936,543.126 L624.436,542.314 L624.436,541.064 C624.436,541.064 624.124,540.626 624.436,540.439 C624.748,540.252 624.748,540.127 625.061,539.814 C625.374,539.501 625.436,539.126 625.436,539.126 C625.436,539.126 625.124,538.751 624.936,538.751 C624.748,538.751 624.561,538.689 624.248,538.689 C623.935,538.689 623.686,538.127 623.686,538.127 L623.248,536.502 L622.81,536.064 L623.435,534.502 L625.123,534.502 L625.435,533.502 C625.81,533.127 626.185,532.127 626.185,532.127 C626.185,532.127 626.56,531.752 626.685,531.502 C626.81,531.252 626.997,530.814 626.997,530.814 L626.997,530.314 L626.435,528.626 L626.497,528.251 L626.622,527.251 C626.622,527.251 626.434,526.939 626.31,526.689 C626.186,526.439 626.125,526 626.125,526 L625.563,525.25 L625.375,524.688 L625.375,523.313 C625.375,523.313 625.437,522.625 625.375,522.438 C625.313,522.251 624.937,521.563 624.937,521.563 C624.937,521.563 624.875,521.501 624.875,521.188 C624.875,520.875 625.437,519.5 625.437,519.5 L626.125,520 C626.125,520 626.25,520.125 626.25,520.312 L626.25,521 L626.312,521.438 L626.562,522.063 C626.562,522.063 627.062,521.938 627,522.313 C626.938,522.688 627.5,523.125 627.5,523.125 L627.812,523.5 L628.187,524.375 L628.499,524.937 L628.874,525.187 C628.874,525.187 628.999,525.062 629.186,525.249 C629.373,525.436 628.374,525.874 629.374,525.437 C630.374,525 630.624,524.562 630.749,524.312 C630.874,524.062 631.124,523.624 631.124,523.374 L631.124,522.436 L631.124,521.874 L631.562,521.374 L631.562,521 L631.562,520.312 L631.562,519 L631.562,518.625 C631.562,518.625 631.624,518.187 631.562,518 C631.5,517.813 631,516.875 631,516.875 L630.938,516.375 L630.75,515.875 L630.125,514.875 C630.125,514.875 630.187,514.813 630,514.313 C629.813,513.813 629.562,513.188 629.562,513.188 C629.562,513.188 629.438,513 629.5,512.5 C629.562,512 629.938,510.75 629.938,510.75 L629.938,509.5 C629.938,509.5 630.063,509 630.063,508.75 C630.063,508.5 630.251,507.875 630.251,507.875 L630.376,506.625 C630.376,506.625 630.376,506.375 630.126,506.187 C629.876,505.999 629.938,505.812 629.688,505.499 C629.438,505.186 629.688,505.561 629.438,505.187 C629.188,504.813 628.876,504.375 628.75,504.187 C628.624,503.999 628.5,503.499 628.5,503.499 L628.5,502.499 L628.312,501.999 C628.312,501.999 628.062,501.749 628,501.374 C627.938,500.999 627.688,500.374 627.688,500.374 L627.688,499.936 L627.438,499.061 L627.126,498.749 L626.501,497.437 L625.751,496.062 L624.813,495.187 C624.813,495.187 624.251,494.125 624.001,493.999 C623.751,493.873 623.313,493.124 623.313,493.124 L622.938,492.812 L622.25,492.187 L622.167,491.667 L622.167,490.667 L622.167,490.667 Z" id="Shape"></path>
                    </g>
                </g>
            </g>
        </g>
    </g>
</svg>