<?xml version="1.0" encoding="UTF-8" standalone="no"?>
<svg width="664px" height="720px" viewBox="0 0 664 720" version="1.1" xmlns="http://www.w3.org/2000/svg" xmlns:xlink="http://www.w3.org/1999/xlink" xmlns:sketch="http://www.bohemiancoding.com/sketch/ns">
    <title>Slice 1</title>
    <description>Created with Sketch (http://www.bohemiancoding.com/sketch)</description>
    <defs></defs>
    <g id="Page-1" stroke="none" stroke-width="1" fill="none" fill-rule="evenodd" sketch:type="MSPage">
        <g id="africa" sketch:type="MSLayerGroup" transform="translate(0.000000, 1.000000)" fill="#FFFFFF">
            <g id="Page-1" sketch:type="MSShapeGroup">
                <g id="icon_8115">
                    <g id="Layer_2">
                        <path d="M345.583,69.75 L347.333,68.583 L348.583,67.5 L349.417,66.5 L350.833,64.833 L352,63.667 L352.583,62.5 L352.583,61.583 L352.583,60.333 L351.667,59 L350.917,57.833 L350.5,56.75 L350.5,55.667 L350.583,53 L351.417,51.417 L352.083,50.667 L353.167,49.584 L354.5,48.334 L356.167,47.251 L357.5,46.251 L359,44.834 L360.25,44.834 L361.167,44.834 L362.333,44.501 L363.417,43.918 L364.25,43.168 L365,42.5 L366.25,41.833 L367.333,41.833 L370.167,41.833 L370.583,42.25 L371.25,43 L372.417,43.5 L373.333,43.667 L374.5,44.167 L375.667,44.5 L376.417,44.917 L377.833,45.75 L378.583,46.583 L378.583,47.166 L379.417,48.416 L379.417,49.166 L380.667,49.416 L382.083,49.499 L383,49.499 L384.167,49.749 L385.5,50.332 L386.083,50.665 L388,51.083 L389.917,50.916 L391.25,50.833 L392.75,50.833 L394.75,50.916 L397,51 L397.75,51.75 L398.167,52.417 L398.167,52.834 L399.5,53.251 L400.5,52.918 L400.5,52.585 L401.417,51.918 L402.083,51.251 L402.833,51.251 L404.333,51.251 C404.667,51.251 405.25,51.501 405.25,51.501 L406.917,51.834 L407.75,52 L408.917,52.417 L410.167,52.5 L411.167,52.583 L412.5,52.583 C412.5,52.583 414.333,52.666 414.583,52.75 C414.833,52.834 415.667,52.917 415.667,52.917 L416.833,53.417 L417.5,54 C417.5,54 417.917,54.5 418.25,54.583 C418.583,54.666 419.083,54.833 419.083,54.833 L420.25,54.833 L421.417,54.916 C421.417,54.916 421.749,55.249 422.083,55.416 C422.417,55.583 422.583,56.166 422.583,56.166 L423.583,56.416 L424.5,56.249 L424.833,55.791 L424.833,55.416 L425.333,54.916 L425.333,54.666 L426.167,54.166 L426.917,54.249 L426.917,55.082 L428.083,55.79 L429.083,55.79 L429.917,57 C429.917,57 430.501,57.167 430.667,57.417 C430.833,57.667 431.583,58 431.583,58 L432.167,58.083 L432.833,57.75 L432.833,57.417 L433.667,56.75 L434.583,56.167 L435,55.792 L436,54.75 L436.917,54 L437.417,53.333 L438.167,52.416 L438.833,51.916 L439.75,51.083 L440.583,50.333 L441.25,49.916 L442.167,49.916 L442.583,50 L443.5,50.333 L445.083,50.25 L446.083,49.417 L447.083,48.834 L447.583,48.084 L448.083,47.167 L448.583,46.917 L449.833,46.834 L450.583,47.417 L450.583,48.25 L451.417,49.25 L452,49.417 L452.75,49.25 L453.167,48.833 L454.333,48.25 L455.417,47.5 L456.167,47.583 L456.75,48.333 L457.25,49 L457.25,49.75 L456.333,50.25 L455.417,50.25 L455.917,50.917 L457.25,51.167 L457.917,51.834 L457.917,52.084 L458.75,51.667 L458.75,50.917 L460.417,50.417 C460.417,50.417 461.417,50.667 461.5,51 C461.583,51.333 462,51.75 462,51.75 L462.75,52.083 L464,52.083 L465.333,52.083 L466.25,51.75 L467.667,51.083 L468.75,50.833 L469.583,51.166 L471.083,50.749 L471.5,50.166 L472.417,49.416 L473.583,48.583 L474.333,47.916 L475.5,47.249 L476.333,47.582 L477.083,48.832 L477.5,49.915 L477.917,51.248 L478.75,52 L479.667,53.083 L480.083,54.5 L480.583,55.792 L481.167,57 L481.75,58.167 L482.417,59.084 L483.25,60.417 L484.25,61.334 L484.75,62.667 C484.75,62.667 484.333,63.5 484.75,63.917 C485.167,64.334 484.75,65.75 484.75,65.75 L484.936,67 L484.936,67.917 L484.936,68.834 L484.333,69.084 L483.917,69.167 L483.75,69.75 L483.667,71.333 L483.417,72.583 L483.333,73.666 L483.417,74.749 L483.5,75.499 L483.333,75.999 L482.667,76.582 L482.417,77.165 L482.333,78.415 L482.25,79.415 L482.5,81.415 L483.333,82 L483.417,83 L483.25,83.417 L482.583,83.917 L481.833,84.584 L481.083,85.251 L480.5,85.668 L480.167,86.168 L479.667,86.168 L478.75,85.668 C478.75,85.668 478.083,85.251 477.833,85.085 C477.583,84.919 476.583,84.418 476.583,84.418 L475.667,83.668 L474.75,82.668 L474.5,82 L473.5,81 L472.833,80 L472.5,79.417 L472.083,78.667 L470.833,77.834 L470.167,77.334 L469.5,76.25 L469.083,75.25 L468.75,73.75 L468.333,73.083 L467.583,71.583 L467,70.917 L466.417,70.584 L466.25,70.167 L465.333,69.167 L465.083,68.667 L464.25,67.084 L463.667,66.417 L463.167,65.584 L462.667,65.084 L462.333,65.584 L462.667,66.501 L463.167,67.584 L463.667,68.001 L464.5,68.751 L464.917,69.834 L465.25,71 L465.417,71.583 L465.167,72.25 L465.167,73.25 L465.417,74.333 C465.417,74.333 465.584,75.083 465.917,75.25 C466.25,75.417 467.083,75.833 467.083,75.833 L467.833,76.25 L468.75,76.833 L469.5,77.916 L470.25,78.666 L470.583,79.249 L470.958,80.041 L471.625,80.499 L472.083,80.999 L472.583,81.541 L472.875,81.874 L473.167,82.124 L473.667,82.499 L473.917,82.916 L474.542,83.416 L474.708,83.666 C474.708,83.666 474.917,84.291 475.042,84.416 C475.167,84.541 475.75,85.208 475.75,85.208 L476.292,85.625 L476.917,85.792 L477.5,86 L478.417,86.167 L479.375,86.792 L479.875,87.125 L479.833,87.708 L479.458,88.333 C479.458,88.333 479.458,88.75 479.25,88.75 L478.583,88.75 C478.583,88.75 478.042,88.833 477.917,88.75 C477.792,88.667 477.542,88.949 477.417,88.787 C477.292,88.625 477.042,88.666 477.042,88.666 L476.75,89.249 C476.75,89.249 476.709,89.582 476.917,89.666 C477.125,89.75 477.875,89.916 477.875,89.916 L478.25,90.291 L478.375,90.583 L478.917,91.541 L479.208,91.874 L479.625,92.457 C479.625,92.457 479.833,92.707 479.958,92.79 C480.083,92.873 480.5,93.165 480.625,93.248 C480.75,93.331 480.625,93.04 480.75,93.331 C480.875,93.622 481.001,93.873 480.917,93.998 C480.833,94.123 480.75,94.456 480.75,94.456 C480.75,94.456 480.542,94.789 480.375,94.873 C480.208,94.957 480.208,94.956 480.208,94.956 C480.208,94.956 479.874,95.039 479.833,95.289 C479.792,95.539 479.708,95.581 479.708,95.706 C479.708,95.831 479.791,96.081 480.083,96.289 C480.375,96.497 480.167,96.247 480.375,96.497 C480.583,96.747 480.374,96.414 480.583,96.747 C480.792,97.08 481.083,97.122 481.208,97.414 C481.333,97.706 481.667,98.122 481.667,98.122 L482.875,98.747 L482.875,99.205 C482.875,99.205 482.874,99.33 482.958,99.455 C483.042,99.58 482.874,99.747 483.083,99.83 C483.292,99.913 483.459,100.496 483.542,100.663 C483.625,100.83 483.917,101.371 483.917,101.371 L484.125,101.746 L484.458,102.038 L484.667,102.496 C484.667,102.496 484.913,102.954 484.936,103.079 C484.959,103.204 485.166,103.537 485.208,103.662 C485.25,103.787 485.542,104.037 485.625,104.162 C485.708,104.287 485.876,104.454 485.917,104.579 C485.958,104.704 485.542,104.787 485.917,104.912 C486.292,105.037 487.625,105.995 487.625,105.995 L487.875,106.62 L487.875,107.453 L488.542,107.995 L488.542,108.412 L488.958,108.704 L489.25,109.246 L489.5,109.704 L489.792,110.246 L490.167,110.621 L490.75,111.454 L491.208,112.079 L491.667,112.454 L491.875,112.787 L492.333,113.37 C492.333,113.37 492.791,113.953 492.958,114.12 C493.125,114.287 493.501,114.578 493.542,114.703 C493.583,114.828 494.041,115.411 494.208,115.536 C494.375,115.661 495.126,116.37 495.292,116.453 C495.458,116.536 495.75,116.745 495.875,116.87 C496,116.995 496.292,117.162 496.375,117.287 C496.458,117.412 496.999,117.871 497.333,118.079 C497.667,118.287 498.083,118.871 498.083,118.871 L498.583,119.163 L499.208,119.621 L500,120.204 L500.167,120.496 L500.417,120.871 L500.417,121.204 L500.417,121.579 C500.417,121.579 500.376,121.621 500.417,121.829 C500.458,122.037 500.417,122.162 500.417,122.162 C500.417,122.162 500.167,122.287 500.042,122.329 C499.917,122.371 499.626,122.537 499.542,122.662 C499.458,122.787 499.208,122.954 499.208,122.954 L498.75,123.246 C498.75,123.246 497.708,124.329 497.708,124.496 C497.708,124.663 497.792,124.913 497.792,124.913 C497.792,124.913 498.001,125.038 498.042,125.163 C498.083,125.288 498.542,125.913 498.542,125.913 L498.833,125.913 C498.833,125.913 499.916,126.58 500.208,126.705 C500.5,126.83 500.334,126.413 500.667,126.705 C501,126.997 501.292,127.205 501.292,127.205 L501.875,127.872 L502.813,128.622 C502.813,128.622 503.188,128.997 503.251,129.184 C503.314,129.371 504.001,129.184 504.001,129.184 L504.626,129.934 L505.626,130.246 L507.001,131.184 C507.376,131.434 508.063,131.934 508.063,131.934 L508.438,132.309 L508.813,132.684 L510.001,134.184 L510.813,134.809 C510.813,134.809 510.938,134.497 511.125,134.809 C511.312,135.121 512.313,135.621 512.313,135.621 C512.313,135.621 511.563,135.746 512.313,135.933 C513.063,136.12 513.563,136.433 513.563,136.433 L513.563,137.121 C513.563,137.121 513.375,137.683 513.563,137.871 C513.751,138.059 513.563,138.809 513.563,138.809 L513.646,139.371 L513.646,140.121 L513.646,140.809 L513.646,141.371 L513.646,141.621 L514.125,141.621 L514.125,142.059 C514.125,142.059 514.437,142.184 514.625,142.371 C514.813,142.558 515.25,142.871 515.25,142.871 C515.25,142.871 515.438,143.121 515.625,143.246 C515.812,143.371 516.437,143.496 516.625,143.808 C516.813,144.12 517.187,144.308 517.187,144.308 L517.875,145.12 C517.875,145.12 517.625,145.495 517.875,145.682 C518.125,145.869 518.25,146.432 518.25,146.432 L518.25,146.87 L517.938,147.37 C517.5,147.558 517.876,147.495 517.5,147.558 C517.124,147.621 516.875,147.308 516.688,147.558 C516.501,147.808 516.75,147.433 516.5,147.808 L516.25,148.183 L516.438,149.371 L516.563,150.683 L516.938,151.308 L517,152.12 L517,152.808 L516.812,153.308 L516.5,154.308 L516.438,155.058 L516.438,155.62 L516.438,156.245 C516.438,156.432 516.626,156.37 516.75,156.683 C516.874,156.996 517.188,157.058 517.188,157.371 C517.188,157.684 517.25,158.121 517.25,158.121 L517.375,159.121 L517.437,160.309 L517.312,161.559 L517.374,162.059 C517.374,162.059 518.124,162.559 518.249,162.747 C518.374,162.935 518.874,164.309 518.874,164.309 L518.874,165.247 C518.874,165.247 518.624,165.435 518.874,165.685 C519.124,165.935 519.124,166.123 519.312,166.373 C519.5,166.623 519.562,166.685 519.75,166.935 C519.938,167.185 520.375,168.185 520.375,168.185 C520.375,168.185 520.75,168.435 520.875,168.685 C521,168.935 521.125,168.935 521.437,169.185 C521.749,169.435 522.687,170.06 522.687,170.06 C522.687,170.06 522.562,169.56 523.062,170.06 C523.562,170.56 525.062,171.122 525.062,171.122 C525.062,171.122 525.75,171.434 525.937,171.56 C526.124,171.686 526.375,171.685 526.562,171.872 L527.562,172.872 C527.562,172.872 528.187,172.997 528.374,173.31 C528.561,173.623 529.374,173.935 529.374,173.935 L530.249,174.56 L532.624,176.06 L532.624,176.81 L533.124,177.372 L533.124,178.06 C533.124,178.06 533.874,179.122 534.062,179.248 C534.25,179.374 534.25,179.373 534.25,179.373 C534.25,179.373 534.688,180.185 534.812,180.373 C534.936,180.561 535.187,180.935 535.187,180.935 L535.187,181.31 L536.062,182.435 L536.562,183.435 L536.937,183.935 L536.937,184.497 L537.437,184.997 L537.437,186.372 L537.937,187.06 L538.375,187.622 L538.667,188.289 C538.667,188.289 538.542,188.247 538.667,188.414 C538.792,188.581 538.834,188.247 538.792,188.581 C538.75,188.915 538.865,188.956 538.808,189.123 C538.751,189.29 538.833,188.873 538.75,189.29 L538.667,189.707 C538.667,189.707 538.773,190.249 538.824,190.457 C538.875,190.665 538.731,190.79 538.824,190.999 C538.917,191.208 539.001,191.333 539.167,191.791 C539.333,192.249 539.792,192.624 539.875,192.958 C539.958,193.292 540.292,193.583 540.292,193.583 C540.292,193.583 540.374,193.75 540.833,193.833 C541.292,193.916 542.708,193.833 542.708,193.833 L543.042,193.87 L543.458,193.499 L544,192.957 L545.188,192.186 C545.188,192.186 545.313,192.061 545.5,191.998 C545.687,191.935 546.188,191.123 546.188,191.123 L547.376,190.561 C547.376,190.561 547.688,190.499 547.876,190.499 L548.626,190.499 L549.064,191.561 L549.064,192.623 L549.064,193.311 L549.376,194.561 L549.814,195.311 C549.814,195.311 549.189,195.373 549.814,195.686 C550.439,195.999 551.814,196.248 551.814,196.248 L552.376,196.248 L552.814,196.248 L553.502,196.686 L554.502,197.561 L555.064,198.061 C555.064,198.061 554.814,197.811 555.064,198.249 C555.314,198.687 555.564,198.937 555.752,198.999 C555.94,199.061 556.127,199.437 556.127,199.437 L556.439,199.999 C556.439,199.999 556.377,200.124 556.439,200.311 C556.501,200.498 556.751,200.749 556.439,200.936 C556.127,201.123 556.127,201.124 556.127,201.124 C556.127,201.124 555.689,201.562 555.439,201.686 C555.189,201.81 554.877,202.124 554.877,202.124 C554.877,202.124 553.565,202.686 553.315,202.936 L553.065,203.186 L552.003,203.936 L552.003,204.248 L552.253,204.748 L552.628,205.186 L553.566,205.186 L554.066,205.624 C554.066,205.624 554.441,205.249 554.628,205.624 C554.815,205.999 554.816,205.999 554.816,205.999 L556.128,206.749 C556.128,206.749 556.312,207.311 556.595,207.374 C556.878,207.437 557.378,207.374 557.378,207.374 C557.378,207.374 558.066,207.812 558.253,207.874 C558.44,207.936 559.191,207.874 559.191,207.874 L559.503,208.312 L559.941,208.937 L560.691,209.625 L560.941,209.625 L561.629,210.813 L561.629,211 C561.629,211 562.004,211.312 562.254,211.438 C562.504,211.564 563.004,212 563.192,212.25 C563.38,212.5 563.754,213.125 563.754,213.125 C563.754,213.125 564.316,213.125 564.379,213.437 C564.442,213.749 564.567,214.249 564.754,214.375 C564.941,214.501 564.629,214.063 564.942,214.5 C565.255,214.937 565.692,215.25 565.692,215.25 L565.942,215.25 C565.942,215.25 566.63,215.062 566.88,215.25 C567.13,215.438 567.692,215.438 567.942,215.562 C568.192,215.686 569.004,215.937 569.004,215.937 L569.004,216.687 C569.004,216.687 569.192,216.749 569.504,217.062 C569.816,217.375 570.379,218 570.379,218 L571.004,218.562 C571.004,218.562 571.254,218.687 571.316,218.874 C571.378,219.061 571.878,219.624 571.878,219.624 L571.878,220.062 L573.19,221.187 L573.19,221.499 L574.502,222.124 L575.502,222.624 L576.752,223.249 C576.752,223.249 576.877,222.874 577.064,223.249 C577.251,223.624 578.939,224.124 578.939,224.124 C578.939,224.124 579.377,224.312 579.439,224.499 C579.501,224.686 580.501,225.687 580.501,225.687 L580.876,225.687 C580.876,225.687 581.001,226.499 580.876,226.687 C580.751,226.875 580.932,227.187 580.932,227.187 C580.932,227.187 580.626,226.875 580.501,227.187 C580.376,227.499 580.313,228.062 580.563,228.249 C580.813,228.436 580.813,228.437 580.813,228.437 C580.813,228.437 581.875,228.999 582.001,229.187 C582.127,229.375 582.626,229.687 582.689,229.875 C582.752,230.063 583.564,231.25 583.564,231.25 L583.939,231.75 L583.939,232.688 C583.939,232.688 584.251,232.75 584.251,233.063 C584.251,233.376 583.813,234.625 583.813,234.625 L583.751,234.937 L583.563,235.375 L583.125,235.75 L582.75,236.188 C582.75,236.188 582.438,235.813 582.25,236.188 C582.062,236.563 581.375,236.938 581.375,236.938 L580.875,237.25 C580.875,237.25 580.75,237.188 580.625,237.562 C580.5,237.936 580.375,237.874 580.687,238.25 C580.999,238.626 581.875,239.688 581.875,239.688 C581.875,239.688 583,240.376 583.25,240.438 C583.5,240.5 584.375,240.563 584.625,241 C584.875,241.437 585.125,241.5 585.125,241.75 C585.125,242 585.5,242.625 585.5,242.625 L585.5,243.125 L586,243.875 L586.438,243.875 C586.438,243.875 586.126,244.25 586.438,244.437 C586.75,244.624 587.438,245.125 587.438,245.125 L587.813,245.563 L588.251,246.251 C588.251,246.251 588.751,246.626 588.813,246.813 C588.875,247 589.188,247.375 589.188,247.375 C589.188,247.375 589.626,247.75 589.75,248 C589.874,248.25 590.688,248.625 590.812,248.812 C590.936,248.999 590.624,248.624 590.937,249 C591.25,249.376 591.562,249.062 591.937,249.562 C592.312,250.062 592.499,250.187 592.687,250.374 C592.875,250.561 592.562,250.686 593.249,250.749 C593.936,250.812 595.374,250.749 595.374,250.749 L596.374,250.777 L597.312,251.187 L598.812,251.187 C599,251.187 599.437,250.749 599.75,250.687 C600.063,250.625 600.625,250.312 600.625,250.312 C600.625,250.312 601.25,250.25 601.437,250.187 C601.624,250.124 602.125,249.687 602.312,249.499 C602.499,249.311 603.25,249.061 603.5,248.999 C603.75,248.937 604.25,248.687 604.25,248.687 L604.875,248.125 C604.875,248.125 605.125,247.75 605.437,247.625 C605.749,247.5 606.187,247.187 606.187,247.187 C606.187,247.187 606.749,246.625 606.999,246.499 C607.249,246.373 607.187,246.124 607.437,245.999 C607.687,245.874 607.812,245.374 608.187,245.374 C608.562,245.374 608.937,245.186 608.999,245.374 C609.061,245.562 609.374,245.874 609.374,245.874 L610.499,246.624 C610.499,246.624 610.561,246.499 610.811,246.686 C611.061,246.873 611.373,247.061 611.686,247.124 C611.999,247.187 611.498,247.249 611.998,247.186 C612.498,247.123 613.06,246.936 613.248,246.998 C613.436,247.06 614.373,247.498 614.373,247.498 L614.811,247.686 C615.249,247.686 616.436,247.436 616.436,247.436 L617.061,247.186 L617.623,246.248 L617.935,246.06 L619.873,244.872 L620.498,244.56 C620.498,244.56 620.623,244.498 620.81,244.185 C620.997,243.872 621.185,243.685 621.685,243.56 C622.185,243.435 623.31,242.748 623.497,242.748 C623.684,242.748 624.309,242.623 624.309,242.623 L626.747,242.935 L631.247,240.873 L632.247,240.561 L632.809,240.999 L633.309,240.999 L635.371,240.999 C635.371,240.999 635.996,240.999 636.246,240.937 C636.496,240.875 638.496,240.687 638.934,240.687 C639.372,240.687 639.934,240.749 640.122,240.749 C640.31,240.749 640.747,240.749 640.997,240.687 C641.247,240.625 641.685,240.499 641.685,240.499 L643.06,240.437 L643.685,240.437 L644.373,239.937 L645.185,239.749 L645.81,239.624 L647.435,239.312 L648.247,238.874 L650.685,238.874 L651.497,238.312 C651.497,238.312 652.122,237.812 652.309,237.562 C652.496,237.312 653.621,236.624 653.809,236.374 C653.997,236.124 654.371,235.936 654.559,235.686 C654.747,235.436 656.684,234.624 656.684,234.624 L657.684,233.312 C657.684,233.312 658.059,233 658.309,232.937 C658.559,232.874 659.371,232.875 659.371,232.875 L659.996,233.125 L661.184,233.437 L662.872,233.999 L663.434,234.561 L663.872,235.123 L663.872,235.748 L663.872,236.31 L663.872,236.935 L663.247,237.185 L662.747,237.685 L662.435,238.31 L662.247,238.81 L662.185,239.622 L662.185,240.247 L662.623,241.185 L663.123,241.623 L663.498,242.248 L663.436,243.186 C663.436,243.186 663.624,243.436 663.248,243.561 C662.872,243.686 662.186,244.123 662.186,244.123 L662.311,245.248 L662.623,245.373 C663.123,245.873 663.435,246.123 663.435,246.123 L663.873,247.498 L663.873,248.186 L663.498,248.748 L663.186,248.748 C662.999,248.748 662.248,248.873 662.124,249.123 C662,249.373 661.999,249.373 661.999,249.373 C661.999,249.373 661.249,249.748 660.999,249.998 C660.749,250.248 660.561,250.31 660.561,250.56 L660.561,251.185 L660.373,253.747 C660.373,253.747 660.061,254.622 660.061,255.059 C660.061,255.496 660.123,256.809 660.186,257.059 C660.249,257.309 660.248,258.059 660.248,258.059 C660.248,258.059 660.498,258.621 660.498,258.809 L660.498,260.121 L660.498,260.496 C660.498,260.496 659.998,260.871 659.81,261.121 C659.622,261.371 658.935,261.683 658.872,261.871 C658.809,262.059 658.622,262.309 658.622,262.496 C658.622,262.683 658.56,262.808 658.434,263.184 C658.308,263.56 657.934,263.996 657.934,264.184 C657.934,264.372 658.309,264.309 657.746,264.746 C657.183,265.183 656.621,265.308 656.558,265.496 C656.495,265.684 656.558,266.496 656.558,266.496 L656.12,267.934 L656.182,268.496 L655.744,269.434 C655.744,269.434 655.682,269.872 655.682,270.122 C655.682,270.372 656.244,270.372 655.62,270.81 C654.996,271.248 655.245,270.935 654.995,271.248 C654.745,271.561 654.62,271.81 654.307,271.936 C653.994,272.062 653.807,271.498 653.682,271.936 C653.557,272.374 653.182,272.624 653.182,272.624 L652.682,273.186 L652.057,273.748 C652.057,273.748 651.932,274.06 651.745,274.186 C651.558,274.312 651.37,274.811 651.37,274.811 L650.432,275.499 C650.432,275.499 650.057,275.937 649.932,276.124 C649.807,276.311 649.62,276.436 649.557,276.624 C649.494,276.812 649.495,277.436 649.495,277.436 L649.495,278.061 C649.495,278.061 649.683,278.686 649.683,278.936 C649.683,279.186 649.683,279.748 649.621,279.998 C649.559,280.248 649.433,280.623 649.433,280.623 L649.245,281.123 C649.245,281.123 648.495,281.811 648.245,282.123 C647.995,282.435 648.245,282.123 647.995,282.435 C647.745,282.747 647.557,283.185 647.433,283.373 C647.309,283.561 647.058,284.185 646.808,284.435 C646.558,284.685 646.496,284.31 646.12,285.31 C645.744,286.31 645.745,285.935 645.432,286.622 C645.119,287.309 645.12,287.434 644.994,287.622 C644.868,287.81 644.869,287.997 644.744,288.31 C644.619,288.623 645.056,288.248 644.369,289.122 C643.682,289.996 643.431,289.872 643.369,290.434 C643.307,290.996 643.307,291.434 643.307,291.809 C643.307,292.184 643.432,292.497 643.495,292.809 C643.558,293.121 643.557,293.809 643.557,293.809 L643.182,294.747 L642.744,295.685 C642.744,295.685 642.619,295.873 642.494,296.123 C642.369,296.373 642.119,296.498 642.056,296.811 C641.993,297.124 641.806,297.561 641.556,297.999 C641.306,298.437 641.244,298.624 641.118,298.811 C640.992,298.998 641,299 641,299 C641,299 640.312,299.875 640.125,300.125 C639.938,300.375 639.75,300.937 639.625,301.25 C639.5,301.563 639.625,301.562 639.125,302.062 C638.625,302.562 637.75,303.812 637.75,303.812 C637.75,303.812 637.375,304 637.312,304.187 C637.249,304.374 636.937,305.125 636.937,305.125 C636.937,305.125 636.749,305.563 636.375,305.937 C636.001,306.311 635.937,306.625 635.75,306.999 C635.563,307.373 635.312,307.749 635.188,307.937 C635.064,308.125 634.813,308.749 634.688,309.062 C634.563,309.375 634.376,309.812 634.188,310.124 C634,310.436 633.063,311.562 632.876,311.936 C632.689,312.31 632.438,312.624 632.251,312.748 C632.064,312.872 631.689,313.123 631.126,313.373 C630.563,313.623 630.188,313.811 629.751,314.185 C629.314,314.559 629.251,315.123 629.251,315.123 C629.251,315.123 628.939,315.435 628.813,315.748 C628.687,316.061 628.251,316.81 628.251,316.81 L628.189,317.248 L627.877,318.06 C627.877,318.06 626.877,318.685 626.815,318.998 C626.753,319.311 625.503,319.873 625.503,319.873 L625.253,320.748 L624.691,321.686 L624.503,322.374 C624.503,322.374 624.003,322.749 623.878,322.936 C623.753,323.123 623.44,323.498 623.44,323.498 C623.44,323.498 623.252,323.81 623.002,323.936 C622.752,324.062 622.314,324.436 622.064,324.624 C621.814,324.812 621.626,324.999 621.439,325.186 C621.252,325.373 621.314,325.686 620.877,325.936 C620.44,326.186 620.252,326.811 620.065,327.061 C619.878,327.311 619.69,327.561 619.315,327.873 C618.94,328.185 618.44,328.561 618.44,328.561 C618.44,328.561 618.128,328.811 617.878,328.999 C617.628,329.187 616.878,329.687 616.878,329.687 L616.438,330 L615.813,330.438 L615.438,330.813 C615.438,330.813 615.126,331.188 614.938,331.375 C614.75,331.562 614.063,332.313 614.063,332.313 L613.625,333 L611.667,334 C611.667,334 609.833,335.667 609.333,335.833 C608.833,335.999 608.333,336.666 608.333,336.666 C608.333,336.666 606.167,337.666 605.667,338.166 C605.167,338.666 604.333,339.166 604.333,339.166 L602.667,340.166 C602.667,340.166 601.667,341.166 601,341.999 C600.333,342.832 598.833,343.499 598.833,343.499 L597.833,344.499 L596.5,344.499 C596.5,344.499 594.501,346.166 594.167,346.666 C593.833,347.166 593,348 593,348 C593,348 592.667,348.667 592,349.167 C591.333,349.667 590.833,350 590,351 C589.167,352 588.333,353.5 588.333,353.5 L587.5,354.333 C587.5,354.333 587.001,354.5 586.167,355.666 C585.333,356.832 583.833,357.666 583.833,357.666 C583.167,358.499 582.167,359.166 582.167,359.166 C581.333,360 582.499,359 581.333,360 C580.167,361 581.167,360.333 580.167,361 C579.167,361.667 580.334,360.334 579.167,361.667 C578,363 578,363.5 577.5,364 C577,364.5 576.833,366.166 576.5,366 C576.167,365.833 575.666,366.334 575.333,366.834 C575,367.334 576.833,364.501 575,367.334 L573.167,370.167 L572.667,371.667 C572.667,371.667 572.167,372 572,372.667 C571.833,373.334 571.499,374.834 571.333,375.334 C571.167,375.834 571.834,374.668 571.167,375.834 C570.5,377 571.333,376 570.5,377 C569.667,378 569.156,378.469 569.156,378.469 L568.718,379.5 L568.374,379.875 L568.186,380.219 C568.186,380.219 567.248,381.125 567.155,381.125 L566.717,381.125 L566.123,380.781 L565.561,380.406 C565.561,380.406 565.28,380.187 565.249,380.062 C565.218,379.937 565.03,379.531 565.03,379.531 C565.03,379.531 564.968,379.281 564.811,379.219 C564.654,379.157 564.123,378.875 564.03,378.875 C563.937,378.875 563.468,379.063 563.342,379.094 C563.216,379.125 562.748,379.563 562.748,379.563 C562.748,379.563 562.967,379.844 563.029,380.032 C563.091,380.22 563.248,380.313 563.31,380.438 C563.372,380.563 563.81,380.938 563.81,380.938 C563.81,380.938 564.091,381.032 564.122,381.126 C564.153,381.22 564.684,381.845 564.684,381.845 L564.934,382.189 L564.684,383.22 L564.34,383.72 C564.34,383.72 563.84,384.095 563.715,384.189 C563.59,384.283 563.246,384.439 563.246,384.439 L562.777,384.689 C562.777,384.689 562.527,384.877 562.465,384.97 C562.403,385.063 562.277,385.376 562.153,385.47 C562.029,385.564 561.934,385.626 561.622,385.689 C561.31,385.752 560.716,385.814 560.434,385.845 C560.152,385.876 559.403,385.97 559.278,386.001 C559.153,386.032 559.122,385.907 559.028,386.001 C558.934,386.095 557.966,386.939 557.872,387.032 C557.778,387.125 557.434,387.438 557.372,387.594 C557.31,387.75 557.372,387.938 557.184,387.969 C556.996,388 556.403,387.844 556.246,387.969 C556.089,388.094 556.09,388.125 556.027,388.25 C555.964,388.375 555.965,389 556.058,389.094 C556.151,389.188 556.527,389.313 556.62,389.344 C556.713,389.375 557.182,389.594 557.182,389.594 C557.182,389.594 557.182,390.375 557.12,390.469 C557.058,390.563 556.87,390.781 556.495,390.969 C556.12,391.157 555.995,391.094 555.933,391.375 C555.871,391.656 555.933,392.125 555.995,392.344 C556.057,392.563 556.37,393.5 556.339,393.625 C556.308,393.75 555.964,394.563 555.714,394.625 C555.464,394.687 554.495,394.625 554.495,394.625 C554.495,394.625 554.246,394.917 553.912,395 C553.578,395.083 553.828,394.666 553.578,395.083 C553.328,395.5 553.328,396.333 553.328,396.333 L553.578,396.917 L553.745,398.083 L553.662,398.75 L553.412,399.417 C553.412,399.417 554.161,399.667 553.078,399.917 C551.995,400.167 552.328,399.584 551.995,400.167 C551.662,400.75 551.662,400.916 551.662,401.333 C551.662,401.75 551.662,401.834 551.745,402.167 C551.828,402.5 551.912,402.75 551.912,403 C551.912,403.25 551.828,403.751 551.495,403.917 C551.162,404.083 550.912,404.583 550.662,404.833 C550.412,405.083 550.912,404.749 550.412,405.083 C549.912,405.417 549.828,406 549.745,406.25 C549.662,406.5 549.245,407.083 549.245,407.083 L548.245,407.917 L547.578,408.333 C547.578,408.333 547.578,409 547.495,409.25 C547.412,409.5 547.078,410.167 547.078,410.167 C547.078,410.167 546.995,411.083 546.745,411.5 C546.495,411.917 546.412,412.75 546.412,412.75 L546.412,413.167 C546.412,413.417 546.495,414.083 546.495,414.333 L546.495,415.25 C546.495,415.25 546.578,415.749 546.328,416.083 C546.078,416.417 545.495,416.917 545.495,416.917 C545.495,416.917 545.328,416.251 545.078,416.917 C544.828,417.583 545.328,416.916 544.828,417.583 C544.328,418.25 544.162,418.583 543.912,419.083 C543.662,419.583 543.583,421 543.583,421 L543.667,421.833 C543.667,421.833 543.999,422.584 544.083,422.917 C544.167,423.25 544.583,423.584 544.833,423.917 C545.083,424.25 546.083,425.083 546.083,425.083 C546.083,425.083 546.667,425.667 546.667,425.917 C546.667,426.167 548.249,427.583 548.333,427.833 C548.417,428.083 548.917,428.25 548.917,428.25 C548.917,428.25 549.501,428.5 549.667,428.75 C549.833,429 550.75,429.999 551,430.083 C551.25,430.167 552.75,430.5 552.75,430.75 C552.75,431 552.584,431.417 552.417,431.667 C552.25,431.917 552.083,432.333 552.083,432.333 L551.417,433.083 L550.083,434.75 C550.083,434.75 549.75,434.667 549.75,435.5 L549.75,436.333 C549.75,436.333 550.583,437.583 550.5,437.833 C550.417,438.083 550.083,438.833 550.083,438.833 C550.083,438.833 549.916,438.999 550.083,439.333 C550.25,439.667 552.583,439.333 552.583,439.333 C552.583,439.333 552.833,440.046 553,439.481 C553.167,438.916 553.75,437.25 553.75,437.25 L554.25,436.667 C554.25,436.667 554.333,435.917 554.833,435.917 C555.333,435.917 555.5,436.083 555.5,436.333 C555.5,436.583 555.333,437.167 555.333,437.667 C555.333,438.167 556,438.5 556,438.5 C556,438.5 556.333,438.833 556.333,439.083 C556.333,439.333 556.167,440.167 556.167,440.167 L555.417,440.167 C555.417,440.167 554.917,441 554.75,441.25 L554.583,441.5 C554.583,441.5 553.417,442.083 552.917,442.25 C552.417,442.417 552.083,442.25 552.083,442.25 L550.583,443.333 L550.417,443.917 L550.417,445.167 C550.417,445.167 550.584,445.583 550.667,445.833 C550.75,446.083 551.25,447.083 551.25,447.083 L551.5,448.167 L551.917,450 L552.583,451.333 C552.583,451.333 552.916,452.001 552.833,452.417 C552.75,452.833 552.667,453.584 552.667,453.917 C552.667,454.25 554.917,456.25 554.917,456.25 C554.917,456.25 555.25,456.417 555.25,456.667 C555.25,456.917 555.417,456.334 555.25,456.917 C555.083,457.5 554.917,458.417 554.917,458.417 C554.917,458.417 554.833,458.417 555,459 C555.167,459.583 555.833,460.583 556.083,461.083 C556.333,461.583 556.917,461.917 556.917,461.917 C556.917,461.917 557.917,461.501 558,461.917 C558.083,462.333 559.333,463.001 559.75,463.167 C560.167,463.333 560.833,463.167 560.833,463.167 C560.833,463.167 561.334,464.083 561.417,464.333 C561.5,464.583 561.916,464.666 562.083,465.083 C562.25,465.5 562.167,466 562.25,466.25 C562.333,466.5 562.667,467.334 562.75,467.917 C562.833,468.5 563.251,468.417 563.667,469.25 C564.083,470.083 564.5,470.75 564.5,471 C564.5,471.25 563.916,471.667 563.833,471.917 C563.75,472.167 563.75,472.833 563.75,472.833 C563.75,472.833 563.333,472.499 563.083,472.833 C562.833,473.167 562.333,473.417 562.333,473.667 L562.333,474.667 C562.333,474.667 562.666,475.084 562.333,475.417 C562,475.75 561.5,474.834 561.25,475.417 C561,476 560.334,475.501 560.417,476.417 C560.5,477.333 561,477.417 561.25,477.417 C561.5,477.417 562,477.083 562,477.083 C562,477.083 563.083,476.917 563.083,477.417 C563.083,477.917 563,478.917 563,478.917 L563,479.417 C563,479.667 563.417,480.333 563.417,480.333 C563.417,480.333 563.583,480.75 563.5,481.25 C563.417,481.75 562.75,483.333 562.75,483.583 C562.75,483.833 562.834,484.083 562.917,484.5 C563,484.917 563.5,488 563.5,488 L564.5,488.917 C564.5,488.917 565.167,489.75 565.167,490 C565.167,490.25 564.666,491.083 564.583,491.583 C564.5,492.083 564.333,492.667 564.333,492.667 C564.333,492.667 564.417,493.749 564.5,494.083 C564.583,494.417 564.75,495.083 564.75,495.083 C564.75,495.083 564.167,495.916 564.167,496.583 L564.167,497.667 L564.833,498.667 C564.833,498.667 565.167,499.249 565.417,499.833 C565.667,500.417 566.666,500.751 566.833,501.167 C567,501.583 567.083,503.25 567.083,503.25 L567.417,504.667 L567.75,505.583 L567.75,506.583 L567.5,507.833 L567.5,508.333 L567.25,509.167 L567.083,510.833 C567.083,510.833 567,511.583 567,512 C567,512.417 566.667,514 566.667,514 L566.5,514.75 C566.5,514.75 566.333,515 566.083,515.25 C565.833,515.5 565.501,516 565.417,516.25 C565.333,516.5 565,516.917 565,516.917 L563.083,519.167 L562.917,519.75 C562.917,519.75 561.25,521.917 561,522.25 C560.75,522.583 560.917,523.25 560.667,523.5 C560.417,523.75 561.751,522.75 560.417,523.75 C559.083,524.75 557,526.417 557,526.417 C557,526.417 556.834,527.75 556.417,528 C556,528.25 554.583,530.083 554.583,530.083 L553.417,530.583 C553.417,530.583 552.666,530.333 552.333,530.583 C552,530.833 551.333,531.333 550.75,531.333 C550.167,531.333 550.249,531.749 549.833,531.833 C549.417,531.917 546.166,532.834 545.833,532.917 C545.5,533 545.333,532.667 545.083,532.917 C544.833,533.167 544.083,533.499 543.75,533.833 C543.417,534.167 543.416,534.583 542.833,534.833 C542.25,535.083 541.999,535.333 541.333,535.5 C540.667,535.667 540.001,536.333 539.667,536.5 C539.333,536.667 538.25,537.333 538.25,537.333 C538.25,537.333 535.749,538.416 535.333,538.833 C534.917,539.25 534.333,540.083 534.333,540.083 C534.333,540.083 533.917,540.916 533.5,541.333 C533.083,541.75 532.25,543 532.25,543 L532.083,543.5 C532.083,543.5 531.833,544.917 531.25,545.5 C530.667,546.083 529.833,547.75 529.833,547.75 C529.833,547.75 528.834,548.917 528.417,549.167 C528,549.417 527,550 527,550 C527,550 526.749,550.25 526.333,550.5 C525.917,550.75 525.583,551.167 525,551.417 C524.417,551.667 523.583,552.5 523.583,552.5 L521.667,554.167 L520.667,555.834 L519.833,556.667 L518.5,557.334 L516.333,559.667 L515.333,560.501 C515.333,560.501 514.333,560.167 514.333,561.334 C514.333,562.501 514.499,561.168 514.333,562.501 C514.167,563.834 513.333,564.834 513.333,565.334 C513.333,565.834 512.833,566.335 513.333,567.001 C513.833,567.667 515.167,567.001 515.167,567.001 L516.667,568.001 C516.667,568.001 517.5,567.001 517.5,568.001 C517.5,569.001 517.333,568.667 518,569.834 C518.667,571.001 519.333,571.834 519.333,571.834 L519.083,572.917 L518.833,573.751 C518.833,573.751 518.75,573.917 518.75,574.417 C518.75,574.917 518.999,575.167 519.333,575.334 C519.667,575.501 521,576.001 521,576.001 L522.333,576.417 L522.583,576.834 L522.5,577.667 L522.5,578.251 C522.5,578.251 522.501,577.835 522.167,578.251 C521.833,578.667 522.333,578 521.833,578.667 C521.333,579.334 521.25,579.751 521.25,579.751 C521.25,579.751 520.499,580.333 521.333,580.417 C522.167,580.501 521.584,580.501 522.167,580.501 L523.75,580.501 C523.75,580.501 523.917,580.833 523.917,581.167 L523.917,582.251 L524,583.251 C524,583.251 523.667,583.668 523.667,584.251 C523.667,584.834 523.667,585.333 523.5,585.667 C523.333,586.001 523.417,586.417 523.25,586.667 C523.083,586.917 523.001,586.835 522.917,587.501 C522.833,588.167 522.751,588.751 523.167,589.001 C523.583,589.251 525.417,589.584 525.417,589.584 C525.417,589.584 525.583,590.001 525.333,590.334 C525.083,590.667 525.001,590.834 524.917,591.084 C524.833,591.334 524,591.084 524,591.084 L523.5,591.917 L522.917,593.167 L522.917,593.667 L523.083,594.584 C523.083,594.584 522.999,595.001 523.083,595.584 C523.167,596.167 523.667,597.334 523.667,597.334 L525,598.417 L525,599.001 C525,599.001 525.001,599.085 524.917,599.501 C524.833,599.917 524.667,601.251 524.667,601.251 C524.667,601.251 524.666,601.418 524.583,601.751 C524.5,602.084 524.417,602.333 524.167,602.917 C523.917,603.501 523.75,603.917 523.75,603.917 L522.833,604.667 L522.25,605.167 L521.25,606.084 L521.083,606.501 L520.333,607.417 L519.333,608.334 L517.667,609.417 C517.667,609.417 518.167,609.501 517.25,609.751 C516.333,610.001 515.083,610.251 515.083,610.251 C515.083,610.251 514.583,610.583 514.25,610.667 C513.917,610.751 513.001,611.167 512.667,611.334 C512.333,611.501 510.5,612.584 510.5,612.584 C510.5,612.584 510,612.334 509.5,612.584 C509,612.834 508.334,613.085 507.917,613.251 C507.5,613.417 504.729,614.251 504.729,614.251 L504,614.834 C504,614.834 504,615.001 503.75,615.251 C503.5,615.501 503.333,615.751 503.083,616.001 C502.833,616.251 501.583,616.667 501.333,616.917 C501.083,617.167 501.001,617.501 500.667,618.001 C500.333,618.501 500.333,618.667 500.083,619.084 C499.833,619.501 499.583,619.751 499.583,620.251 C499.583,620.751 499.333,621.584 499.333,621.584 C499.333,621.584 499.333,622.251 499.083,622.251 C498.833,622.251 498.333,622.5 498.25,622.917 C498.167,623.334 498.333,624.084 498.333,624.334 C498.333,624.584 498.667,624.334 498.667,624.334 L499.25,623.251 C499.25,623.251 499.666,622.917 500.333,622.917 L502,622.917 L502.583,623.167 C502.583,623.167 502.5,624.474 502.5,624.445 C502.5,624.416 502.416,624.667 502.333,624.917 C502.25,625.167 501.917,625.335 501.917,625.751 C501.917,626.167 501.834,627.335 501.917,627.751 L502,628.167 L502,629.584 C502,629.834 501.833,630.334 501.833,630.334 L502,631.25 L501.25,634.125 L500.75,635.375 L499.75,637 C499.75,637 499.5,637.25 499.5,637.75 C499.5,638.25 499.625,638.875 499.5,639.25 C499.375,639.625 499.625,639.75 499.375,640.5 C499.125,641.25 499.125,642.375 499.125,642.75 L499.125,644.625 L498.875,645.75 L497.5,647.25 L496.625,648.625 C496.625,648.625 496.5,648 496,648.625 C495.5,649.25 494.75,649 493.875,649.75 C493,650.5 491.625,651.75 491.625,651.75 C491.625,651.75 491.25,652.125 491,652.5 C490.75,652.875 490.25,653 489.75,653.875 C489.25,654.75 488.625,655.875 488.625,655.875 L487.375,657 C487.375,657 486.75,657.5 486.375,658 C486,658.5 485.125,659.75 485,660.375 C484.875,661 485,661.875 485,662.25 L485,663.25 C485,663.625 485,664.25 484.75,664.625 C484.5,665 484.25,665.5 483.875,666 C483.5,666.5 483.375,666.625 483.25,667.125 L483.125,667.625 L482.5,668.625 L481.75,671.25 C481.75,671.25 481.5,672 480.875,672.375 C480.25,672.75 478.75,673.75 478.75,673.75 L477.875,675.375 L476.25,677 L476,678 L475.5,678.875 C474.75,679.875 473.875,680.25 473.875,680.25 L473.25,681 C473.25,681 473.5,681.125 473,681.625 C472.5,682.125 472,682.75 472,682.75 L471.625,683.5 C471.625,683.5 471.5,683.75 471.25,684.125 C471,684.5 472.375,683.125 471,684.5 C469.625,685.875 468.25,687.25 468.125,687.625 C468,688 467.125,688.25 467,688.625 C466.875,689 465.75,690.125 465.75,690.125 L464.125,690.75 L462.625,691.875 L462.5,692.625 C462.5,692.625 462.75,693.5 462.375,693.75 C462,694 461.5,694.625 461.5,694.625 C461.5,694.625 460.875,693.75 460.375,694.625 C459.875,695.5 460.625,694.5 459.875,695.5 C459.125,696.5 460.125,695.875 459.125,696.5 C458.125,697.125 457.375,697.5 457.375,697.5 L456.375,697.5 L455.625,698.375 C455.625,698.375 455.375,698.875 454.5,699.375 C453.625,699.875 453.125,700 452.75,700.5 C452.375,701 451.875,701.562 451.875,701.562 L451.313,702.062 L450.938,702.437 C450.938,702.437 450.75,702.249 450.376,702.437 C450.002,702.625 450.001,702.749 449.626,702.749 L448.876,702.749 L448.126,702.749 C448.126,702.749 447.688,702.811 447.501,702.749 C447.314,702.687 447.063,702.991 446.689,702.776 C446.315,702.561 445.751,702.499 445.564,702.499 C445.377,702.499 445.814,702.061 445.376,702.499 C444.938,702.937 444.938,703.124 444.751,703.374 C444.564,703.624 444.626,703.624 444.563,704.062 C444.5,704.5 444.688,704.312 444.501,704.812 C444.314,705.312 444.563,705.187 444.251,705.687 C443.939,706.187 444.126,706.125 443.189,706.187 C442.252,706.249 442.189,706.312 441.751,706.187 C441.313,706.062 441.063,705.999 440.813,705.687 C440.563,705.375 440.875,705.125 440.188,704.999 C439.501,704.873 439.188,704.811 438.938,704.874 C438.688,704.937 439.188,704.374 438.688,704.936 C438.188,705.498 438.063,705.686 438.063,705.874 C438.063,706.062 438.251,706.062 437.875,706.686 C437.499,707.31 438,707.311 437.187,707.498 C436.374,707.685 435.812,707.248 435.437,707.498 C435.062,707.748 434.749,707.531 434.312,707.546 C433.875,707.561 433.75,707.811 432.687,707.186 C431.624,706.561 430.812,706.561 430.812,706.561 L430,706.561 C429.813,706.561 428.812,706.686 428.562,706.686 C428.312,706.686 427,706.436 427,706.436 L426,707.186 L425.5,708 C425.5,708 425.438,707.875 425.125,708.312 C424.812,708.749 424.625,708.812 424.313,708.812 C424.001,708.812 424.063,708.187 423.751,708.812 L423.439,709.437 C423.439,709.437 422.877,709.812 422.814,709.437 C422.751,709.062 422.876,708.812 422.752,708.625 C422.628,708.438 422.127,707.625 421.94,707.563 C421.753,707.501 421.252,707.501 421.252,707.501 L420.752,707.501 C420.752,707.501 420.44,707.439 420.064,707.439 C419.688,707.439 420.126,707.314 419.689,707.439 C419.252,707.564 419.377,707.251 419.251,707.564 C419.125,707.877 419.063,708.189 418.626,708.376 C418.189,708.563 418.126,708.564 417.814,708.626 C417.502,708.688 417.376,708.814 417.002,708.876 C416.628,708.938 416.064,708.751 415.69,709.064 C415.316,709.377 415.315,709.376 415.315,709.376 L414.919,710.168 L414.419,711.002 L414.003,712.002 C413.503,712.335 413.003,712.585 413.003,712.585 L411.003,712.585 C411.003,712.585 410.587,712.418 410.253,712.585 C409.919,712.752 409.586,712.002 409.336,712.585 C409.086,713.168 409.253,713.502 409.003,713.585 C408.753,713.668 408.253,713.418 408.003,713.585 C407.753,713.752 407.253,713.168 407.253,713.168 C407.253,713.168 406.586,712.752 406.336,712.752 L406.086,712.752 L405.336,713.085 L404.836,713.252 L404.419,713.615 C404.419,713.615 404.503,712.728 404.003,713.615 C403.503,714.502 403.086,715.085 402.586,715.085 L402.086,715.085 L401.669,715.085 L401.503,716.002 L401.169,716.002 L400.336,717.002 C400.253,717.418 399.503,718.418 399.503,718.418 L399.086,718.418 L397.503,718.418 L396.753,718.418 C396.336,718.418 396.252,718.501 395.919,718.418 C395.586,718.335 395.086,718.001 394.836,717.918 C394.586,717.835 394.503,717.418 394.503,717.418 C394.503,717.418 393.669,716.751 393.336,716.418 C393.003,716.085 393.503,716.502 393.003,716.085 C392.503,715.668 393.003,715.834 392.086,715.668 C391.169,715.502 389.836,715.585 389.836,715.585 L389.753,714.585 C389.753,714.585 390.003,713.752 389.753,713.752 C389.503,713.752 388.419,714.335 388.419,714.335 C388.419,714.335 388.169,715.335 387.919,715.335 C387.669,715.335 387.919,715.918 387.669,715.335 C387.419,714.752 387.337,714.501 387.253,714.168 C387.169,713.835 386.753,712.918 386.753,712.918 L386.336,713.002 L386.169,713.918 L385.836,715.168 L386.003,715.502 C386.003,715.502 385.919,716.086 385.669,716.002 C385.419,715.918 385.919,716.251 385.419,715.918 C384.919,715.585 384.336,714.668 384.336,714.668 L384.003,713.752 L383.669,713.085 L383.253,712.502 L383.253,712.085 L383.586,711.585 L384.003,711.002 L384.253,710.335 C384.419,709.752 384.419,708.418 384.419,708.418 L384.003,708.085 L383.669,707.835 L383.086,707.085 L382.503,705.918 L381.753,705.252 L380.586,704.252 L380.086,703.835 L379.086,702.585 L378.669,702.168 L378.503,701.335 L377.919,699.502 L377.753,698.168 C378.419,697.835 379.503,697.918 379.503,697.918 L380.003,698.752 C380.003,698.752 381.003,699.834 381.253,699.918 C381.503,700.002 382.003,698.668 382.003,698.668 L382.003,697.418 C382.003,697.418 381.753,696.336 381.753,696.002 L381.753,693.418 L380.419,691.668 L379.753,690.252 L378.836,689.252 L377.919,688.418 L377.169,688.002 L376.419,687.252 L375.419,686.252 C375.419,686.252 375.169,685.918 374.919,685.918 C374.669,685.918 373.836,685.252 373.836,685.252 L373.003,684.502 L372.169,683.668 L371.565,682.626 L370.94,681.564 L369.752,680.502 L369.502,679.814 C369.502,679.814 368.564,678.689 368.502,678.502 C368.44,678.315 368.252,678.064 368.19,677.814 C368.128,677.564 367.94,676.564 367.94,676.564 L367.752,675.814 L366.564,673.939 L366.126,672.877 L365.501,671.689 L365.001,670.314 L364.626,669.626 L363.814,668.501 L363,667.625 L361.688,666.563 L361.063,665.501 L360.375,664.501 L359.875,663.251 L359.625,662.876 C359.625,662.876 358.5,661.814 358.25,661.688 C358,661.562 357.688,661.126 357.5,661 C357.312,660.874 356.875,660.438 356.688,660.188 C356.501,659.938 356,659.25 356,659.25 L355.438,658.562 L355,658 L354,657.312 L353.25,656.5 L351.312,654.875 L351,654.438 L350,653.313 L349.562,652.188 L349.187,651.188 L349,650.125 L348.188,648.437 L347.438,646.749 L347,645.749 L346.812,645.061 L346.437,644.249 L346.125,643.124 L345.583,642.436 L345,641.812 C345,641.812 344.812,641.5 344.562,641.312 C344.312,641.124 344,640.812 344,640.812 L343.625,640.25 L343.25,639.375 C343.25,639.375 343.375,638.625 343.25,638.437 C343.125,638.249 342.938,637.562 342.938,637.562 L342.938,636.687 L342.438,635.875 C342.438,635.875 342.5,635.375 342.438,635.187 C342.376,634.999 342.438,633.875 342.438,633.875 L342.41,633.313 L341.688,632.313 L341.688,631.251 L341.532,630.72 C341.532,630.72 341.626,630.564 341.532,630.47 C341.438,630.376 341.344,629.908 341.251,629.876 C341.158,629.844 341.126,629.501 341.063,629.407 C341,629.313 340.907,629.063 340.813,628.969 C340.719,628.875 340.375,628.375 340.344,628.281 C340.313,628.187 340.344,627.843 340.344,627.843 L340.188,627.562 L339.938,627.031 L339.719,626.687 L339.469,626.187 L339.157,625.781 L338.969,625.469 L338.594,624.875 C338.594,624.875 338.313,624.563 338.313,624.469 C338.313,624.375 338.094,623.688 338.094,623.688 L337.813,623.469 L337.125,623.281 C337.125,623.281 336.969,622.937 336.937,622.812 C336.905,622.687 336.937,622.093 336.937,622.093 L336.923,621.281 C336.923,621.281 336.718,621.125 336.718,621 L336.718,620.281 C336.718,620.281 336.593,619.969 336.437,619.781 C336.281,619.593 336.281,619.469 336.187,619.219 C336.093,618.969 335.968,618.719 335.968,618.5 L335.968,617.812 C335.968,617.812 336.062,617.562 335.968,617.437 C335.874,617.312 335.968,616.625 335.968,616.625 L335.687,616.156 C335.687,616.156 335.281,615.656 335.218,615.5 C335.155,615.344 335.03,615.031 335.03,615.031 L335.03,614.156 C335.03,614.062 334.999,613.937 335.03,613.781 C335.061,613.625 335.405,612.843 335.436,612.75 C335.467,612.657 335.53,612.406 335.53,612.406 L335.811,612.25 L336.03,612.188 L337.124,612.063 L337.436,611.938 C337.436,611.938 337.967,611.594 338.061,611.532 C338.155,611.47 338.217,610.907 338.217,610.813 C338.217,610.719 337.967,609.844 337.967,609.844 L337.748,609.75 L337.248,609.25 L336.904,609.219 C336.904,609.219 336.56,609.157 336.466,609.094 C336.372,609.031 335.935,608.313 335.935,608.313 L335.904,608.125 L335.56,607.5 C335.56,607.5 335.279,607.125 335.279,607.031 C335.279,606.937 335.015,606.562 335.015,606.562 L335.015,606.156 L334.404,605.344 C334.404,605.344 334.216,605.032 334.092,604.813 C333.968,604.594 333.717,604.125 333.717,604.125 L333.405,603.813 L332.749,603.407 L332.343,603.095 L332.093,602.845 L331.249,602.157 L331.249,601.969 L331.03,601.657 C331.03,601.657 330.499,601.095 330.311,601.001 C330.123,600.907 329.686,600.439 329.686,600.439 C329.686,600.439 329.498,600.127 329.405,600.064 C329.312,600.001 328.967,599.376 328.967,599.376 L328.467,598.751 L328.186,598.189 L327.717,597.627 L327.217,597.158 C327.217,597.158 326.998,596.752 326.967,596.658 C326.936,596.564 326.498,595.814 326.498,595.814 L326.154,595.564 L325.498,595.095 L324.967,594.657 C324.967,594.657 325.092,594.595 324.967,594.501 C324.842,594.407 324.248,593.751 324.248,593.751 L324.06,593.626 L323.529,592.657 L323.529,592.376 L323.217,591.938 L322.905,591.407 L322.905,591.251 L322.749,590.939 L322.468,590.408 L322.062,589.689 L321.656,589.127 L321.218,588.189 L320.249,587.168 L319.332,586.085 L319.332,585.585 L318.749,584.918 L318.249,584.168 L317.749,583.418 L317.332,582.585 L317.332,582.168 C317.332,582.168 316.832,581.586 316.499,581.252 C316.166,580.918 315.582,580.085 315.582,580.085 L314.915,579.585 C314.915,579.585 313.749,578.085 313.582,577.835 C313.415,577.585 312.665,576.502 312.665,576.502 C312.665,576.502 312.248,575.835 312.248,575.585 C312.248,575.335 311.665,574.252 311.665,574.252 C311.665,574.252 311.332,573.669 310.998,573.502 C310.664,573.335 309.998,572.835 309.998,572.835 C309.998,572.835 309.831,572.668 309.581,572.585 C309.331,572.502 307.914,571.502 307.664,571.502 C307.414,571.502 306.331,571.168 306.331,571.168 L305.831,571.168 L304.831,571.418 C304.831,571.418 304.581,571.752 304.081,571.835 C303.581,571.918 303.664,572.002 302.998,572.002 C302.332,572.002 301.998,571.502 301.998,571.502 L301.998,570.835 L302.665,569.502 L302.665,567.502 L302.665,566.502 L302,565.667 L302,564.167 L302,562.501 L300.5,560.167 L300.5,556.834 L300.5,556.334 L299.167,555.334 L298.5,554.167 L298.5,553.167 L298.5,552.667 L299.167,550.667 L300,550.001 L300.833,549.334 L301.166,548.334 L300.999,546.834 L300.999,544.167 C300.999,544.167 301.166,542.501 300.999,541.834 C300.832,541.167 301.166,539.667 301.166,539.667 L301.999,538.667 C301.999,538.667 302.332,538.334 302.332,537.834 C302.332,537.334 301.332,533.834 301.332,533.834 C301.332,533.834 301.332,534.167 301.332,533.167 L301.332,530.001 L301.332,529.167 L301.332,527.167 L302.165,526.834 L302.498,525.834 L301.998,523.001 L301.165,521.501 L301.498,520.584 L301.498,519.751 L302.415,518.501 L302.998,518.084 L303.498,517.334 C303.498,517.334 303.831,516.834 303.998,516.584 C304.165,516.334 304.498,515.751 304.498,515.751 L304.665,514.834 C304.665,514.834 304.748,514.251 304.748,514.001 C304.748,513.751 304.831,513.001 304.831,513.001 C304.831,513.001 305.081,512.417 305.164,512.167 C305.247,511.917 305.748,511.418 306.081,511.251 C306.414,511.084 306.998,510.501 306.998,510.501 C306.998,510.501 307.248,510.167 307.581,509.917 C307.914,509.667 308.914,508.667 308.914,508.667 L309.831,508.167 L310.748,506.834 L310.831,506.417 L310.998,505.417 L311.248,504.501 L311.248,503.917 L311.248,502.751 L311.665,501.501 L311.832,500.751 L311.832,500.167 C311.832,500.167 311.665,500.001 311.665,499.751 C311.665,499.501 310.998,497.751 310.998,497.751 L310.748,496.084 L310.915,491.667 L310.915,491.167 L310.332,489.917 C310.332,489.917 309.832,489.334 309.665,489.084 C309.498,488.834 309.665,488.668 309.248,488.001 C308.831,487.334 308.998,488.001 308.831,487.334 C308.664,486.667 308.164,486.167 307.998,485.584 C307.832,485.001 307.248,484.001 307.165,483.751 C307.082,483.501 306.915,483.5 306.665,483.167 C306.415,482.834 305.998,482.417 305.998,482.417 C305.998,482.417 305.415,482.084 305.331,481.834 C305.247,481.584 305.081,481.417 304.831,481.167 C304.581,480.917 303.914,480.417 303.914,480.417 C303.914,480.417 303.831,480.25 303.581,479.917 C303.331,479.584 302.748,477.834 302.748,477.834 C302.748,477.834 302.665,477.501 302.581,477.251 C302.497,477.001 301.998,476.334 301.831,476.084 C301.664,475.834 301.081,475.417 301.081,475.417 C301.081,475.417 300.747,474.667 300.664,474.417 C300.581,474.167 300.081,473.501 300.081,473.501 C300.081,473.501 299.164,472.583 298.914,472.417 C298.664,472.251 298.497,471.667 298.497,471.667 L297.664,470.834 L297.188,470 L297.188,469.438 C297.188,469.438 297.063,468.75 297.188,468.563 C297.313,468.376 297.132,467.563 297.132,467.563 L297.813,466.688 C297.813,466.688 298.188,466 298.563,465.75 C298.938,465.5 299.251,465.25 299.438,465.062 C299.625,464.874 300.5,464.437 300.5,464.437 C301,463.687 301.188,462.749 301.188,462.749 L301.188,462.374 L301.188,461.624 C301.188,461.624 300.876,460.999 300.75,460.686 C300.624,460.373 300.25,459.374 300.25,459.374 L299.312,458.436 C298.812,458.061 298.25,457.311 298.25,457.311 L297.75,456.999 L297.132,455.937 L296.25,455.249 C296.25,455.249 295.438,454.061 295.438,453.874 C295.438,453.687 294.875,453 294.875,453 L294.563,452.5 L294.125,451.438 C294.125,451.438 293.937,451.063 293.813,450.876 C293.689,450.689 293.688,450.688 293.688,450.688 L293.063,449.688 L293.063,449.25 L292.251,448.125 C292.251,448.125 291.813,447.937 291.813,447.75 C291.813,447.563 291.375,447.062 291.375,447.062 L290.562,446 L290.187,445.312 L289.375,444.437 L289,443.937 C289,443.937 289.375,443.375 289,443.062 C288.625,442.749 288.312,442.374 288.312,442.374 L287.812,441.874 L286.687,441.436 L285.625,440.936 C285.625,440.936 285.875,440.748 285.625,440.624 C285.375,440.5 284.687,440.374 284.687,440.374 L283.499,440.312 C283.499,440.312 283.561,440.5 283.061,440.312 C282.561,440.124 281.749,439.75 281.749,439.75 C281.749,439.75 281.061,439.562 280.937,439.375 C280.813,439.188 281.375,438.813 280.937,438.625 C280.499,438.437 280.187,437.25 280.187,437.25 C280.187,437.25 280.375,436.688 280.562,436.688 C280.749,436.688 281.374,436.563 281.374,436.563 L281.936,436.251 L282.311,435.439 C282.311,435.439 282.436,434.939 282.311,434.751 L282.186,434.563 C282.186,434.563 281.811,434.251 281.624,434.063 C281.437,433.875 280.999,433.063 280.999,433.063 L280.624,432.563 L280.186,431.313 L279.748,431.063 L278.998,429.938 C278.998,429.938 278.373,430.188 278.186,429.876 C277.999,429.564 277.561,428.814 277.498,428.626 C277.435,428.438 277.498,428.251 277.498,428.251 L276.623,427.376 C276.623,427.376 276.435,427.126 276.248,426.938 C276.061,426.75 275.373,425.626 275.248,425.438 C275.123,425.25 274.81,424.813 274.81,424.813 L274.31,424.563 L273.81,423.938 L273.31,423.313 L272.622,422.688 C272.622,422.688 271.997,422.063 271.747,422 C271.497,421.937 270.309,420.938 270.309,420.938 C270.309,420.938 270.247,420.688 269.934,420.626 C269.621,420.564 268.559,420.064 268.559,420.064 L267.83,419.252 L267.33,418.752 L266.247,416.836 L266.247,416.336 C266.247,416.336 265.664,415.336 265.414,415.169 C265.164,415.002 264.331,414.836 264.331,414.836 L263.414,414.419 C263.414,414.419 263.497,414.585 262.831,414.002 C262.165,413.419 261.664,412.669 261.664,412.669 L260.914,412.252 L260.164,411.752 C260.164,411.752 259.664,411.253 259.331,411.086 C258.998,410.919 258.164,410.419 258.164,410.419 L257.414,410.002 L257.414,409.419 L256.247,407.919 L255.83,407.586 L255.83,407.169 C255.83,407.169 256.33,407.003 256.913,406.836 C257.496,406.669 257.996,406.336 257.996,406.336 C257.996,406.336 258.496,406.086 258.246,405.919 C257.996,405.752 257.413,405.502 257.413,405.502 L257,405.917 C257,405.917 256.75,406.334 256.417,406.417 C256.084,406.5 255.834,406.5 255.834,406.5 L254.834,406.5 C254.834,406.5 254.917,406.416 254.501,406.25 C254.085,406.084 254.084,406.084 254.084,406.084 L253.417,405.75 L252.667,405.5 L252.084,405 C252.084,405 252.501,404.916 252.084,404.5 C251.667,404.084 251.334,403.417 251.334,403.417 C251.334,403.417 250.751,403.083 250.501,403 L250.251,402.917 C250.251,402.917 249.835,402.168 249.418,402.084 C249.001,402 249.001,403.418 248.418,401.584 L247.835,399.75 L247.835,398.5 L247.835,398 L246.918,396.584 L246.501,396.417 L245.584,395.834 L244.917,394.75 L244.5,394.084 C244.5,394.084 243.917,393.834 243.667,393.417 C243.417,393 242.417,391.334 242.417,391.334 L242.417,390.917 C242.417,390.917 240.833,388.667 240.75,388.417 C240.667,388.167 240.25,388.334 240.667,388.167 C241.084,388 242.084,388.084 242.084,388.084 C242.084,388.084 242.417,388.25 242.751,388.5 C243.085,388.75 243.418,388.917 243.584,389.167 C243.75,389.417 244.167,389.75 244.501,389.75 C244.835,389.75 245.168,389.75 245.418,389.667 C245.668,389.584 246.085,389.084 246.085,389.084 C246.085,389.084 246.335,388.667 246.668,388.417 C247.001,388.167 247.585,387.75 247.585,387.75 L248.502,386.584 C248.502,386.584 248.585,386.5 248.585,386.25 C248.585,386 249.002,385.084 249.002,385.084 C249.002,385.084 248.669,384.584 248.502,384.334 L248.335,384.084 C248.335,384.084 248.252,383.667 248.168,383.417 C248.084,383.167 247.751,382.25 247.751,382.25 L247.418,381.25 C247.418,381.25 247.501,380.833 247.418,380.5 C247.335,380.167 247.251,379.334 247.251,379.334 L247.251,378.834 C247.251,378.834 247.251,378.667 247.584,378.667 C247.917,378.667 248.834,380.144 248.834,380.144 C248.834,380.144 249.167,379.704 249.501,380.144 C249.835,380.584 250.418,381.084 250.418,381.084 C250.418,381.084 251.501,381.5 251.751,381.75 C252.001,382 252.918,381.834 252.918,381.834 C252.918,381.834 252.834,381.25 252.501,381.167 C252.168,381.084 252.168,380.75 251.834,380.667 C251.5,380.584 251.084,380.203 250.751,380.144 C250.418,380.085 250.084,379.584 250.084,379.584 L249.417,378.917 L248.667,377.667 L248.5,376.25 C248.5,376.25 248.667,376 248.917,376 C249.167,376 249.417,376.25 249.75,376.417 C250.083,376.584 251,376.667 251,376.667 C250.667,376.167 249.667,374.834 249.667,374.834 L249.667,374.417 L249.75,373.5 L250.167,372.917 L249.167,372.25 C249.167,372.25 249,372 248.667,372 C248.334,372 247.917,371.667 247.917,371.667 L246.834,371.334 L246.751,370.5 C246.751,370.5 248.085,369.5 248.168,369.25 C248.251,369 248.585,368.751 248.668,368.334 C248.751,367.917 249.085,368.083 249.085,367.75 C249.085,367.417 249.668,366 249.668,366 C249.668,366 250.251,365.583 250.001,365.25 C249.751,364.917 249.751,364.583 249.751,364.583 C249.751,364.583 249.501,364.083 249.251,364.083 C249.001,364.083 248.418,364.166 248.168,364.166 C247.918,364.166 247.251,364.249 246.668,364.249 C246.085,364.249 245.835,363.832 245.835,363.832 L245.252,363.082 C245.252,363.082 244.836,362.582 244.669,362.249 C244.502,361.916 244.669,361.499 244.669,361.499 C244.669,361.499 245.419,360.499 245.502,360.249 C245.585,359.999 246.335,359.166 246.335,359.166 L247.085,358.499 L247.752,357.499 C247.752,357.499 248.085,357.166 248.335,357.166 C248.585,357.166 249.502,357.083 250.085,357.083 L250.668,357.083 L251.501,356.333 L251.418,355.416 L251.335,354.083 L251.418,352.5 C251.418,352.5 251.335,352.167 251.418,351.75 C251.501,351.333 252.085,351 252.085,351 C252.085,351 252.585,351.083 252.668,350.833 C252.751,350.583 253.001,350.333 252.835,350.083 C252.669,349.833 252.085,349.083 252.085,349.083 L251.668,348.666 L251.168,348.083 C251.168,348.083 251.001,347.833 250.751,347.75 C250.501,347.667 250.084,347.5 250.001,347.167 C249.918,346.834 249.834,345.917 249.834,345.917 L249.834,345.334 C249.834,345.334 249.334,344.417 249.084,344.417 C248.834,344.417 248.501,344.25 248.501,344.25 C248.501,344.25 248.251,343.25 248.251,342.917 C248.251,342.584 248.918,340.917 248.918,340.917 C248.918,340.917 250.251,341 250.418,340.75 L250.585,340.5 C250.585,340.5 250.168,339.417 249.918,339.417 L248.918,339.417 L248.168,339.667 L248.085,340.084 C248.085,340.084 248.085,340.501 248.002,340.751 C247.919,341.001 247.419,341.251 247.419,341.251 L247.086,341.751 L246.503,341.918 C245.586,342.168 244.67,341.335 244.67,341.335 L243.753,340.918 C243.753,340.918 243.17,340.834 242.836,340.751 C242.502,340.668 241.253,339.834 241.253,339.834 C241.253,339.834 240.639,339.667 240.488,339.584 C240.337,339.501 240,339.5 240,339.5 L237.667,339.5 L237.167,339.5 C236.917,339.5 236.667,339.417 236.167,339.417 C235.667,339.417 234.834,339.334 234.417,339.334 L234,339.334 C234,339.334 233.417,339.167 233.333,339.417 C233.249,339.667 233.25,339.667 233.25,339.667 L233.25,340.167 L232.812,340.75 C232.812,340.75 233.312,341.312 232.812,341.312 C232.312,341.312 231.437,341.062 231.437,341.062 C231.437,341.062 231.249,340.937 231.062,340.937 C230.875,340.937 230,340.562 230,340.562 C229.875,340.187 230,339.062 230,339.062 L230.375,338.624 L230.375,337.686 L230.375,337.436 C230.375,337.436 229.826,336.686 229.944,336.498 C230.062,336.31 229.927,335.186 229.927,335.186 L229.312,334.436 C229.312,334.436 228.25,334.624 228.25,334.811 L228.25,335.499 C228.25,335.499 228.812,336.311 228.812,336.499 L228.812,336.687 L229,337.375 L229.125,338.125 L229.125,338.563 L228.937,338.938 L229.062,339.75 L228.687,340 L227.875,340 L227.313,340 L227,339.438 C227,339.438 227.125,338.438 227,338.188 C226.875,337.938 227.125,337.563 227,337.313 C226.875,337.063 226.964,335.938 226.964,335.938 L226.933,335.5 L226.933,334.812 C226.933,334.812 226.562,335.25 226.5,335.437 C226.438,335.624 226.25,336.312 226.188,336.562 C226.126,336.812 226.25,337.062 226.188,337.25 C226.126,337.438 226.17,338.188 226.17,338.188 L226.155,339.063 C226.155,339.063 226.438,339.251 226.438,339.438 C226.438,339.625 226.813,339.876 226.813,339.876 C226.813,339.876 227.001,340.064 226.813,340.188 C226.625,340.312 226.155,340.5 226.155,340.5 L225.438,340.625 C225.438,340.625 225.25,340.437 224.938,340.437 C224.626,340.437 224.188,340.499 224.188,340.499 C224.188,340.499 224.126,340.499 223.688,340.561 C223.25,340.623 222.938,340.686 222.938,340.686 C222.938,340.686 222.25,341 222,340.875 C221.75,340.75 222,339.875 222,339.875 L220.812,340 L220.812,340.688 C220.812,340.688 220.624,341 220.25,340.813 C219.876,340.626 220.375,340.938 219.875,340.625 C219.375,340.312 218.875,340.063 218.5,339.937 C218.125,339.811 217.938,339.562 217.75,339.437 C217.562,339.312 217.688,339.125 217.438,338.999 C217.188,338.873 216.938,339.061 216.563,338.561 C216.188,338.061 216.125,337.811 215.875,337.311 C215.625,336.811 215.437,336.186 215.437,336.186 L214.499,335.248 C214.499,335.248 214.687,334.748 214.499,334.373 C214.311,333.998 213.811,332.935 213.687,332.748 C213.563,332.561 213.999,332.373 213.687,332.06 C213.375,331.747 213.499,331.622 213.312,331.185 C213.125,330.748 213.624,330.623 213.312,330.435 C213,330.247 212.874,329.873 212.874,329.623 L212.874,328.811 L212.874,327.749 L212.874,327.374 C212.874,327.374 213.062,326.999 212.874,326.812 C212.686,326.625 212.874,326.062 212.874,326.062 L212.791,325.5 C212.791,325.5 212.874,325.5 213.249,325.312 C213.624,325.124 213.999,325.062 214.311,324.812 C214.623,324.562 215.186,324.062 215.186,324.062 L215.186,323.5 L214.748,323.5 C214.748,323.5 215.06,323.5 214.436,323.688 C213.812,323.876 213.061,324.063 213.061,324.063 L212.5,324.5 C212.5,324.5 213,324.688 212.5,324.812 C212,324.936 212,324.937 212,324.937 L211.688,324.375 L211.688,323.25 L211.313,323.062 L210.875,322.75 C210.875,322.75 211.25,322.25 211.687,322.125 C212.124,322 212.437,322 212.687,321.875 C212.937,321.75 213.375,321.187 213.375,321.187 L213.437,320.875 L212.937,320.875 L212.499,321.187 L211.624,321.375 C211.624,321.375 211.124,321.687 210.874,321.687 L210.624,321.687 C210.624,321.687 210.124,321.437 209.999,321.249 C209.874,321.061 209.937,321.249 209.687,320.499 L209.437,319.749 L211.249,318.749 L211.499,317.999 L210.749,318.374 C210.749,318.374 210.437,318.624 210.249,318.624 C210.061,318.624 209.437,318.812 209.437,318.812 L208.312,319.062 L207.75,318.124 L207,317.25 L207,316.25 C207,316.25 206.5,316.125 206.375,315.75 C206.25,315.375 206.375,314.75 206.375,314.75 L205.25,313.875 C205.25,313.875 205.125,313.75 204.625,313.375 C204.125,313 203.625,312.375 203.125,312.125 C202.625,311.875 201.5,311.625 201.5,311.625 L200.75,310.875 C200.75,310.875 200.5,310.75 200.125,310.75 L198.625,310.75 L197.625,310.75 C197.625,310.75 196.25,310.75 195.875,310.5 C195.5,310.25 195,309.375 195,309.375 L195,308.375 C195,308.375 195.75,308.375 196.125,308.25 L196.5,308.125 C196.5,308.125 196.25,307 195.875,307 C195.5,307 194.25,307.25 193.875,307.375 C193.5,307.5 193.875,306.75 193.5,307.5 L193.125,308.25 L193.75,309.25 C193.75,309.25 194.25,310 193.75,310 C193.25,310 193,309.625 192.5,309.625 L190.75,309.625 L189.125,309.625 L187.375,309.625 L185.875,309.625 L185.875,309.125 L184.625,309.125 L181.875,309.25 C181.875,309.25 181.125,309.5 180.625,309.25 C180.125,309 179.75,308.875 179.125,308.75 C178.5,308.625 177.75,308.625 177.75,308.625 L175.875,308.625 L174.5,308.625 L174,308.625 L172.375,308.75 L172.375,308.125 L173.375,306 L173.375,305.125 L172.375,304.625 L172.375,304.125 L171.125,303.5 L169.625,302.875 C169.625,302.875 169.5,302.75 168.625,302.875 C167.75,303 166.375,303.125 166.375,303.125 L165.75,303.875 L165.125,305.25 C165.125,305.25 164.625,306.125 164.5,306.5 L164.375,306.875 L162.125,306.875 L160.625,306.625 C160.625,306.625 159,307 158.625,306.625 L157.5,305.5 L156.875,304.75 C156,304.75 154.75,305.375 154.75,305.375 L153.75,306.25 L152.375,306.875 L151,307 L150,307 C150,307 149.125,306.625 148.375,307 C147.625,307.375 147.25,307.375 146.625,308 C146,308.625 144.75,308.625 144.75,308.625 C144,308.625 143.875,308.5 143,308.5 C142.125,308.5 143,308.5 142.125,308.5 C141.25,308.5 139.75,308.375 139.75,308.75 L139.75,309.75 C138.875,310 139.875,310.125 138.875,310 C137.875,309.875 136.5,309.375 136,309.375 L134.75,309.375 L134.75,310.125 L133.625,311 L132.125,311.625 C132.125,311.625 134.125,312 132.125,312 L130.125,312 C130.125,312 129.5,311 129.25,310.625 C129,310.25 129,309.25 128,309.25 L127,309.25 C127,309.25 126.375,309.125 126,309 C125.625,308.875 124.875,308.375 124.875,308.375 C124.875,308.375 125.875,308.25 124.875,308 L123.875,307.75 L123.25,306.875 C123.25,306.875 123,306.75 123.25,306.25 C123.5,305.75 124.375,305.75 123.5,305.75 C122.625,305.75 121.875,306.25 121.875,306.25 L121.875,306.625 L120.5,305.75 C120.5,305.75 120,305.875 119.125,305.375 L118.25,304.875 C118.25,304.875 118.125,305 118.875,304.125 C119.625,303.25 120.375,302.75 120.375,302.75 C120.375,302.75 121.375,301.125 119.875,302 C118.375,302.875 117.375,303.625 117.375,303.625 L116.25,304.375 L115.125,304.375 C115.125,304.375 115.625,304.125 115.125,303.5 L114.625,302.875 C114.625,302.875 114.625,301.875 113.625,301.875 L111.75,301.875 L111.75,302.75 L110.25,303 L108.375,302.875 L106.875,302.375 C105.625,301.875 104.875,301.5 104.875,301.5 L104.25,301.5 L103.625,302 C102.625,302.25 100.875,300.875 100.875,300.875 C100.875,300.875 100.375,300.875 99.625,301.25 C98.875,301.625 97,301.75 96.375,301.5 C95.75,301.25 95.125,301.25 95.125,301.25 C95.125,301.25 94.875,301 94.125,301.25 C93.375,301.5 91.875,301.5 91.5,301.5 C91.125,301.5 90.625,301.375 90.125,301.5 C89.625,301.625 88.875,301.875 88.875,301.875 C87.875,302.125 86.875,302.125 86.875,302.125 L84.75,302.375 C84.75,302.375 84.875,302.5 84.125,302.625 C83.375,302.75 80.25,302.875 79.125,302.875 L78,302.875 L78,303.5 C78,303.5 77.375,304 76.5,304.25 C75.625,304.5 75.5,304.75 74.875,304.875 C74.25,305 73.25,304.75 73.25,304.75 L73.25,304.125 C73.25,304.125 72.625,303.625 72,303.375 C71.375,303.125 70.25,302.5 69.875,302.375 C69.5,302.25 70.5,303.125 69.5,302.25 C68.5,301.375 68.25,300.75 67.875,300.75 C67.5,300.75 68.375,301.375 67.5,300.75 C66.625,300.125 65.625,298.875 65.25,298.625 C64.875,298.375 64.625,298.25 64.25,298 C63.875,297.75 63.375,297.25 63.25,296.875 C63.125,296.5 62,295.625 61.625,295.375 C61.25,295.125 60.875,295 60.5,294.625 C60.125,294.25 60.625,294.875 60.125,294.25 C59.625,293.625 57.375,292.25 57.375,292.25 C57.375,292.25 57.875,292.125 57.375,291.75 C56.875,291.375 56.75,291.75 56.25,290.75 C55.75,289.75 55.125,289.25 55,288.5 C54.875,287.75 54.375,286.25 54.375,286.25 L53.125,284.625 L51.625,282.875 L50.75,282.125 C50.75,282.125 48.5,281.125 48.125,280.75 C47.75,280.375 47.125,279.125 47.125,279.125 L47.125,277.75 C47.125,277.75 48.25,277.875 46.5,276.5 C44.75,275.125 44.125,275.125 44.125,275.125 L42.75,273.75 C42.75,273.75 43.125,273.75 42.75,273.375 C42.375,273 42.625,273.125 42,272.375 C41.375,271.625 41.375,270.75 41.375,270.75 L40,270.375 L39,270 C39,270 38,269.375 37.625,269.125 C37.25,268.875 36.375,268.5 36.375,268.5 C36.375,268.5 36.125,268.375 35.625,267.75 C35.125,267.125 34.375,266.5 34.375,266.5 L33.5,265.625 L31.875,264.125 L29.625,263.25 C29.625,263.25 29.5,263 29,262.5 C28.5,262 27.125,260.125 26.625,259.625 C26.125,259.125 27.875,259 27.875,259 C28.875,258.625 29.125,258 29.25,257.625 L29.375,257.25 C29.375,257.25 29.625,256.25 29.125,256.25 L27.875,256.25 L26.535,255.875 L26.535,252.375 L27.875,251.875 L28.875,251.875 C29.375,251.875 29.75,252 30.625,251.875 L31.5,251.75 C31.5,251.75 32.375,250.625 31.625,250.625 L30.875,250.625 L29.375,250.625 C29.25,250 29.125,249.25 29.125,249.25 L28.875,247 L28.375,245.375 L27.125,242.625 C27.125,242.625 27.195,243.125 26.535,242.125 C25.875,241.125 26,241.75 25.875,241.125 C25.75,240.5 25.875,239.375 25.875,239.375 C25.875,239.375 25.889,239.25 25.819,238.875 C25.749,238.5 24.75,238.25 24.5,237.875 C24.25,237.5 23.75,237 23.5,236.625 C23.25,236.25 23.25,236.125 22.625,235.625 C22,235.125 20.75,234.125 20.375,233.75 C20,233.375 19.875,233 19.5,232.625 C19.125,232.25 18.875,231.375 18.875,231.375 C18.875,231.375 18.75,231.375 18.875,230.75 C19,230.125 18.389,230 18.819,229.625 C19.249,229.25 18.625,229.375 19.25,229.25 C19.875,229.125 20.375,229.5 20.5,229.125 C20.625,228.75 20,228 20,228 L19.417,228 C19.417,228 18.583,227.917 18.25,227.917 L17.917,227.917 C17.917,227.917 17.75,227.833 17.584,227.5 C17.418,227.167 17.584,226.5 17.584,226.5 L17.167,225.833 C17.167,225.833 17.667,225.333 17.167,225.333 C16.667,225.333 16.5,225.333 16.334,225.583 C16.168,225.833 16.167,225.833 16.167,225.833 C16.167,225.833 15.917,226.333 15.584,226.333 C15.251,226.333 14.584,225.833 14.584,225.833 L14.584,225.5 L13.834,224.833 L13.251,224.416 L13.251,223.666 L12.334,222.666 L12.001,222.166 L12.001,221.916 L10.834,221.749 L10.334,221.916 L9.917,222.666 L9.917,223.083 L8.917,223.5 C8.917,223.5 8.833,223.833 8.5,223.5 C8.167,223.167 7.75,221.833 7.75,221.833 C7.75,221.833 7.667,221.75 7.333,221.75 L6.5,221.75 L5.667,221.75 L4.584,221.75 L4.167,221.583 L3.417,221 L3.417,220.083 L3.417,219.416 L2.833,219 C2.833,219 2.583,218.917 2.25,218.833 C1.917,218.749 1.333,218 1.333,218 L1.333,217.333 L1.916,215.666 L2.916,215.249 L3.583,213.999 L4.166,213.749 C4.166,213.749 6.582,213.583 6.749,213.916 C6.916,214.249 6.916,214.499 7.249,214.749 C7.582,214.999 8.332,215.416 8.582,215.249 C8.832,215.082 8.832,214.082 8.832,214.082 L7.915,213.165 C7.665,212.915 6.332,211.665 6.082,211.665 L5.832,211.665 L5.082,211.082 L4.749,210.415 L4.249,208.915 C4.249,208.915 4.082,208.665 3.832,208.582 C3.582,208.499 3.165,208.415 3.165,208.415 C3.165,208.415 2.415,208.248 2.332,207.998 C2.249,207.748 1.999,206.248 1.832,205.998 L1.665,205.748 L2.332,203.665 L2.415,202.832 L3.082,201.749 C3.082,201.749 3.249,200.499 3.582,200.249 C3.915,199.999 3.749,200.082 4.332,198.999 C4.915,197.916 5.165,197.499 5.165,197.499 L6.623,196.749 C7.623,197.124 9.998,198.374 9.998,198.374 L11.498,198.374 L12.123,198.249 L15.373,198.249 L16.498,198.249 C16.498,198.249 17.498,198.499 17.873,198.249 C18.248,197.999 19.623,197.624 19.623,197.624 L22,197.624 L23,199.499 C23,199.499 23.125,199.499 24,200.249 C24.875,200.999 25.625,201.374 25.625,201.374 L26.875,201.874 C27.5,202.124 29.25,202.499 29.25,202.499 L30.125,202.499 C30.75,202.499 30,202.499 30.75,202.499 C31.5,202.499 32.25,202.374 32.25,202.374 L31.25,201.749 C31.25,201.749 29,202.124 27.375,201.124 L25.75,200.124 C25.75,200.124 25.875,199.624 25.375,198.999 C24.875,198.374 24.25,197.749 24.25,197.749 L23.375,196.749 L22.5,196.624 L21.625,196.374 L20.875,196.374 L19.25,196.374 C18.75,196.374 18.625,196.624 18,196.624 C17.375,196.624 16.625,196.749 16.25,196.874 C15.875,196.999 14.875,197 14.875,197 L13.75,197 L12.5,196.75 C12.5,196.75 11.625,196.25 11.25,196.25 L10.875,196.25 L9.625,195.875 C9.625,195.875 9.25,194.875 8.75,194.875 L7.625,194.875 L6.875,194.75 L7.5,192.875 L6.75,192.25 C6.75,192.25 6.625,191.25 6.625,190.625 C6.625,190 6.75,189.375 6.75,189.375 C6.75,189.375 8,190.25 6.5,188.25 L5,186.25 L3.875,184.125 L2.75,183.25 L1.875,182.75 L0.5,182 L0.5,181 C0.5,180.625 0.875,179 1.375,179 C1.875,179 2.875,179.125 3.875,179.5 C4.875,179.875 6,180.5 6,180.5 L7.125,180 L7.375,178.25 L8.875,176.75 L11.5,175.125 L11.875,174.5 L12.5,172.875 L13.75,170.875 C13.75,170.875 13.5,171.125 14,170.125 C14.5,169.125 14.625,168.375 15.125,167.5 L15.625,166.625 L17.625,165 C17.625,165 18.875,163.125 19,162.75 C19.125,162.375 20.75,160.25 20.75,160.25 C20.75,160.25 21.25,159.5 21.75,159.125 C22.25,158.75 23.5,157 23.5,157 L23.875,154.375 L24.5,153 L24.875,151.625 L24.875,148.625 C24.875,148.625 25,147.5 25,146.625 L25,144.375 C25,143.75 24.875,143 24.875,143 L22.875,141.5 L21.5,140.75 L21.5,139.75 L23.125,138.25 L23.875,137.75 L23.375,136.125 L23.875,135.25 C23.875,135.25 24.875,135.5 25.25,135.5 C25.625,135.5 26.375,136.75 26.875,135.5 L27.375,134.25 L27.25,132.5 L26.25,130.75 C26.25,130.75 26.375,130.375 26.25,130 C26.125,129.625 25,128.375 25,128.375 L23.875,127.625 L23.125,125.5 C23.125,125.5 23.25,124.25 22.75,123.75 L20.25,121.25 L21.375,119.75 L22,119.125 L23.625,117.25 L24.375,116.25 C24.375,116.25 25.125,115.375 25.5,115.25 C25.875,115.125 26.625,114.75 26.625,114.75 C26.625,114.75 27.125,113.875 27.625,113.875 C28.125,113.875 30.25,113.625 30.25,113.625 L30.625,112.625 L30.75,110.75 C30.75,110.75 31.625,108.25 32,108 C32.375,107.75 32.75,107 33,106.5 C33.25,106 33.5,104.875 33.5,104.875 L33.125,104 C33.125,104 32.75,103.125 33.25,102.75 C33.75,102.375 35,101 35,101 L35.625,100.75 L37.25,99.875 C37.25,99.875 38,99.75 38.625,99.5 C39.25,99.25 40.25,99.125 40.25,99.125 L41.625,98 L44.375,96.625 L44.5,95.25 L44.5,93.25 L44.25,90.75 C44.25,90.75 44.25,89.5 44.625,89.375 C45,89.25 45.875,87.25 45.875,87.25 C45.875,87.25 45.625,86.75 46,86.625 C46.375,86.5 47.125,85.875 47.125,85.875 L48.5,84.125 L48.75,82.625 C48.75,82.625 49.25,82 49.375,81.5 C49.5,81 50.375,79.25 51,79.125 C51.625,79 52.125,79.125 52.5,79.125 C52.875,79.125 53.75,79.75 53.75,79.75 C53.75,79.75 54.375,79.875 54.75,79.875 C55.125,79.875 54.25,80.5 55.125,79.875 C56,79.25 57.125,78.75 57.125,78.75 L59.25,77.375 C59.25,77.375 59,77.375 59.375,76.375 C59.75,75.375 60.125,74 60.125,74 L61.125,73.375 L61.875,71.625 L63.375,70.375 L64.75,68 C64.75,68 65.125,67.5 66.125,66.875 L67.125,66.25 C67.125,66.25 67.375,66.125 68.625,66.125 C69.875,66.125 70.875,66.25 70.875,66.25 C70.875,66.25 70.125,66.75 71.875,66.75 L75,66.75 L78,66.75 C78,66.75 79.25,66.875 79.75,66.625 C80.25,66.375 81.125,65.625 81.125,65.625 L82.375,65.5 C82.375,65.5 83.25,64.875 83.5,64.5 C83.75,64.125 85.125,63.125 85.375,62.75 C85.625,62.375 87,60.875 87,60.875 C87,60.875 88.25,60.75 88.625,60.75 L90.5,60.75 C90.5,60.75 91.25,60.375 91.375,60 C91.5,59.625 92.625,58 93,57.875 C93.375,57.75 95.375,56.25 95.375,56.25 L96.5,55.625 C96.5,55.625 97,55.125 97.5,54.875 C98,54.625 98.25,54.375 98.75,54 C99.25,53.625 99.875,52.875 99.875,52.875 C99.875,52.875 100.375,51.5 100.875,51 C101.375,50.5 102.5,49.875 102.625,49.5 C102.75,49.125 103,47.875 102.125,47.75 C101.25,47.625 100.5,47.375 100.5,47.375 L99.625,46.75 L99.75,46.125 L99.75,44.5 L100.625,43.125 C100.625,43.125 100.75,43.792 100.75,41.833 L100.75,38.625 C100.75,38.625 100.25,38.125 101.125,37.625 C102,37.125 103.25,36 103.25,36 L106.5,33.75 C106.5,33.75 105.75,33.375 106.5,32.625 C107.25,31.875 108,30.125 108,30.125 L108.125,29.25 L108.375,27.5 C108.375,27.5 108.875,26.75 109.5,26.625 C110.125,26.5 111,26.625 111,26.625 C111,26.625 110.75,28.014 111.875,26.569 C113,25.124 113.5,24.375 114,24.25 C114.5,24.125 115.75,24 116.75,23.625 C117.75,23.25 118.375,21.75 118.375,21.75 L120.25,21.75 L122.625,21.75 L123.875,20.875 C123.875,20.875 124.125,21.625 125.125,20.875 C126.125,20.125 130.625,19.125 130.625,19.125 L131.125,18.5 L132.5,17 L132.875,16.375 C132.875,16.375 133,17.5 133.25,16.375 C133.5,15.25 134.625,13.5 134.625,13.5 C134.625,13.5 134.375,13.125 135.125,12.25 C135.875,11.375 136.5,10.125 136.5,10.125 C136.5,10.125 137.25,9.125 137.75,8.75 C138.25,8.375 138.75,8.125 139,7.625 C139.25,7.125 138.5,8.125 139.25,7.125 C140,6.125 140.75,4.75 140.75,4.75 L143.875,1.25 C143.875,1.25 143.25,1.25 144.25,0.625 C145.25,5.05151476e-14 146.125,-0.375 146.75,-0.375 C147.375,-0.375 148,-0.625 148.5,-0.375 C149,-0.125 149.875,-0.375 149.875,0.5 L149.875,2.375 C149.875,2.375 149.375,3 149.375,3.375 C149.375,3.75 149.25,4 149.25,4.375 C149.25,4.75 150.125,5.5 150.125,5.5 L150.75,6 L151.5,6.75 L153,8.625 L153.875,9.25 C153.875,9.25 154.125,9.625 154.625,9.625 L155.125,9.625 L160.375,9.875 L162.25,11.375 L165,11.75 L166.375,10.75 L166.375,9.75 L166.625,9 C167.375,8.625 168.125,9.625 168.125,9.625 L168.125,10.25 C168.125,10.25 167.875,10.75 168.25,10.875 C168.625,11 169.125,11.125 169.5,11.5 C169.875,11.875 171.875,13 171.875,13 C171.875,13 172.5,13 172.875,13.125 C173.25,13.25 173.5,13.25 174,13.25 C174.5,13.25 175.25,13 175.25,13 L176.5,13 L177.875,11.625 C177.875,11.625 178.625,9.625 179.25,9.375 L180.5,8.875 L181.875,8.125 L183.125,8 L183.625,9.25 C183.625,9.25 183.625,9.5 183.875,10 C184.125,10.5 183.125,9.875 184.125,10.5 C185.125,11.125 186.25,11.25 186.25,10.875 C186.25,10.5 186.375,8.875 186.375,8.875 L187,8.25 C187,8.25 189.375,7.625 189.375,8.125 C189.375,8.625 189.375,7.625 189.375,8.625 C189.375,9.625 187.625,10.125 189.375,9.625 C191.125,9.125 192,9.125 192,8.25 C192,7.375 192.125,6.625 192.125,6.625 L194.375,5.625 C194.375,5.625 195,5.625 195.75,5.25 C196.5,4.875 198.5,4.25 198.5,4.25 C198.5,4.25 198.625,3.875 199,3.625 C199.375,3.375 202.375,2.75 202.375,2.75 C202.375,2.75 203.25,2.875 203.625,2.875 C204,2.875 203.625,3.125 204.875,3.125 C206.125,3.125 207.5,3.25 207.875,3.25 L209.25,3.25 C209.75,3.25 212,3.75 212,3.75 L213.875,4.5 L215.875,3.625 L217,2.75 L219.125,3 C220,2.625 221.25,1.375 221.75,1.375 C222.25,1.375 223.5,1.125 225.375,1.375 C227.25,1.625 228.5,1.625 229,1.625 C229.5,1.625 228.75,0.875 229.5,1.625 C230.25,2.375 230.875,3.25 230.875,3.25 L233.125,5 C233.875,5.375 235.375,5.75 235.625,5.125 C235.875,4.5 235.875,4 236.375,3.875 C236.875,3.75 237.875,3.75 237.875,3.75 C239.125,4.25 239.375,4.375 240,3.875 L242.5,1.875 C242.5,1.875 242.5,1.25 242.875,1.25 C243.25,1.25 244.25,1.375 244.375,1.75 C244.5,2.125 245,3.375 245,3.375 L246,3.875 L247.125,3.625 L248.75,1.875 L250.75,2.5 L251.375,3.5 C251.375,3.5 251.375,4 251.75,4.25 L252.125,4.5 C252.125,4.5 254.25,5.25 254.75,5.25 L255.875,5.25 C257.375,4.75 258,4.375 258,4.375 L259.625,3.75 C259.625,3.75 259.875,3.5 261,3 C262.125,2.5 263.25,2.25 263.25,2.25 L264,2.125 C264,2.125 264.625,2.125 265,2.25 C265.375,2.375 266.5,2.25 266.5,2.25 L267.5,2.25 C267.875,2.25 268.875,2.625 268.875,2.625 C268.875,2.625 269.25,2.625 269.5,3 C269.75,3.375 270.375,3.875 270.625,4.375 C270.875,4.875 271.25,4.125 270.875,4.875 C270.5,5.625 270.75,4.625 270.5,5.625 C270.25,6.625 268.5,7.125 270,7.625 L271.5,8.125 C271.5,8.125 271.625,8 272.25,7.5 L272.875,7 L273.75,6 C273.75,6 274.25,5.625 274.5,5.25 C274.75,4.875 274,4.25 275.25,4.25 L276.5,4.25 C276.5,4.25 276.75,5.375 277.125,5.75 C277.5,6.125 277.625,6.625 277.625,7 C277.625,7.375 278,7.75 277.625,8.125 C277.25,8.5 276,9.5 276,9.5 C276,9.5 274.625,10.375 274.25,10.625 C273.875,10.875 272.875,11.25 272.875,11.25 C272.875,11.25 272.5,11.625 272.375,12 C272.25,12.375 272.625,11.5 272.25,12.375 C271.875,13.25 272,12.375 271.875,13.25 L271.75,14.125 L272.625,14.75 C272.625,14.75 273.75,15.625 274.125,15.875 L274.5,16.125 C274.5,16.125 275.125,16.75 275.375,17.25 C275.625,17.75 275.875,18 276,18.75 C276.125,19.5 276.125,20.25 276.125,20.25 L276.125,21.625 C276.125,22 276.25,22.5 276.125,23 C276,23.5 275.5,24.75 275.5,24.75 L275,25.375 C275,25.375 273.75,26.5 273.375,26.75 C273,27 272.375,27.375 272.25,27.75 C272.125,28.125 271.5,28.625 271.25,29 C271,29.375 270.875,29.875 270.25,30.75 C269.625,31.625 268.625,33.25 268.625,33.25 L267.875,34.25 C267.875,34.25 267.125,34.5 267.75,35 C268.375,35.5 267.125,34.25 268.375,35.5 C269.625,36.75 271.625,38.625 271.625,38.625 C272.5,37.875 272.375,37.625 272.875,36.75 C273.375,35.875 273.875,34.25 274.375,34 C274.875,33.75 274.125,33.625 274.875,33.75 C275.625,33.875 276.25,34.875 276.25,34.875 L276.125,35.875 L275.375,36.5 C275.375,36.5 275.125,36.875 275.125,37.25 C275.125,37.625 274.25,36.875 275.125,37.625 C276,38.375 277.375,39.125 277.375,39.125 C277.5,39.875 278.75,40.5 279.125,40.625 C279.5,40.75 281.125,41 281.125,41 L282.625,40.875 L284.125,41.375 C284.125,41.375 284,42 284.375,42.125 C284.75,42.25 285.5,42.875 285.5,42.875 C285.5,42.875 287.125,44 287.375,44.375 C287.625,44.75 286.75,44.75 288.25,44.75 C289.75,44.75 291.125,44.5 291.625,44.5 L293.5,44.5 L294.5,42.25 C294.5,42.25 294.625,41.75 295.125,42.25 C295.625,42.75 296.375,43.125 296.375,43.125 L297.125,43.75 L300.25,44.125 L301.625,44.875 L304.375,46 C304.375,46 305.75,45.875 305.75,46.25 C305.75,46.625 305,46 305.75,46.625 C306.5,47.25 306.25,48 306.625,48 C307,48 308.25,48.25 308.75,48.25 C309.25,48.25 309.875,48.5 309.875,48.5 C309.875,48.5 309.875,48.25 310.5,48.875 C311.125,49.5 310.625,48.875 311.125,49.5 C311.625,50.125 313.25,50.875 313.375,51.625 C313.5,52.375 313,53.625 313,53.625 L313,54.625 C313,54.625 312.875,54.625 313.375,55.25 C313.875,55.875 314.375,57.25 314.375,57.25 L315.5,58.25 C315.5,58.25 315.125,58 316.5,59.125 C317.875,60.25 318.875,60.75 318.875,60.75 L320.25,60.75 C320.75,60.75 319,60.75 320.75,60.75 C322.5,60.75 324.625,60.5 324.625,60.5 C324.625,60.5 326,60 326.625,60.5 C327.25,61 328.375,61 328.875,61.5 C329.375,62 328.625,61.375 329.375,62 C330.125,62.625 330.625,62.5 331.25,62.75 C331.875,63 332.188,63 332.188,63 C332.188,63 331,62.875 333.376,63.625 C335.752,64.375 335.751,64.375 335.751,64.375 C335.751,64.375 335.501,64.875 336.501,65.75 C337.501,66.625 338.126,66.75 338.126,66.75 L340.376,68.25 C340.376,68.25 341.126,67.875 342.126,68.875 C343.126,69.875 344.001,70.375 344.001,70.375 L345.583,69.75 L345.583,69.75 Z" id="Shape"></path>
                        <path d="M623.167,490.667 L623.167,489.667 L621.667,489.667 L620.333,490.667 L620.333,491.667 C620.333,491.667 619.667,491.334 619.167,491.667 C618.667,492 618.667,490.334 618,491.667 L617.333,493 C617.333,493 617.666,494 617.333,494.5 C617,495 617.333,496 617.333,496 L618,496 C618,496 617.834,497 618.167,497.5 C618.5,498 618.333,498.833 618.333,498.833 L617.186,499.5 L616.5,501.5 L616.5,502.167 C616.5,502.167 615.999,501.834 615.333,502.167 L614.667,502.5 C614.667,502.5 614.834,504.001 614.667,504.667 C614.5,505.333 615.5,504.333 614.5,505.333 C613.5,506.333 614.167,507.166 613.5,506.333 C612.833,505.5 612.667,503.833 612.667,503.833 L612,503.5 L610.5,503.333 L610.5,504 L610.5,505.167 L610.5,506.674 C610.5,507 611.667,508.333 611.667,509 C611.667,509.667 613.501,509.501 611.667,509.667 C609.833,509.833 608.5,509.667 608.5,509.667 C608.5,509.667 608.667,510.001 608.5,510.667 C608.333,511.333 608.5,513 608.5,513 C608.5,513 607.685,513.166 608.426,513.833 C609.167,514.5 610.167,515.167 609.167,515.5 L608.167,515.833 L606.5,514.833 L606.5,514 L605.5,514.167 C605.5,514.167 604.333,514.167 604.333,514.667 L604.333,515.833 L604.333,516.5 L604.333,517.5 C604.333,517.5 604.166,517.667 604.333,518.5 L604.5,519.333 C604.5,519.333 604.351,520.166 604.259,520.333 C604.167,520.5 603.5,520.333 603.5,520.333 L603.5,518.5 C603.5,518.5 602.833,518.667 602.333,518.5 C602.161,518.442 602.049,518.405 601.975,518.381 C601.833,518.333 598.999,520.147 598.833,520.407 C598.667,520.667 597.833,520.407 597.833,520.407 L597,521.5 L597,522.333 C597,522.333 598,521.333 598,522.333 C598,523.333 599,523.667 599,523.667 C599,523.667 600.499,524.667 598.833,524.667 L595.667,524.667 L595.667,523.167 L595.667,522.5 L594.167,522.167 C593,522.833 592.167,523.167 592.167,523.167 L592.167,523.667 L591.5,524 L590.667,524.667 C590.667,524.667 591.667,524 590.667,524 L588.833,524 L588,524.667 C588,524.667 587.834,525.334 587.167,525.667 C586.5,526 585.667,526.5 585.667,526.5 L585,526.5 L583.667,526.5 L582,526.5 L581.333,527.167 C581.333,527.167 581.166,527.499 581.333,528.333 C581.5,529.167 581.185,529.166 581.259,529.833 C581.333,530.5 581.247,531.833 581.247,531.833 L581.247,532.812 L580.75,533.374 L580.125,534.186 L579.813,534.561 C579.563,534.999 579.251,535.186 579.125,535.436 C578.999,535.686 579.125,536.248 579.125,536.248 L579.069,536.873 L578.437,537.623 C578.437,537.623 578.187,537.185 577.937,537.623 C577.687,538.061 577.625,538.498 577.625,538.498 L577.625,538.998 L577.625,539.998 L577.625,540.81 C577.625,540.81 578.125,541.185 578.125,541.372 C578.125,541.559 578.187,542.31 578.187,542.31 L578.25,544 L578.312,544.438 C578.312,544.438 578.187,544.938 578.437,545.188 C578.687,545.438 579,545.75 579,545.75 C579,545.75 579.188,545.875 579.25,546.062 C579.312,546.249 579.562,546.687 579.562,546.687 L579.562,547.249 L579.5,547.687 C579.5,547.687 579.438,548.437 579.562,548.625 C579.686,548.813 579.937,549.125 579.937,549.125 L580.562,549.5 L580.624,549.875 C580.624,549.875 580.686,550.25 580.686,550.437 L580.686,551.062 C580.686,551.062 580.624,551.5 580.748,551.874 C580.872,552.248 581.06,553.124 581.248,553.312 L581.436,553.5 C581.436,553.5 581.624,553.938 581.998,554.062 C582.372,554.186 582.81,554.437 582.81,554.437 L583.372,555.249 L583.872,555.561 L583.997,555.936 C583.997,555.936 583.497,555.811 583.247,555.936 L582.997,556.061 C582.997,556.061 582.685,556.186 582.685,556.373 C582.685,556.56 582.685,556.811 582.623,557.123 C582.561,557.435 582.623,557.685 582.561,557.873 C582.499,558.061 582.311,558.561 582.499,558.623 C582.687,558.685 583.249,558.873 583.437,558.935 C583.625,558.997 583.999,558.435 584.125,558.935 C584.251,559.435 584.437,559.747 584.437,559.747 C584.437,559.747 584.062,560.122 583.687,560.185 C583.312,560.248 583.312,560.247 583.312,560.247 L582.75,560.247 C582.75,560.247 582.688,560.309 582.5,560.247 L582.312,560.185 L582.187,560.747 C582.187,560.747 581.812,560.247 581.812,560.747 C581.812,561.247 581.687,561.559 581.687,561.559 C581.687,561.559 581.687,561.559 581.562,561.871 C581.437,562.183 581.374,562.121 581.25,562.809 C581.126,563.497 581.125,563.497 581.125,563.497 L580.687,564.372 C580.687,564.372 580.249,564.622 580.249,564.997 C580.249,565.372 580.187,565.747 580.187,565.747 C579.812,565.935 578.937,566.185 578.937,566.185 L578.749,566.56 L578.561,567.248 L578.311,568.686 C578.311,568.686 578.373,569.248 578.123,569.498 C577.873,569.748 578.435,569.498 577.873,569.748 C577.311,569.998 576.935,569.748 576.935,569.748 L576.247,570.186 L575.872,570.498 C575.497,570.936 575.434,570.998 575.434,571.248 C575.434,571.498 575.184,571.56 575.059,572.06 C574.934,572.56 575.309,572.748 575.059,573.06 C574.809,573.372 575.006,573.685 575.033,573.872 C575.121,574.623 574.934,575.372 574.934,575.372 L574.622,575.372 L574.184,576.06 L574.184,576.498 C574.184,576.686 573.872,577.248 573.872,577.248 L573.872,578.873 C573.747,579.373 573.872,580.373 573.872,580.373 C574.059,580.935 574.059,580.31 574.059,580.935 C574.059,581.56 574.497,583.123 574.497,583.123 C574.497,583.123 574.372,583.185 574.685,583.561 C574.998,583.937 575.997,584.873 575.997,584.873 C575.997,584.873 576.309,585.185 576.372,585.373 C576.496,585.999 576.872,586.561 577.246,587.061 C577.62,587.561 578.246,588.249 578.246,588.249 L578.246,589.123 C578.246,589.31 578.184,589.935 578.184,589.935 C578.184,589.935 578.684,590.997 578.372,591.247 C578.06,591.497 578.31,591.059 578.06,591.497 C577.81,591.935 577.685,592.122 577.622,592.372 C577.559,592.622 577.434,592.56 577.372,593.122 C577.31,593.684 577.372,594.31 577.372,594.31 C577.372,594.31 577.497,594.435 577.622,594.685 C577.747,594.935 578,595.25 578,595.25 C578,595.25 578.188,595.438 578.188,595.625 C578.188,595.812 578.5,596.437 578.5,596.437 L578.5,596.812 C578.438,597.624 578.562,598.374 578.938,598.562 C579.314,598.75 579.313,598.75 579.313,598.75 C579.313,598.75 579.938,599.375 580.063,599.812 C580.188,600.249 579.875,599.687 580.188,600.25 C580.501,600.813 580.563,601.062 580.688,601.25 C580.813,601.438 581.126,601.438 581.313,601.688 C581.5,601.938 581.251,601.5 581.501,601.938 C581.751,602.376 581.751,602.376 582.063,602.75 C582.375,603.124 582.688,603.375 583.001,603.625 C583.314,603.875 583.689,604.125 583.689,604.125 L584.439,604.625 C584.439,604.625 584.814,604.75 585.127,604.937 C585.44,605.124 585.752,605.187 586.127,605.499 C586.502,605.811 587.252,606.124 587.252,606.124 L587.69,606.124 L588.315,606.124 L589.127,606.749 C589.127,606.749 589.815,606.999 589.877,607.249 C589.939,607.499 590.252,607.561 590.502,607.749 C590.752,607.937 591.252,608.187 591.564,608.187 L593.502,608.187 C593.502,608.187 594.44,607.999 594.877,607.812 C595.314,607.625 594.815,607.937 595.315,607.624 C595.815,607.311 598.19,606.249 598.19,606.249 L598.448,605.499 C598.448,605.499 598.268,604.999 598.448,604.937 C598.628,604.875 599.253,604.125 599.565,604.062 C599.877,603.999 599.877,604 599.877,604 L602.377,604 L602.939,604 L605.189,603.562 L605.5,603 L605.875,602.062 C605.875,602.062 606.125,601.437 606.187,601.25 C606.249,601.063 606.625,599.688 606.749,599.5 C606.873,599.312 607.124,598.688 607.124,598.688 C607.124,598.688 607.124,598.188 607.249,598 C607.374,597.812 607.374,596.75 607.874,596.25 C608.374,595.75 608.436,595 608.436,595 C608.436,595 608.874,594.125 608.874,593.875 C608.874,593.625 609.749,592.687 609.812,592.375 C609.875,592.063 610.374,590.563 610.374,590.563 L610.749,589.751 L610.811,587.939 L611.123,587.314 L611.811,585.752 C611.811,585.314 611.936,583.564 611.936,583.564 C611.936,583.564 611.936,583.376 612.061,583.126 C612.186,582.876 612.499,582.126 612.561,581.876 C612.623,581.626 612.623,581.126 612.623,581.126 C612.623,581.126 612.623,580.626 612.561,580.376 C612.499,580.126 612.686,579.001 612.686,579.001 L613.186,578.251 C613.186,578.251 613.811,577.689 613.936,577.063 C614.061,576.437 614.374,574.875 614.374,574.688 C614.374,574.501 614.499,573.876 614.812,573.688 C615.125,573.5 615.374,572.813 615.687,572.563 C616,572.313 616.375,570.813 616.375,570.813 C616.375,570.813 616.313,570.501 616.375,570.251 C616.437,570.001 616.687,568.376 616.687,568.376 L616.937,566.876 C616.937,566.876 617.125,565.876 617.187,565.626 C617.249,565.376 617.875,563.564 618.062,563.376 C618.249,563.188 618.624,562.001 618.624,562.001 L618.812,560.501 C618.937,560.001 619.562,558.626 619.562,558.626 C619.562,558.626 619.624,557.938 619.624,557.751 C619.624,557.564 619.999,557.063 619.999,556.876 C619.999,556.689 620.187,555.314 620.187,555.314 L620.999,553.876 C620.999,553.876 621.374,553.438 621.374,553.251 C621.374,553.064 621.624,552.126 621.624,552.126 C621.624,552.126 621.749,551.188 621.812,550.876 C621.875,550.564 622.25,549.814 622.374,549.564 C622.498,549.314 623.333,548.814 623.166,548.564 C622.999,548.314 622.624,547.064 622.624,547.064 C622.624,547.064 622.69,546.439 623.188,546.314 C623.686,546.189 624.436,545.376 624.436,545.376 L624.936,544.626 L624.936,543.814 L624.936,543.126 L625.436,542.314 L625.436,541.064 C625.436,541.064 625.124,540.626 625.436,540.439 C625.748,540.252 625.748,540.127 626.061,539.814 C626.374,539.501 626.436,539.126 626.436,539.126 C626.436,539.126 626.124,538.751 625.936,538.751 C625.748,538.751 625.561,538.689 625.248,538.689 C624.935,538.689 624.686,538.127 624.686,538.127 L624.248,536.502 L623.81,536.064 L624.435,534.502 L626.123,534.502 L626.435,533.502 C626.81,533.127 627.185,532.127 627.185,532.127 C627.185,532.127 627.56,531.752 627.685,531.502 C627.81,531.252 627.997,530.814 627.997,530.814 L627.997,530.314 L627.435,528.626 L627.497,528.251 L627.622,527.251 C627.622,527.251 627.434,526.939 627.31,526.689 C627.186,526.439 627.125,526 627.125,526 L626.563,525.25 L626.375,524.688 L626.375,523.313 C626.375,523.313 626.437,522.625 626.375,522.438 C626.313,522.251 625.937,521.563 625.937,521.563 C625.937,521.563 625.875,521.501 625.875,521.188 C625.875,520.875 626.437,519.5 626.437,519.5 L627.125,520 C627.125,520 627.25,520.125 627.25,520.312 L627.25,521 L627.312,521.438 L627.562,522.063 C627.562,522.063 628.062,521.938 628,522.313 C627.938,522.688 628.5,523.125 628.5,523.125 L628.812,523.5 L629.187,524.375 L629.499,524.937 L629.874,525.187 C629.874,525.187 629.999,525.062 630.186,525.249 C630.373,525.436 629.374,525.874 630.374,525.437 C631.374,525 631.624,524.562 631.749,524.312 C631.874,524.062 632.124,523.624 632.124,523.374 L632.124,522.436 L632.124,521.874 L632.562,521.374 L632.562,521 L632.562,520.312 L632.562,519 L632.562,518.625 C632.562,518.625 632.624,518.187 632.562,518 C632.5,517.813 632,516.875 632,516.875 L631.938,516.375 L631.75,515.875 L631.125,514.875 C631.125,514.875 631.187,514.813 631,514.313 C630.813,513.813 630.562,513.188 630.562,513.188 C630.562,513.188 630.438,513 630.5,512.5 C630.562,512 630.938,510.75 630.938,510.75 L630.938,509.5 C630.938,509.5 631.063,509 631.063,508.75 C631.063,508.5 631.251,507.875 631.251,507.875 L631.376,506.625 C631.376,506.625 631.376,506.375 631.126,506.187 C630.876,505.999 630.938,505.812 630.688,505.499 C630.438,505.186 630.688,505.561 630.438,505.187 C630.188,504.813 629.876,504.375 629.75,504.187 C629.624,503.999 629.5,503.499 629.5,503.499 L629.5,502.499 L629.312,501.999 C629.312,501.999 629.062,501.749 629,501.374 C628.938,500.999 628.688,500.374 628.688,500.374 L628.688,499.936 L628.438,499.061 L628.126,498.749 L627.501,497.437 L626.751,496.062 L625.813,495.187 C625.813,495.187 625.251,494.125 625.001,493.999 C624.751,493.873 624.313,493.124 624.313,493.124 L623.938,492.812 L623.25,492.187 L623.167,491.667 L623.167,490.667 L623.167,490.667 Z" id="Shape"></path>
                    </g>
                </g>
            </g>
        </g>
    </g>
</svg>