<?xml version="1.0" encoding="utf-8"?>
<!-- Generator: Adobe Illustrator 17.1.0, SVG Export Plug-In . SVG Version: 6.00 Build 0)  -->
<!DOCTYPE svg PUBLIC "-//W3C//DTD SVG 1.1//EN" "http://www.w3.org/Graphics/SVG/1.1/DTD/svg11.dtd">
<svg version="1.1" id="Layer_1" xmlns="http://www.w3.org/2000/svg" xmlns:xlink="http://www.w3.org/1999/xlink" x="0px" y="0px"
	 viewBox="0 0 72 72" enable-background="new 0 0 72 72" xml:space="preserve">
<g>
	<g>
		<path d="M4.44012,36.35406h1.77039v-0.73499H4.44012V34.8573H6.4519v-0.73499H3.61932v3.75537h2.85944V37.1427H4.44012V36.35406z
			 M9.85718,36.76715l-0.98175-2.64484H7.96338l1.51825,3.78217h0.72961l1.51825-3.78217h-0.89056L9.85718,36.76715z
			 M14.20111,36.35406h1.77039v-0.73499h-1.77039V34.8573h2.01184v-0.73499h-2.83264v3.75537h2.85944V37.1427h-2.03864V36.35406z
			 M21.17932,35.37231v-0.01074c0-0.35406-0.11267-0.64917-0.3219-0.85834c-0.24677-0.24683-0.61694-0.38092-1.09442-0.38092
			h-1.71674v3.75537h0.82623v-1.20172h0.64911l0.80475,1.20172h0.96564l-0.91736-1.34125
			C20.85205,36.35944,21.17932,35.97852,21.17932,35.37231z M20.34241,35.41522c0,0.31653-0.23065,0.53113-0.633,0.53113H18.8725
			v-1.07837h0.8208c0.40234,0,0.64911,0.18243,0.64911,0.5365V35.41522z M24.33777,35.62982l-0.89594-1.50751H22.4762
			l1.44312,2.27466v1.48071h0.82617v-1.49683l1.44312-2.25854h-0.93884L24.33777,35.62982z M29.23969,34.12231h-1.46466v3.75537
			h1.46466c1.18024,0,1.99567-0.82086,1.99567-1.87769v-0.01074C31.23535,34.93237,30.41992,34.12231,29.23969,34.12231z
			 M30.37164,36.01068c0,0.66528-0.45605,1.12128-1.13196,1.12128h-0.63843v-2.26398h0.63843
			c0.6759,0,1.13196,0.46674,1.13196,1.13202V36.01068z M34.06116,34.09546l-1.60944,3.78223h0.84229l0.34332-0.84229h1.58801
			l0.34332,0.84229h0.86377L34.823,34.09546H34.06116z M33.93243,36.30579l0.4989-1.21783l0.4989,1.21783H33.93243z
			 M38.96857,35.62982l-0.89587-1.50751h-0.9657l1.44318,2.27466v1.48071h0.82617v-1.49683l1.44312-2.25854h-0.93884
			L38.96857,35.62982z M43.94025,34.09546l-1.74896,3.78223h0.28973l0.47748-1.05151h2.21564l0.47748,1.05151h0.30579
			l-1.7489-3.78223H43.94025z M43.07648,36.57404l0.99249-2.17279l0.98718,2.17279H43.07648z M47.82275,37.87769h0.27893V36.177
			h2.12445v-0.25751h-2.12445v-1.53967h2.36591v-0.25751h-2.64484V37.87769z M55.33203,35.20062v-0.01074
			c0-0.26825-0.1073-0.52039-0.28436-0.69739c-0.22528-0.22534-0.59546-0.37018-1.05682-0.37018h-1.57727v3.75537h0.27899v-1.55585
			h1.22852l1.19635,1.55585h0.35406l-1.23926-1.60413C54.8653,36.18774,55.33203,35.82831,55.33203,35.20062z M52.69257,36.0697
			v-1.68988h1.28217c0.68134,0,1.07831,0.31653,1.07831,0.8208v0.01074c0,0.54181-0.46674,0.85834-1.09442,0.85834H52.69257z
			 M57.40131,37.87769h0.27899v-3.75537h-0.27899V37.87769z M61.61725,37.68988c-0.89594,0-1.58801-0.74036-1.58801-1.68988
			v-0.01074c0-0.94421,0.68134-1.6792,1.58264-1.6792c0.56329,0,0.93884,0.23608,1.26611,0.55261l0.19849-0.20392
			c-0.38629-0.35406-0.78864-0.60083-1.45923-0.60083c-1.08368,0-1.87769,0.87982-1.87769,1.94208v0.01068
			c0,1.07837,0.79401,1.93134,1.86694,1.93134c0.66522,0,1.09442-0.26288,1.49139-0.65448l-0.18774-0.18243
			C62.52924,37.48065,62.15906,37.68988,61.61725,37.68988z M66.63177,34.09546h-0.26825l-1.7489,3.78223h0.28967l0.47748-1.05151
			h2.21564l0.47748,1.05151h0.30579L66.63177,34.09546z M65.49982,36.57404l0.99249-2.17279l0.98712,2.17279H65.49982z"/>
	</g>
</g>
</svg>
