<?xml version="1.0" encoding="utf-8"?>
<!-- Generator: Adobe Illustrator 17.1.0, SVG Export Plug-In . SVG Version: 6.00 Build 0)  -->
<!DOCTYPE svg PUBLIC "-//W3C//DTD SVG 1.1//EN" "http://www.w3.org/Graphics/SVG/1.1/DTD/svg11.dtd">
<svg version="1.1" id="Layer_1" xmlns="http://www.w3.org/2000/svg" xmlns:xlink="http://www.w3.org/1999/xlink" x="0px" y="0px"
	 viewBox="0 0 72 72" enable-background="new 0 0 72 72" xml:space="preserve">
<g>
	<g>
		<path d="M7.06342,34.52826c-0.37891-0.37158-0.89618-0.58289-1.46448-0.58289c-1.20221,0-2.09106,0.96899-2.09106,2.10559
			c0,1.04919,0.80145,2.09106,2.09833,2.09106c0.40076,0,0.79419-0.10931,1.12933-0.33514
			c0.33514-0.21857,0.612-0.54645,0.80145-0.98358H6.75012c-0.21857,0.41528-0.61206,0.67029-1.14392,0.67029
			c-0.59741,0-1.29688-0.40802-1.33331-1.20947h3.38794C7.72644,35.62109,7.52966,35.00183,7.06342,34.52826z M4.28748,35.69397
			c0.03644-0.53912,0.53918-1.10016,1.31146-1.10016c0.75043-0.01459,1.27502,0.57556,1.31146,1.10016H4.28748z M10.07147,37.07831
			l-1.10022-3.01636H8.17712l1.51544,3.9635h0.75775l1.51544-3.9635h-0.79413L10.07147,37.07831z M15.97937,34.52826
			c-0.37885-0.37158-0.89618-0.58289-1.46448-0.58289c-1.20215,0-2.09106,0.96899-2.09106,2.10559
			c0,1.04919,0.80145,2.09106,2.09839,2.09106c0.4007,0,0.79413-0.10931,1.12927-0.33514
			c0.33514-0.21857,0.612-0.54645,0.80145-0.98358h-0.78687c-0.21857,0.41528-0.612,0.67029-1.14386,0.67029
			c-0.59747,0-1.29694-0.40802-1.33337-1.20947h3.388C16.6424,35.62109,16.44568,35.00183,15.97937,34.52826z M13.20343,35.69397
			c0.03644-0.53912,0.53918-1.10016,1.31146-1.10016c0.75049-0.01459,1.27502,0.57556,1.31146,1.10016H13.20343z M18.39716,34.64484
			v-0.58289h-0.71405v3.9635h0.75775v-2.14203c0-0.78687,0.37158-1.18036,1.08557-1.18036h0.05103v-0.75769
			C19.03827,33.95264,18.62299,34.17853,18.39716,34.64484z M22.03931,36.96173l-1.09283-2.89978h-0.81604l1.51544,3.84692
			l-0.6557,1.5592h0.80872l2.16394-5.40613h-0.81604L22.03931,36.96173z M28.08569,34.71039
			c-0.16028-0.31329-0.6557-0.76501-1.46448-0.76501c-1.12927,0-2.01819,0.85974-2.01819,2.09106
			c0,1.14386,0.78693,2.10559,2.03278,2.10559c0.81604,0,1.26044-0.4007,1.47906-0.80872v0.69214h0.72858v-5.39154h-0.75775
			V34.71039z M27.74329,37.02002c-0.24774,0.255-0.60474,0.41528-0.99091,0.41528c-0.87433,0-1.38434-0.66302-1.3916-1.3916
			v-0.00726c0-0.74316,0.55371-1.38434,1.3916-1.38434c0.38617,0,0.72858,0.14569,0.97632,0.39343
			c0.24774,0.24042,0.4007,0.58289,0.4007,0.97632C28.14398,36.41528,27.99829,36.76501,27.74329,37.02002z M33.49066,34.76141
			c-0.18219-0.37891-0.68488-0.81604-1.47174-0.81604c-1.15118,0-2.03278,0.88885-2.03278,2.09833
			c0,1.10748,0.75769,2.09833,2.03278,2.09833c0.62659,0,1.19489-0.27686,1.47174-0.80872v0.69214h0.75775v-3.9635h-0.75775
			V34.76141z M33.3595,36.64844c-0.19672,0.45172-0.62659,0.78687-1.23132,0.78687c-0.96173,0-1.37701-0.78687-1.38434-1.37701
			v-0.00732c0-0.74316,0.53918-1.39886,1.36975-1.39886c0.63391,0,1.07837,0.35699,1.26776,0.81604
			c0.08746,0.18213,0.1239,0.38611,0.11658,0.59015C33.49066,36.26227,33.44696,36.46631,33.3595,36.64844z M36.97949,36.96173
			l-1.09283-2.89978h-0.81604l1.51544,3.84692l-0.6557,1.5592h0.80872l2.16394-5.40613h-0.81604L36.97949,36.96173z
			 M41.474,32.63391l-2.13477,5.39154h1.49359l0.24774-0.7796h1.88702l0.255,0.7796h1.50818l-2.06921-5.39154H41.474z
			 M41.42297,36.15295l0.58289-1.8797l0.60474,1.8797H41.42297z M45.64752,38.02545h1.37701v-2.05463h1.50818v-1.20941h-1.50818
			v-0.91803H48.591v-1.20947h-2.94348V38.02545z M53.51538,35.46814c0.15302-0.24048,0.26959-0.56104,0.26959-0.97632
			c0-0.59015-0.20404-1.12201-0.65576-1.47174c-0.29871-0.23315-0.8233-0.38617-1.66846-0.38617h-1.76318v5.39154h1.37701v-4.18207
			h0.51001c0.18945,0,0.40802,0.05096,0.56104,0.14569c0.18213,0.11658,0.32062,0.34247,0.32062,0.62659
			c0,0.29871-0.13849,0.55371-0.30603,0.66302c-0.18213,0.11658-0.4809,0.14569-0.83063,0.14569h-0.22583l1.40619,2.60107h1.42072
			l-1.11475-1.98175C53.07092,35.93439,53.33325,35.75226,53.51538,35.46814z M54.81848,38.02545h1.37701v-5.39154h-1.37701
			V38.02545z M60.1366,33.74133c0.74316,0,1.15112,0.53918,1.30414,0.93988h1.44263
			c-0.14575-0.84515-1.04919-2.14929-2.7395-2.14929c-1.76318,0-2.8269,1.41345-2.8269,2.79047
			c0,1.45721,1.15112,2.80505,2.84149,2.80505c1.30414,0,2.41162-0.84515,2.72491-2.12018h-1.44263
			c-0.0874,0.18945-0.43713,0.91077-1.29688,0.91077c-0.89618,0-1.44989-0.78693-1.44989-1.60291
			C58.69397,34.55011,59.21124,33.74133,60.1366,33.74133z M66.42291,32.63391h-1.18756l-2.13477,5.39154h1.49359l0.24768-0.7796
			h1.88708l0.255,0.7796h1.50818L66.42291,32.63391z M65.18433,36.15295l0.58289-1.8797l0.60474,1.8797H65.18433z"/>
	</g>
</g>
</svg>
