<?xml version="1.0" encoding="UTF-8" standalone="no"?>
<svg width="38px" height="39px" viewBox="0 0 38 39" version="1.1" xmlns="http://www.w3.org/2000/svg" xmlns:xlink="http://www.w3.org/1999/xlink" xmlns:sketch="http://www.bohemiancoding.com/sketch/ns">
    <title>Slice 1</title>
    <description>Created with Sketch (http://www.bohemiancoding.com/sketch)</description>
    <defs></defs>
    <g id="Page-1" stroke="none" stroke-width="1" fill="none" fill-rule="evenodd" sketch:type="MSPage">
        <g id="facebook-black" sketch:type="MSLayerGroup" fill="#000000">
            <path d="M35.5,-3.55271368e-15 L2.5,-3.55271368e-15 C1.1,-3.55271368e-15 0,1.1 0,2.5 L0,35.6 C0,37 1.1,38.1 2.5,38.1 L18.3,38.1 L18.3,22.1 L14.8,22.1 L14.8,16.9 L18.3,16.9 L18.3,13.3 C18.4,9.9 19.6,6.6 25.5,6.4 L25.5,6.4 L30,6.4 L30,11.6 L26.5,11.6 C25.4,11.6 24.6,12.5 24.6,13.7 L24.6,16.9 L30,16.9 L29,22.1 L24.5,22.1 L24.5,38 L35.5,38 C36.9,38 38,36.9 38,35.5 L38,2.5 C38,1.1 36.9,-3.55271368e-15 35.5,-3.55271368e-15 L35.5,-3.55271368e-15 Z" id="Shape" sketch:type="MSShapeGroup"></path>
        </g>
    </g>
</svg>