<?xml version="1.0" encoding="utf-8"?>
<!-- Generator: Adobe Illustrator 17.1.0, SVG Export Plug-In . SVG Version: 6.00 Build 0)  -->
<!DOCTYPE svg PUBLIC "-//W3C//DTD SVG 1.1//EN" "http://www.w3.org/Graphics/SVG/1.1/DTD/svg11.dtd">
<svg version="1.1" id="Layer_1" xmlns="http://www.w3.org/2000/svg" xmlns:xlink="http://www.w3.org/1999/xlink" x="0px" y="0px"
	 viewBox="0 0 72 72" enable-background="new 0 0 72 72" xml:space="preserve">
<g>
	<g>
		<path d="M52.5,17H19.5c-1.4,0-2.5,1.1-2.5,2.5v33.1c0,1.4,1.1,2.5,2.5,2.5h15.8V39.1h-3.5v-5.2h3.5v-3.6h0
			c0.1-3.4,1.3-6.7,7.2-6.9v0h4.5v5.2h-3.5c-1.1,0-1.9,0.9-1.9,2.1v3.2h5.4L46,39.1h-4.5V55h11c1.4,0,2.5-1.1,2.5-2.5V19.5
			C55,18.1,53.9,17,52.5,17z"/>
	</g>
</g>
</svg>
