<?xml version="1.0" encoding="utf-8"?>
<!-- Generator: Adobe Illustrator 17.1.0, SVG Export Plug-In . SVG Version: 6.00 Build 0)  -->
<!DOCTYPE svg PUBLIC "-//W3C//DTD SVG 1.1//EN" "http://www.w3.org/Graphics/SVG/1.1/DTD/svg11.dtd">
<svg version="1.1" id="Layer_1" xmlns="http://www.w3.org/2000/svg" xmlns:xlink="http://www.w3.org/1999/xlink" x="0px" y="0px"
	 viewBox="0 0 72 72" enable-background="new 0 0 72 72" xml:space="preserve">
<path fill-rule="evenodd" clip-rule="evenodd" d="M50.6,33.1h-3.3c0.2,0.9,0.4,1.9,0.4,2.9c0,6.5-5.2,11.7-11.7,11.7
	c-6.5,0-11.7-5.2-11.7-11.7c0-1,0.1-2,0.4-2.9h-3.3v16.1c0,0.8,0.7,1.5,1.5,1.5h26.3c0.8,0,1.5-0.7,1.5-1.5V33.1z M50.6,22.8
	c0-0.8-0.7-1.5-1.5-1.5h-4.4c-0.8,0-1.5,0.7-1.5,1.5v4.4c0,0.8,0.7,1.5,1.5,1.5h4.4c0.8,0,1.5-0.7,1.5-1.5V22.8z M36,28.7
	c-4,0-7.3,3.3-7.3,7.3c0,4,3.3,7.3,7.3,7.3c4,0,7.3-3.3,7.3-7.3C43.3,32,40,28.7,36,28.7 M50.6,55H21.4C19,55,17,53,17,50.6V21.4
	c0-2.4,2-4.4,4.4-4.4h29.2c2.4,0,4.4,2,4.4,4.4v29.2C55,53,53,55,50.6,55"/>
</svg>
