<?xml version="1.0" encoding="UTF-8" standalone="no"?>
<svg width="38px" height="38px" viewBox="0 0 38 38" version="1.1" xmlns="http://www.w3.org/2000/svg" xmlns:xlink="http://www.w3.org/1999/xlink" xmlns:sketch="http://www.bohemiancoding.com/sketch/ns">
    <title>Untitled</title>
    <description>Created with Sketch (http://www.bohemiancoding.com/sketch)</description>
    <defs></defs>
    <g id="Page-1" stroke="none" stroke-width="1" fill="none" fill-rule="evenodd" sketch:type="MSPage">
        <g id="instagram-black" sketch:type="MSLayerGroup" fill="#609EC9">
            <path d="M33.6,16.1 L30.3,16.1 C30.5,17 30.7,18 30.7,19 C30.7,25.5 25.5,30.7 19,30.7 C12.5,30.7 7.3,25.5 7.3,19 C7.3,18 7.4,17 7.7,16.1 L4.4,16.1 L4.4,32.2 C4.4,33 5.1,33.7 5.9,33.7 L32.2,33.7 C33,33.7 33.7,33 33.7,32.2 L33.7,16.1 L33.6,16.1 Z M33.6,5.8 C33.6,5 32.9,4.3 32.1,4.3 L27.7,4.3 C26.9,4.3 26.2,5 26.2,5.8 L26.2,10.2 C26.2,11 26.9,11.7 27.7,11.7 L32.1,11.7 C32.9,11.7 33.6,11 33.6,10.2 L33.6,5.8 L33.6,5.8 Z M19,11.7 C15,11.7 11.7,15 11.7,19 C11.7,23 15,26.3 19,26.3 C23,26.3 26.3,23 26.3,19 C26.3,15 23,11.7 19,11.7 L19,11.7 Z M33.6,38 L4.4,38 C2,38 3.55271368e-15,36 3.55271368e-15,33.6 L3.55271368e-15,4.4 C3.55271368e-15,2 2,0 4.4,0 L33.6,0 C36,0 38,2 38,4.4 L38,33.6 C38,36 36,38 33.6,38 L33.6,38 Z" id="Shape" sketch:type="MSShapeGroup"></path>
        </g>
    </g>
</svg>