<?xml version="1.0" encoding="UTF-8" standalone="no"?>
<svg width="100px" height="100px" viewBox="0 0 100 100" version="1.1" xmlns="http://www.w3.org/2000/svg" xmlns:xlink="http://www.w3.org/1999/xlink" xmlns:sketch="http://www.bohemiancoding.com/sketch/ns">
    <title>user_circle</title>
    <description>Created with Sketch (http://www.bohemiancoding.com/sketch)</description>
    <defs></defs>
    <g id="Page-1" stroke="none" stroke-width="1" fill="none" fill-rule="evenodd" sketch:type="MSPage">
        <g id="icon_11315" sketch:type="MSLayerGroup" fill="#609EC9">
            <path d="M60.7830751,60.1587155 C60.7830751,60.1587155 63.6763111,52.0655478 64.2661111,48.9352333 C64.8373232,45.9035732 64.2661111,41.6727917 64.2661111,41.6727917 C64.2661111,41.6727917 65.8286338,36.905761 65.828634,31.6355946 C65.828634,26.3654282 63.4078792,25.4526787 63.4078787,25.1549688 C63.4078769,23.8796404 62.6988604,23.0527215 62.1587465,22.4046734 C55.8316421,14.813187 41.1736998,16.6567193 39.625,19.707 C38.6517356,20.6443323 35.7206934,21.8862536 35.0403841,24.0054285 C34.8733343,24.5257912 31.893852,25.1549685 31.893852,31.6355946 C31.8938517,38.1162207 34.0385702,41.1307327 34.0385702,41.1307327 C34.0385702,41.1307327 34.7913656,46.7070547 35.4831121,48.9352333 C36.8624302,53.3781433 38.8724459,56.7010884 40.2517641,61.1439984 C40.8687641,65.3149984 38.477,65.31 38.477,65.31 C35.02,66.838 34.283,66.734 30.855,68.224 C24.229,71.109 15.0141738,75.32961 14.7771738,75.46061 C20.7541738,83.00861 35.7853062,93.1723516 45.8453062,94.3473516 L55.3692262,94.3473516 C65.5352262,93.1593516 78.8531359,83.13861 84.8321359,75.46061 C82.8071359,73.70361 74.162,69.499 69.606,68.329 C65.238,67.208 61.575,65.698 61.575,65.698 C59.6892297,64.3897679 60.7830751,60.1587155 60.7830751,60.1587155 Z" id="Shape" sketch:type="MSShapeGroup"></path>
            <path d="M0,50 C0,77.614 22.386,100 50,100 C77.614,100 100,77.614 100,50 C100,22.386 77.614,0 50,0 C22.386,0 0,22.386 0,50 Z M50,92 C26.804,92 8,73.196 8,50 C8,26.804 26.804,8 50,8 C73.196,8 92,26.804 92,50 C92,73.196 73.196,92 50,92 L50,92 Z" id="Shape" sketch:type="MSShapeGroup"></path>
        </g>
    </g>
</svg>