<?xml version="1.0" encoding="UTF-8" standalone="no"?>
<svg width="78px" height="100px" viewBox="0 0 78 100" version="1.1" xmlns="http://www.w3.org/2000/svg" xmlns:xlink="http://www.w3.org/1999/xlink" xmlns:sketch="http://www.bohemiancoding.com/sketch/ns">
    <title>Slice 1</title>
    <description>Created with Sketch (http://www.bohemiancoding.com/sketch)</description>
    <defs></defs>
    <g id="Page-1" stroke="none" stroke-width="1" fill="none" fill-rule="evenodd" sketch:type="MSPage">
        <g id="icon_27348" sketch:type="MSLayerGroup" fill="#CECECE">
            <g id="Group" transform="translate(39.000000, 50.000000) scale(1, -1) translate(-39.000000, -50.000000) " sketch:type="MSShapeGroup">
                <path d="M26.7304,86.9262 C26.7304,86.911 27.2192,86.4428 27.8095,85.893 L28.894,84.8901 L29.3422,85.3637 C29.5863,85.6229 29.9579,86.0203 30.1718,86.244 C30.3808,86.4682 31.7402,87.9243 33.2011,89.477 C34.6572,91.0297 36.0976,92.5727 36.4081,92.9032 L36.9638,93.4989 L36.9892,65.4061 L37.0146,37.3133 L37.1669,37.0125 C37.7167,35.9334 39.3153,35.9441 39.8505,37.0281 L39.9677,37.2674 L39.9931,65.9002 L40.0185,94.5272 L41.0615,93.4174 C41.6426,92.8016 42.956,91.3963 43.9892,90.2918 C45.9951,88.1482 48.1337,85.8676 48.7089,85.2664 L49.0653,84.9002 L50.1395,85.8979 C50.7352,86.4428 51.2186,86.911 51.2186,86.9262 C51.2186,86.9672 39.0252,99.9852 38.9793,100.0002 C38.9639,100.0057 36.2002,97.073 32.8398,93.4838 C29.4794,89.8943 26.7304,86.9467 26.7304,86.9262 Z" id="Shape"></path>
                <path d="M3.581,76.6932 C1.8041,75.8075 0.5214,74.1375 0.0937,72.1571 C0.0068,71.7548 0.0019,70.2069 0.0019,38.6932 C0.0019,10.7889 0.0122,5.5955 0.0732,5.2948 C0.5976,2.6473 2.5371,0.6825 5.2255,0.0975 C5.6376,0.0057 6.7016,0.0008 38.9999,0.0008 C71.0585,0.0008 72.3622,0.0057 72.7792,0.0916 C75.371,0.6473 77.2646,2.4998 77.8856,5.0916 L77.9979,5.5496 L77.9979,38.6424 C77.9979,70.2069 77.993,71.7547 77.9061,72.157 C77.6161,73.491 76.9491,74.6873 75.9872,75.5935 C75.2792,76.2552 74.5106,76.7185 73.579,77.029 C72.5253,77.3806 73.4823,77.3601 59.0487,77.3601 L46,77.3601 L46,75.8835 L46,74.4069 L58.8711,74.4069 C72.6572,74.402 72.1074,74.4124 72.7949,74.1526 C73.2178,73.9948 73.7978,73.5876 74.1289,73.221 C74.4746,72.8343 74.8418,72.1214 74.9434,71.6325 C75.0098,71.322 75.0196,67.0657 75.0196,38.6677 C75.0196,6.1755 75.0196,6.0583 74.918,5.6306 C74.6172,4.3835 73.6201,3.3806 72.3467,3.0554 C72.0772,2.989 68.5391,2.9783 39,2.9783 C9.502,2.9783 5.9229,2.989 5.6533,3.0554 C4.3804,3.3806 3.3823,4.3835 3.082,5.6306 C2.9804,6.0583 2.9804,6.1755 2.9804,38.6677 C2.9804,67.0657 2.9902,71.322 3.0566,71.6325 C3.1582,72.1214 3.5249,72.8343 3.8711,73.221 C4.2022,73.5876 4.7827,73.9948 5.2051,74.1526 C5.8926,74.4124 5.419,74.402 18.1416,74.4069 L30.0142,74.4069 L30.0039,75.8733 L29.9888,77.3346 L17.8975,77.3395 C7.7046,77.35 5.7397,77.3396 5.3779,77.2787 C4.874,77.1922 4.0341,76.9223 3.581,76.6932 Z" id="Shape"></path>
            </g>
        </g>
    </g>
</svg>