<?xml version="1.0" encoding="UTF-8" standalone="no"?>
<svg width="39px" height="39px" viewBox="0 0 39 39" version="1.1" xmlns="http://www.w3.org/2000/svg" xmlns:xlink="http://www.w3.org/1999/xlink" xmlns:sketch="http://www.bohemiancoding.com/sketch/ns">
    <title>Untitled</title>
    <description>Created with Sketch (http://www.bohemiancoding.com/sketch)</description>
    <defs></defs>
    <g id="Page-1" stroke="none" stroke-width="1" fill="none" fill-rule="evenodd" sketch:type="MSPage">
        <g id="tumblr-black" sketch:type="MSLayerGroup" fill="#609EC9">
            <path d="M35.5,-3.55271368e-15 L2.5,-3.55271368e-15 C1.1,-3.55271368e-15 -3.55271368e-15,1.1 -3.55271368e-15,2.5 L-3.55271368e-15,35.6 C-3.55271368e-15,37 1.1,38.1 2.5,38.1 L35.6,38.1 C37,38.1 38.1,37 38.1,35.6 L38.1,2.5 C38,1.1 36.9,-3.55271368e-15 35.5,-3.55271368e-15 L35.5,-3.55271368e-15 Z M26.4,30 C26.4,30 24.6,31.4 21.2,31.4 C17.8,31.4 15,28.9 15,25.8 L15,16.6 L12,16.6 L12,12.8 C12,12.8 16.6,12.1 16.6,6.7 L20.2,6.7 L20.2,12.6 L25.5,12.6 L25.5,16.6 L20.2,16.6 L20.2,24.4 C20.2,25.7 21.2,27.3 23.3,27.3 C25.4,27.3 26.4,25.9 26.4,25.9 L26.4,30 L26.4,30 Z" id="Shape" sketch:type="MSShapeGroup"></path>
        </g>
    </g>
</svg>