<?xml version="1.0" encoding="utf-8"?>
<!-- Generator: Adobe Illustrator 17.1.0, SVG Export Plug-In . SVG Version: 6.00 Build 0)  -->
<!DOCTYPE svg PUBLIC "-//W3C//DTD SVG 1.1//EN" "http://www.w3.org/Graphics/SVG/1.1/DTD/svg11.dtd">
<svg version="1.1" id="Layer_1" xmlns="http://www.w3.org/2000/svg" xmlns:xlink="http://www.w3.org/1999/xlink" x="0px" y="0px"
	 viewBox="0 0 72 72" enable-background="new 0 0 72 72" xml:space="preserve">
<g>
	<g>
		<path d="M52.5,17H19.5c-1.4,0-2.5,1.1-2.5,2.5v33.1c0,1.4,1.1,2.5,2.5,2.5h33.1c1.4,0,2.5-1.1,2.5-2.5V19.5
			C55,18.1,53.9,17,52.5,17z M43.4,47c0,0-1.8,1.4-5.2,1.4s-6.2-2.5-6.2-5.6c0-3,0-9.2,0-9.2h-3v-3.8c0,0,4.6-0.7,4.6-6.1
			c1.7,0,3.6,0,3.6,0s0,2.6,0,5.9h5.3v4h-5.3v7.8c0,1.3,1,2.9,3.1,2.9c2.1,0,3.1-1.4,3.1-1.4V47z"/>
	</g>
</g>
</svg>
