<?xml version="1.0" encoding="UTF-8" standalone="no"?>
<svg width="38px" height="38px" viewBox="0 0 38 38" version="1.1" xmlns="http://www.w3.org/2000/svg" xmlns:xlink="http://www.w3.org/1999/xlink" xmlns:sketch="http://www.bohemiancoding.com/sketch/ns">
    <title>Slice 1</title>
    <description>Created with Sketch (http://www.bohemiancoding.com/sketch)</description>
    <defs></defs>
    <g id="Page-1" stroke="none" stroke-width="1" fill="none" fill-rule="evenodd" sketch:type="MSPage">
        <g id="twitter-black" sketch:type="MSLayerGroup" fill="#000000">
            <path d="M34,0 L4,0 C1.8,0 0,1.8 0,4 L0,34 C0,36.2 1.8,38 4,38 L34,38 C36.2,38 38,36.2 38,34 L38,4 C38,1.8 36.2,0 34,0 L34,0 Z M30.4,13.5 L30.4,14.2 C30.4,21.6 25,30.1 15.2,30.1 C12.2,30.1 9.4,29.2 7,27.6 C7.4,27.7 7.8,27.7 8.3,27.7 C10.8,27.7 13.1,26.8 14.9,25.3 C12.6,25.3 10.6,23.6 9.9,21.4 C10.2,21.5 10.6,21.5 10.9,21.5 C11.4,21.5 11.8,21.4 12.3,21.3 C9.9,20.8 8,18.5 8,15.8 C8,15.8 8,15.8 8,15.7 C9,16.1 9.6,16.4 10.4,16.4 C9,15.4 8,13.7 8,11.8 C8,10.8 8.3,9.8 8.7,9 C11.3,12.4 15.3,14.6 19.7,14.8 C19.6,14.4 19.6,14 19.6,13.5 C19.6,10.4 22,7.9 24.9,7.9 C26.4,7.9 27.8,8.6 28.8,9.7 C30,9.4 31.2,9 32.2,8.3 C31.8,9.6 31,10.7 29.9,11.4 C31,11.3 32,11 33,10.5 C32.3,11.7 31.4,12.7 30.4,13.5 L30.4,13.5 Z" id="Shape" sketch:type="MSShapeGroup"></path>
        </g>
    </g>
</svg>