<?xml version="1.0" encoding="utf-8"?>
<!-- Generator: Adobe Illustrator 17.1.0, SVG Export Plug-In . SVG Version: 6.00 Build 0)  -->
<!DOCTYPE svg PUBLIC "-//W3C//DTD SVG 1.1//EN" "http://www.w3.org/Graphics/SVG/1.1/DTD/svg11.dtd">
<svg version="1.1" id="Layer_1" xmlns="http://www.w3.org/2000/svg" xmlns:xlink="http://www.w3.org/1999/xlink" x="0px" y="0px"
	 viewBox="0 0 72 72" enable-background="new 0 0 72 72" xml:space="preserve">
<path d="M51,17H21c-2.2,0-4,1.8-4,4v30c0,2.2,1.8,4,4,4h30c2.2,0,4-1.8,4-4V21C55,18.8,53.2,17,51,17z M47.4,30.5c0,0.2,0,0.5,0,0.7
	c0,7.4-5.4,15.9-15.2,15.9c-3,0-5.8-0.9-8.2-2.5c0.4,0.1,0.8,0.1,1.3,0.1c2.5,0,4.8-0.9,6.6-2.4c-2.3,0-4.3-1.7-5-3.9
	c0.3,0.1,0.7,0.1,1,0.1c0.5,0,0.9-0.1,1.4-0.2c-2.4-0.5-4.3-2.8-4.3-5.5c0,0,0,0,0-0.1c1,0.4,1.6,0.7,2.4,0.7
	c-1.4-1-2.4-2.7-2.4-4.6c0-1,0.3-2,0.7-2.8c2.6,3.4,6.6,5.6,11,5.8c-0.1-0.4-0.1-0.8-0.1-1.3c0-3.1,2.4-5.6,5.3-5.6
	c1.5,0,2.9,0.7,3.9,1.8c1.2-0.3,2.4-0.7,3.4-1.4c-0.4,1.3-1.2,2.4-2.3,3.1c1.1-0.1,2.1-0.4,3.1-0.9C49.3,28.7,48.4,29.7,47.4,30.5z"
	/>
</svg>
